<svg xmlns="http://www.w3.org/2000/svg" width="16" height="16" fill="none" viewBox="0 0 16 16"><path fill="#111" fill-rule="evenodd" d="M1.371 8A6.629 6.629 0 1114.63 8 6.629 6.629 0 011.37 8zM8 0a8 8 0 100 16A8 8 0 008 0zm.178 5.75a1.143 1.143 0 11-1.27-1.9 1.143 1.143 0 011.27 1.9zm-.723-1.16a.228.228 0 10.175.422.228.228 0 00-.175-.422zM6.34 7.025c0-.379.307-.686.686-.686h.487a1.173 1.173 0 011.174 1.173V9.95a.29.29 0 00.29.29h.487a.686.686 0 110 1.371h-.488a1.66 1.66 0 01-1.66-1.66V7.71h-.29a.686.686 0 01-.686-.686z" clip-rule="evenodd"></path></svg>