<svg width="24" height="24" viewBox="0 0 24 24" fill="none" xmlns="http://www.w3.org/2000/svg">
<path fill-rule="evenodd" clip-rule="evenodd" d="M13.3913 15.8261C13.2068 15.8261 13.0299 15.8994 12.8994 16.0298C12.7689 16.1603 12.6957 16.3372 12.6957 16.5217V18.2609C12.6957 18.3531 12.659 18.4416 12.5938 18.5068C12.5285 18.5721 12.4401 18.6087 12.3478 18.6087H5.73913C5.64688 18.6087 5.55841 18.5721 5.49318 18.5068C5.42795 18.4416 5.3913 18.3531 5.3913 18.2609V5.73913C5.3913 5.64688 5.42795 5.55841 5.49318 5.49318C5.55841 5.42795 5.64688 5.3913 5.73913 5.3913H11.8478C12.124 5.3913 12.3478 5.16745 12.3478 4.8913V4.5C12.3478 4.22386 12.124 4 11.8478 4H5.3913C5.02231 4 4.66842 4.14658 4.4075 4.4075C4.14658 4.66842 4 5.02231 4 5.3913V18.6087C4 18.9777 4.14658 19.3316 4.4075 19.5925C4.66842 19.8534 5.02231 20 5.3913 20H12.6957C13.0646 20 13.4185 19.8534 13.6795 19.5925C13.9404 19.3316 14.087 18.9777 14.087 18.6087V16.5217C14.087 16.3372 14.0137 16.1603 13.8832 16.0298C13.7527 15.8994 13.5758 15.8261 13.3913 15.8261ZM13.8902 6.70575L18.9038 6.5377L18.9034 6.53714C19.0179 6.53331 19.1315 6.5578 19.2342 6.60842C19.3369 6.65905 19.4256 6.73425 19.4923 6.82735C19.5589 6.92045 19.6016 7.02857 19.6165 7.14211C19.6313 7.25566 19.6179 7.37111 19.5774 7.47824L17.8043 12.1708C17.7557 12.2994 17.6702 12.4106 17.5584 12.4906C17.4076 12.5956 17.2218 12.6375 17.0405 12.6075C16.8592 12.5775 16.6968 12.478 16.5878 12.3301L15.5752 10.9162L10.4851 14.5617C10.3737 14.6415 10.2476 14.6985 10.1142 14.7296C9.98073 14.7607 9.84245 14.7652 9.70726 14.7428C9.57206 14.7205 9.4426 14.6717 9.32625 14.5993C9.2099 14.5269 9.10895 14.4323 9.02916 14.3209C8.94937 14.2095 8.89231 14.0835 8.86123 13.95C8.83014 13.8166 8.82565 13.6783 8.84801 13.5431C8.87037 13.4079 8.91914 13.2784 8.99153 13.1621C9.06392 13.0457 9.15852 12.9448 9.26993 12.865L14.36 9.21951L13.3474 7.8056C13.2742 7.70319 13.2301 7.58284 13.2199 7.45737C13.2097 7.3319 13.2338 7.20601 13.2895 7.09313C13.3452 6.98025 13.4305 6.8846 13.5363 6.81638C13.6421 6.74816 13.7644 6.70993 13.8902 6.70575Z" fill="white"/>
</svg>
