<?xml version="1.0" encoding="UTF-8" standalone="no"?>
<svg
   xmlns:dc="http://purl.org/dc/elements/1.1/"
   xmlns:cc="http://creativecommons.org/ns#"
   xmlns:rdf="http://www.w3.org/1999/02/22-rdf-syntax-ns#"
   xmlns:svg="http://www.w3.org/2000/svg"
   xmlns="http://www.w3.org/2000/svg"
   xml:space="preserve"
   enable-background="new 0 0 685.466 638.968"
   viewBox="0 0 666.88556 540.86473"
   height="540.86475"
   width="666.88556"
   y="0px"
   x="0px"
   id="Ebene_1"
   version="1.1"><metadata
   id="metadata272"><rdf:RDF><cc:Work
       rdf:about=""><dc:format>image/svg+xml</dc:format><dc:type
         rdf:resource="http://purl.org/dc/dcmitype/StillImage" /><dc:title></dc:title></cc:Work></rdf:RDF></metadata><defs
   id="defs270">
	
	
	
	
	
	
	
	
	
	
	
	
	
	
</defs>
<path
   d="m 269.40573,455.04731 c -3.06,-5.535 -7.665,-12 -15.075,-11.49 -1.665,-4.305 -4.754,-11.055 -7.635,-14.609 0.465,4.199 -5.79,5.551 -7.096,1.83 -1.949,-5.566 -7.229,-5.279 -12.06,-5.971 0.69,5.926 0.75,12.256 -6.21,14.131 -5.535,1.484 -10.305,-0.586 -14.55,-3.75 -5.085,-3.75 -10.755,-7.561 -17.279,-7.967 -8.505,-0.539 -16.591,3.24 -25.261,2.477 -0.914,-4.531 -8.174,-2.324 -8.174,-5.791 0,-5.055 -7.246,-4.094 -10.246,-4.154 -3.734,4.439 -12.33,1.891 -17.115,4.186 -0.314,3.061 -0.119,6.27 -0.405,9.344 -6.51,1.111 -7.065,-5.176 -12.089,-7.199 -4.815,-1.949 -13.45499,-0.84 -17.009995,3.074 -0.27,0.824 -0.436,1.756 -0.391,2.881 0.825,0.193 2.070005,0.225 2.895005,0.076 -0.555,-3.977 6.14999,-3.662 8.37099,-2.596 3.974,1.904 1.319,11.504 1.109,14.879 -2.34,-0.014 -5.386,0.18 -2.58,2.926 1.275,0.029 2.504,-0.166 3.705,-0.602 1.71,0.092 2.805,1.381 4.424,1.682 0.406,2.43 -0.869,4.846 -0.854,7.379 0.524,0.18 1.274,0.195 1.801,0.045 0.224,-3.42 11.039,-3.523 13.243,-2.25 2.536,1.455 0.75,8.01 0.601,10.141 -0.061,1.771 -0.166,3.541 -0.285,5.295 -0.164,2.506 1.8,4.77 1.471,7.111 4.35,0.389 10.185,-1.307 14.189,0.93 2.939,1.648 -0.015,11.564 -0.36,14.07 -2.76,0.014 -2.22,4.094 -2.039,5.953 -3.961,0.15 -7.096,-0.014 -7.605,4.74 -0.21,2.1 3.944,11.82 -0.796,11.807 -4.02,0 -4.68,-8.012 -9.885,-7.666 -5.925,0.389 -0.615,5.625 2.835,5.459 0.75,2.73 -2.7,2.957 -4.529,3.615 -3.75,1.336 -5.565,4.455 -6.135,8.311 1.845,0.734 2.099,6.09 4.515,7.666 4.41,2.879 8.82,6.51 13.785,2.625 2.91,-2.281 6.66,-4.816 8.789,-7.875 1.786,-2.566 2.551,-8.191 6.75,-7.727 0.315,-3.523 0.467,-7.334 0.271,-10.859 -0.271,-0.061 -0.555,-0.121 -0.826,-0.195 -0.33,-1.801 0.314,-3.6 0.646,-5.324 7.994,-3.945 19.904,-6.285 28.74,-4.141 4.319,1.051 5.398,6.24 9.839,6.9 2.73,0.404 8.19,-0.076 7.681,-4.066 0.99,0.211 2.385,-0.283 3.375,-0.059 1.033,-10.35 5.414,2.145 7.875,-3.422 1.574,-3.584 2.55,-4.754 6.254,-5.729 3.916,-1.035 -0.045,-6.57 3.916,-8.76 -7.966,-2.775 -0.87,-4.785 3.765,-4.275 6.12,0.676 7.14,2.686 7.349,8.43 0.977,-0.209 2.521,-0.795 3.406,-1.439 0.75,-7.83 7.649,-0.615 7.08,4.215 2.145,0.885 4.574,0.734 6.869,0.674 -0.359,-8.49 4.861,-6.494 11.236,-6.732 0.898,-2.686 -2.041,-3.287 -1.2,-5.883 5.339,-2.713 3.075,-10.107 10.125,-9.418 0.239,-2.582 0.12,-5.266 0.358,-7.846 1.786,-0.314 3.301,-0.045 3.99,1.439 0.375,0.045 0.916,0.016 1.276,0.18 -1.334,-2.416 -3.509,-4.246 -4.844,-6.676"
   id="path220"
   style="fill:#a30000;fill-opacity:1;stroke:#a30000;stroke-width:1.10000002;stroke-miterlimit:4;stroke-dasharray:none;stroke-opacity:1" /><path
   d="m 59.195735,315.35231 c 7.32,-4.621 10.47,-0.09 17.91,-0.344 4.694,-0.166 8.189,-0.705 11.85,2.684 1.891,1.756 5.115,5.191 7.936,3.016 4.770005,-3.676 10.214995,-3.705 14.788995,1.199 5.235,5.625 1.726,12.736 9.976,16.875 0.135,-0.945 0.346,-1.875 0.765,-2.668 7.305,1.125 9.689,-14.477 19.141,-6.137 -0.99,1.619 -4.141,3.42 -3.359,5.715 1.889,5.551 4.56,1.65 6.389,-0.568 2.19,-2.643 5.4,-4.23 8.221,-1.143 1.979,2.176 -1.455,4.951 -2.43,6.707 5.189,0.449 11.219,0.734 15.719,-2.355 6.016,-4.125 4.365,-10.785 4.921,-16.996 0.615,-0.014 1.245,-0.029 1.875,-0.045 -0.12,-10.094 3.944,-18.764 4.29,-28.574 0.359,-10.125 -2.685,-20.686 1.904,-30.285 5.611,0.24 9.96,-12.525 9.301,-16.799 -0.285,-0.061 -0.555,-0.135 -0.824,-0.195 -0.092,-1.846 -0.166,-3.916 -0.151,-5.939 -3.36,2.895 -3.63,3.328 -4.095,7.844 -2.086,0.66 -3.586,2.773 -3.646,4.92 -4.724,0.164 -5.204,-1.109 -8.31,-4.109 -3.225,-3.121 -11.654,-1.891 -15.6,-1.695 -5.221,0.27 -11.041,-0.945 -16.096,0.6 -6.959,2.115 -5.52,5.67 -8.084,10.875 -1.111,2.25 -3.421,7.98 -6.705,7.545 -5.041,-0.676 -8.956,-4.801 -14.355,-5.324 -12.479995,-1.215 -25.063995,0.629 -37.438995,-2.041 -0.029,0.646 -0.061,1.275 -0.121,1.92 -10.02,0.301 -20.398,-4.754 -30.494,-2.85 -6.766,1.275 -14.506,16.096 -4.95,18.586 0.194,1.754 0.915,3.314 0.601,5.158 -4.605,0.166 -5.956,0.855 -6.406,5.822 -0.165,1.814 -0.06,4.199 -1.064,5.818 -0.916,1.471 -5.205,1.59 -3.99,4.035 1.365,2.744 6.36,6.84 8.716,8.879 4.245,3.691 -1.62,11.73 4.77,13.906 0.105,0.016 0.21,0.029 0.315,0.045 0.029,-0.029 0.045,-0.029 0.045,0.016 6.385,1.002 11.8,0.267 18.685,-4.098"
   id="path222"
   style="fill:#a30000;fill-opacity:1;stroke:#a30000;stroke-width:1.10000002;stroke-miterlimit:4;stroke-dasharray:none;stroke-opacity:1" /><path
   d="m 101.00174,427.76231 c 4.79899,-2.145 9.80999,-3.869 15.22399,-1.68 5.01,2.023 5.58,8.311 12.092,7.199 0.283,-3.074 0.089,-6.283 0.404,-9.344 4.785,-2.295 13.379,0.254 17.115,-4.186 -0.661,-0.014 -1.306,-0.031 -1.936,-0.09 0.029,-6.09 -1.125,-11.895 -0.855,-18.061 0.346,-7.424 -3.51,-9.719 -10.14,-11.506 -5.97,-1.619 -9.51,-4.857 -14.145,-8.76 -3.706,-3.119 -7.966,-4.154 -12.286,-6.074 -1.244,-0.555 -7.993995,-3.346 -5.53299,-5.596 4.54299,-4.154 10.52899,5.791 14.75999,0.586 2.908,-3.586 -0.166,-10.004 -0.092,-14.129 0.121,-6.705 5.115,-10.951 6.061,-17.342 -8.475,-4.26 -4.844,-13.32 -11.399,-18.119 -2.64,-1.934 -7.96599,-4.365 -11.068995,-2.086 -3.375,2.477 -4.921,3.9 -8.717,0.525 -3.375,-2.984 -5.579,-4.738 -10.439,-4.334 -5.115,0.434 -8.64,-2.236 -13.38,-2.236 -4.8,0 -8.175,3.646 -12.404,5.43 -4.396,1.861 -9.03,2.221 -13.726,1.486 1.846,4.965 -6.36,13.859 -11.039,11.023 -2.805,-1.693 -6.166,-1.424 -9.15,-0.344 -5.535,1.98 -7.725,-3.525 -10.6500005,-6.93 -0.6,1.365 -0.975,3.584 -2.775,3.615 -0.479,5.475 0.375,6.811 5.7300005,7.289 -0.36,5.4 -1.439,10.59 -1.92,15.99 -3.5560005,-0.525 -4.1540005,5.461 -4.6950005,8.189 -0.48,2.477 -0.855,5.521 0.18,7.906 1.141,2.609 3.9600005,2.205 3.69,5.654 2.7450005,0.945 3.7350005,3.9 7.0050005,3.629 2.221,-0.18 4.995,-1.363 4.035,2.297 -1.98,-0.227 -3.646,0.84 -3.855,2.895 -0.959,0.6 -0.944,0.465 -1.545,1.471 -0.33,0.029 -0.689,-0.016 -1.02,0.088 0.465,2.207 0.42,4.771 3.555,4.23 0.09,2.266 -1.439,6.631 1.365,7.891 2.085,0.945 7.604,-1.68 8.311,1.635 1.561,0.119 3.18,0.195 4.755,0.119 0.375,-3.328 -0.015,-7.875 4.875,-7.379 2.414,0.24 8.204,2.656 9.06,-1.154 0.436,-0.135 0.72,-0.031 1.095,-0.256 -0.104,2.234 0.36,4.381 0.24,6.57 3.69,0.227 4.096,4.709 6.556,4.904 1.334,0.105 -0.166,-8.699 0,-10.273 2.535,2.385 3.074,1.395 4.305,5.355 0.735,2.354 2.61,5.953 5.445,6.193 1.185,5.1 -6.99,2.611 -9.525,3.422 -3.18,1.004 -5.115,11.789 -0.975,12.645 9.93,2.084 0.915,10.77 -1.71,6.584 -3.735,-5.969 -6.511,-9.824 -14.431,-8.311 -0.3,1.846 -1.59,2.67 -3.449,2.041 -0.331,-7.471 -6.555,-3.645 -8.16,-8.986 -1.727,-5.729 -6.45,-9.434 -12.465,-9.463 -0.091,1.199 -0.12,2.443 -0.091,3.645 2.37,-0.016 4.875,2.189 6.976,2.924 0.061,1.861 -1.141,3.705 -0.841,5.551 0.405,2.58 3.646,2.549 5.101,4.275 3.09,3.645 3.495,8.818 -2.37,9.389 -0.931,2.461 -2.175,5.836 -1.74,8.477 3.585,0.328 7.591,1.424 11.19,0.658 2.264,-0.479 0.629,-10.109 0.795,-11.879 3.676,-0.75 5.024,2.266 7.455,4.215 3.48,2.789 10.98,2.371 15.24,2.746 0.148,4.094 -1.26,8.805 3.898,9.119 -0.523,0.225 -0.104,2.145 0.031,2.475 1.875,-0.539 1.485,-2.266 1.62,-3.93 4.47,0.016 8.97,0.404 13.454,0.24 -0.029,-0.404 0.181,-0.975 0.15,-1.381 2.775,-0.104 5.521,0.211 7.53,-2.129 1.77,-2.07 2.911,-3.705 5.714,-4.41 0.151,-1.814 0.57,-3.9 -0.898,-5.146 2.369,-0.135 9.51,-1.033 9.375,2.371 0.629,0.211 1.875,0.24 2.52,0.061 0.119,-1.186 0.09,-2.445 0.211,-3.631 0.839,-0.148 2.069005,-0.119 2.895005,0.074 0.105,3.436 -1.605005,4.996 -2.400005,7.457 0.567,-0.582 1.137005,-1.092 1.812005,-1.393"
   id="path230"
   style="fill:#a30000;fill-opacity:1;stroke:#a30000;stroke-width:1.10000002;stroke-miterlimit:4;stroke-dasharray:none;stroke-opacity:1" /><path
   d="m 191.03073,321.75831 c -6.63,-0.57 -13.335,-0.676 -19.98,-0.436 -0.554,6.209 1.096,12.869 -4.919,16.994 -4.5,3.09 -10.531,2.807 -15.721,2.355 0.885,-1.605 3.226,-3.42 3.031,-5.445 -0.346,-3.539 -5.551,-3.436 -7.471,-1.604 -2.085,1.979 -3.15,6.93 -6.45,3.854 -3.3,-3.074 0.495,-4.936 2.069,-7.5 -9.435,-8.34 -11.834,7.262 -19.139,6.137 -1.276,2.443 -0.602,5.354 -1.921,7.783 -1.365,2.52 -3.255,4.381 -4.14,7.217 -1.86,5.969 1.98,12.164 0.061,17.744 -2.221,6.465 -8.955,-0.119 -12.76599,-0.195 -6.600005,-0.121 -0.886,4.83 1.38099,5.939 3.254,1.59 6.959,2.369 10.108,4.156 5.716,3.225 9.24,8.895 15.78,10.783 5.835,1.68 11.865,2.73 12.121,9.947 0.224,6.629 0.854,13.574 0.824,20.158 5.189,0.48 8.88,-1.004 11.895,3.391 1.051,1.516 -0.225,2.715 2.641,2.91 2.835,0.195 5.205,0.705 5.82,3.75 9.284,0.824 18.436,-3.824 27.51,-2.205 7.695,1.381 11.85,7.426 18.42,10.41 5.984,2.715 16.664,2.145 17.686,-6 1.064,-8.566 -1.531,-17.82 -3.301,-26.086 -0.961,-4.5 -0.09,-9.359 -2.28,-13.588 -2.175,-4.201 -4.845,-8.115 -7.515,-12 -4.59,-6.691 -10.186,-12.961 -10.08,-21.541 0.09,-7.605 -5.775,-12.977 -7.305,-20.115 -1.633,-7.649 4.516,-15.869 -6.359,-16.813"
   id="path232"
   style="fill:#a30000;fill-opacity:1;stroke:#a30000;stroke-width:1.10000002;stroke-miterlimit:4;stroke-dasharray:none;stroke-opacity:1" />
<path
   style="fill:#a30000;fill-opacity:1;stroke:#a30000;stroke-width:1.10000002;stroke-miterlimit:4;stroke-dasharray:none;stroke-opacity:1"
   id="path249"
   d="m 278.61673,446.75231 c -0.841,-3.555 0.044,-9.09 0.375,-12.721 0.554,-0.164 1.604,-0.135 2.145,0.061 0.029,7.186 5.069,12.705 5.94,20.012 0.283,2.338 1.334,3.178 2.084,5.232 0.57,1.561 -0.09,3.406 0.301,4.98 0.314,1.246 2.145,4.23 4.05,2.686 1.724,-1.395 -1.05,-2.686 -1.306,-3.436 -0.915,-2.744 0.556,-6.449 0.166,-9.314 -0.766,-5.76 -2.266,-11.25 -2.836,-17.234 -0.404,-4.32 0.346,-8.176 -0.659,-12.391 -1.05,-4.41 -2.056,-8.1 -2.19,-12.721 -0.119,-4.109 -2.025,-7.125 -2.31,-11.01 -1.905,-0.615 -3.841,0.074 -4.38,1.771 -1.23,-4.006 2.174,-3.406 4.919,-3.42 0.165,-2.777 0.3,-3.586 1.74,-5.777 1.306,-1.979 2.896,-2.367 3.661,-5.023 1.185,-4.125 0.719,-9.135 0.839,-13.5 0.046,-1.92 0.421,-4.125 0.151,-6.016 -0.661,-4.68 -3.615,-9.375 -4.666,-14.145 -1.215,-5.473 -2.691,-11.242 -3.4,-16.852 -5.637,-0.029 -11.426,-0.775 -16.641,-0.594 -0.615,3.031 -9.194,3.211 -8.158,-1.215 -10.727,-0.646 -22.352,-1.426 -32.971,-3 0.225,-0.811 -0.256,-2.055 -0.061,-2.865 -4.755,-0.436 -23.189,-5.1 -24.676,1.709 -1.334,0.166 -2.385,0.393 -3.358,0.615 -1.125,8.686 4.635,13.756 6.72,21.57 1.035,3.9 0.346,7.92 1.725,11.805 1.306,3.631 3.645,6.766 5.865,9.871 5.295,7.439 11.7,15.074 12.27,24.48 0.496,8.145 2.625,16.365 3.57,24.51 4.334,0.615 8.625,0.209 11.295,4.395 1.32,2.07 0.766,3.285 3.615,3.6 2.595,0.285 4.561,-1.078 4.26,-3.855 2.881,3.557 5.97,10.307 7.635,14.611 9.391,-0.645 16.141,11.234 19.904,18.18 0.017,0 0.046,0.016 0.061,0.016 0,0.045 0.016,0.09 0.031,0.135 0.675,1.275 1.154,2.639 1.635,3.961 2.25,0.148 3.346,-1.832 4.02,-3.977 1.032,0.363 2.035,0.787 3.029,1.234 -0.995,-2.135 -2.98,-4.094 -3.104,-6.139 5.22,0.437 -0.961,-8.819 -1.29,-10.229 z" />
<path
   style="fill:#a30000;fill-opacity:1;stroke:#a30000;stroke-width:1.10000002;stroke-miterlimit:4;stroke-dasharray:none;stroke-opacity:1"
   id="path251"
   d="m 285.29073,318.90731 c 0.78,-1.83 2.146,-3.195 2.73,-5.113 1.86,-6.092 3.149,-14.551 8.714,-18.855 4.967,-3.855 4.651,-9.721 7.921,-14.355 1.86,-2.654 4.14,-6.99 7.711,-7.801 0.666,-0.148 1.349,-0.16 2.036,-0.131 -0.22,-0.383 -0.468,-0.732 -0.776,-1.008 -6.63,-5.926 -4.005,-8.176 -0.3,-15.256 -5.176,-0.375 -11.477,-0.436 -16.5,-1.471 -1.891,-0.389 -3.871,-1.334 -5.852,-1.168 -3.254,0.254 -6.329,2.564 -9.689,1.68 -0.105,-2.957 1.02,-6.916 -1.365,-9.301 -3.524,-3.525 -9.24,-0.646 -13.439,-0.961 -0.6,1.785 -0.164,3.572 1.74,4.064 0.165,0.707 0.15,1.621 -0.046,2.342 -5.385,1.32 -2.97,5.82 -5.294,9.344 -2.01,3.045 -8.476,0.842 -7.666,5.852 -5.925,0.119 -11.055,-5.654 -14.459,-9.932 -3.391,-4.26 -0.66,-14.879 0.015,-19.814 2.145,-15.495 -21.931,2.041 -26.37,1.141 0,-0.016 -0.015,-0.029 -0.015,-0.029 -3.99,0.598 -6.586,-1.711 -9.841,-3.422 -3.719,-1.963 -8.07,-1.648 -12.12,-1.453 -1.5,2.189 -2.909,4.545 -4.979,6.283 -0.03,2.041 0.061,4.096 0.15,5.939 0.27,0.061 0.555,0.137 0.824,0.197 0.66,4.273 -3.705,17.023 -9.299,16.799 -4.591,9.6 -1.545,20.16 -1.906,30.285 -0.359,9.811 -4.425,18.48 -4.29,28.574 6.646,-0.18 13.411,-0.135 20.026,0.662 6.135,0.75 5.099,5.684 4.454,10.619 0.976,-0.225 2.026,-0.451 3.36,-0.615 1.485,-6.811 19.92,-2.145 24.676,-1.711 -0.195,0.811 0.27,2.055 0.06,2.865 10.62,1.592 22.245,2.371 32.97,3 -1.035,4.426 7.545,4.246 8.16,1.217 5.272,-0.18 11.018,0.518 16.605,0.527 -0.051,-0.408 -0.108,-0.814 -0.15,-1.219 -0.602,-5.578 0,-12.555 2.204,-17.775 z" />
<path
   style="fill:#a30000;fill-opacity:1;stroke:#a30000;stroke-width:1.10000002;stroke-miterlimit:4;stroke-dasharray:none;stroke-opacity:1"
   id="path253"
   d="m 318.92073,272.58631 c 2.235,-0.629 3.48,-2.369 5.535,-3.074 0.075,-0.449 0.105,-0.869 0.195,-1.32 4.531,-2.865 10.995,-2.068 16.455,-1.588 -0.225,2.863 1.155,5.113 1.379,7.979 0.166,2.25 -1.514,7.396 2.267,6.494 -0.091,-2.295 -0.03,-4.783 2.654,-5.309 0.255,2.16 -0.765,3.705 -0.51,5.865 3.595,0.395 3.571,-5.402 3.726,-8.633 -0.377,-0.635 -0.761,-1.23 -1.16,-1.748 -3.09,-4.035 -0.781,-11.984 -0.766,-16.74 0,-7.035 -3.81,-11.656 -6.06,-17.984 -1.846,-5.16 -7.11,-7.38 -9.99,-11.775 -3.435,-5.235 -5.25,-11.055 -11.19,-14.145 -5.4,-2.805 -11.579,-2.266 -17.4,-3.42 -2.909,-0.586 -11.265,-0.436 -11.895,-4.352 -0.855,-5.295 -0.029,-8.805 -5.43,-12.045 -0.645,0.15 -1.335,0.24 -2.131,0.226 -1.109,2.01 -0.99,4.454 -2.264,6.375 -1.71,2.579 -4.291,4.185 -5.671,7.02 -2.909,5.971 -6.779,-1.125 -6.63,-4.755 -5.189,-1.245 -9.436,-1.59 -14.235,1.005 -6.75,3.661 -13.89,2.296 -21.239,3.105 -3.119,0.346 -6.105,1.38 -9.24,1.575 -1.905,0.119 -5.055,-0.676 -6.855,0.24 -1.829,0.93 -1.484,5.1 -1.484,6.555 -0.016,3.976 -1.246,5.476 -2.625,8.834 1.004,3.705 6.615,16.156 0.045,17.146 0,0.016 0.015,0.029 0.015,0.029 4.44,0.9 28.5,-16.62 26.37,-1.139 -0.676,4.904 -2.865,13.723 -0.87,18.42 2.086,4.918 9.825,11.445 15.315,11.324 -0.72,-4.439 4.17,-3.18 6.646,-4.83 4.14,-2.775 0.21,-8.881 6.299,-10.365 0.196,-0.705 0.211,-1.619 0.046,-2.34 -1.904,-0.496 -2.34,-2.279 -1.74,-4.064 3.84,0.285 7.891,-1.74 11.641,-0.195 4.409,1.814 3.044,6.764 3.164,10.471 2.535,0.658 5.01,-0.555 7.365,-1.217 3.09,-0.869 5.16,0.076 8.176,0.705 5.023,1.051 11.339,1.096 16.5,1.471 -3.705,7.08 -6.315,9.33 0.3,15.256 0.315,0.281 0.575,0.627 0.802,1.01 1.503,0.068 3.034,0.345 4.49,-0.067 z" />
<path
   style="fill:#a30000;fill-opacity:1;stroke:#a30000;stroke-width:1.10000002;stroke-miterlimit:4;stroke-dasharray:none;stroke-opacity:1"
   id="path255"
   d="m 350.70573,271.82331 c 0.523,0.822 0.702,1.955 0.951,2.996 0.6,0.852 1.198,1.711 1.761,2.596 0.393,0.123 0.867,0.16 1.474,0.064 0.105,0.463 0.061,0.898 0.105,1.363 0.659,0.166 1.215,0.031 1.859,0.045 -0.016,-1.004 0.375,-2.234 0.136,-3.27 0.63,1.486 1.904,1.844 3.585,1.439 -2.955,-0.9 -1.906,-5.879 0.24,-7.889 3.959,-3.689 8.474,-4.471 10.574,-9.977 0.84,-2.219 0.51,-4.334 1.785,-6.344 1.32,-2.1 3.645,-3.031 5.131,-4.859 2.129,-2.625 1.918,-2.941 2.204,-6.467 0.45,-5.639 2.505,-6.389 7.71,-6.811 3.689,-0.299 7.56,-1.213 11.04,-2.292 0.023,-0.17 0.021,-0.328 0.009,-0.481 -0.185,-0.411 -0.384,-0.813 -0.584,-1.216 -1.424,-1.418 -5.062,-1.465 -6.819,-0.959 -3.586,1.035 -3.48,3.361 -8.04,2.746 1.029,-4.064 10.316,-3.201 14.207,-3.06 -0.369,-0.645 -0.771,-1.271 -1.217,-1.875 -3.541,-4.77 -9.271,-8.145 -9.871,-14.551 -0.346,-3.63 -0.975,-8.699 -6.119,-7.38 -4.276,1.11 -5.311,6.615 -10.561,5.19 -3.795,-1.036 -10.995,-1.111 -13.186,-4.5 -3.6,-5.58 -0.405,-8.671 1.77,-13.275 1.171,-2.475 0.135,-4.185 -1.74,-5.625 -2.339,-1.8 -2.608,-5.386 -2.594,-8.069 0.015,-6.721 1.305,-12.886 -2.73,-18.841 -2.279,2.265 -1.89,6.48 -4.936,8.07 0.977,12.6 -19.395,-5.234 -21.089,-5.16 -6.06,0.256 -2.415,6.104 -4.306,9.496 -1.29,2.31 -3.3,1.363 -4.589,-0.256 -2.326,-2.925 -4.485,-3.689 -8.235,-3.57 -0.721,3.555 0.735,7.814 3.659,10.035 3.466,2.625 7.546,0.689 11.28,2.16 5.806,2.266 4.2,11.34 2.385,15.705 -2.31,-2.221 -3,-6.105 -6.375,-7.156 -3.194,-1.004 -6.569,-0.043 -9.81,-1.139 -8.385,-2.852 -8.161,-5.145 -8.49,-13.291 -3.24,-0.375 -5.385,-3.375 -8.819,-1.709 -2.955,1.439 -3.525,4.079 -7.65,3.629 -0.03,-0.045 -0.045,-0.089 -0.06,-0.135 -0.961,2.236 -3.06,1.561 -3.735,4.83 -0.18,0.855 -1.591,7.395 0.48,7.23 3.914,-0.314 9.404,3.42 10.274,7.365 0.645,2.969 -0.96,7.5 2.806,8.715 9.855,3.165 23.069,0.465 30.944,8.204 3.796,3.721 5.024,9.12 8.52,13.036 3.976,4.454 7.036,7.019 9.675,12.541 2.49,5.203 4.967,9.434 4.967,15.389 0,4.23 -2.041,11.445 -0.137,15.344 0.588,1.213 1.307,2.34 2.062,3.451 0.004,-0.104 0.009,-0.209 0.014,-0.307 0.022,-0.447 0.046,-0.849 0.085,-1.175 z" />
<path
   style="fill:#a30000;fill-opacity:1;stroke:#a30000;stroke-width:1.10000002;stroke-miterlimit:4;stroke-dasharray:none;stroke-opacity:1"
   id="path257"
   d="m 406.92673,230.30431 c 3.15,0.854 5.385,3.134 8.385,3.675 0.09,0.539 0.375,1.363 0.42,1.783 0.212,-1.809 0.177,-3.734 0.311,-5.581 10e-4,-0.092 10e-4,-0.176 0.004,-0.27 0.091,-3.645 -0.659,-7.515 4.081,-7.229 4.529,0.27 7.935,-5.025 9.12,-8.775 0.975,-3.104 0.015,-7.62 -0.887,-10.68 -1.694,-5.7 -5.579,-6.96 -8.939,-11.174 -2.534,-3.181 0.24,-9.586 -0.87,-13.561 -1.335,-4.801 -4.858,-9.285 -5.325,-14.266 -0.435,-4.635 -1.514,-9.104 -2.608,-13.635 -1.336,-5.52 -5.701,-7.32 -7.605,-11.97 -3.24,1.154 -3.255,4.44 -5.88,6.029 -2.61,1.591 -5.01,0.661 -7.5,3.06 -3.525,3.391 -9.255,0.556 -12.12,4.455 -3.81,5.176 -5.355,3.676 -10.5,6.615 -2.086,1.186 -3.51,2.355 -6.075,1.86 -3.391,-0.645 -6.06,-3.165 -9.136,-0.135 3.435,5.085 3.136,10.44 2.806,16.289 -0.181,3.091 -0.299,6.586 1.365,9.346 1.35,2.25 3.555,2.024 3.285,5.22 -0.211,2.355 -1.801,2.564 -2.775,4.425 -1.35,2.579 -1.289,5.895 -0.33,8.579 1.965,5.461 9.255,5.115 14.13,6.451 5.265,1.424 6.286,-4.08 10.56,-5.189 6.092,-1.576 5.625,5.294 6.33,9.015 1.158,6.19 7.966,9.532 10.869,14.806 0.129,0.006 0.267,0.012 0.383,0.014 2.98,0.077 5.757,0.093 8.501,0.843 z" />
<path
   style="fill:#a30000;fill-opacity:1;stroke:#a30000;stroke-width:1.10000002;stroke-miterlimit:4;stroke-dasharray:none;stroke-opacity:1"
   id="path259"
   d="m 416.09073,229.47831 c 2.852,0.495 1.727,4.559 1.815,6.915 4.53,0.943 10.065,-1.516 14.069,-3.061 5.012,-1.919 7.247,-5.219 11.627,-7.185 4.289,-1.919 9.225,-2.34 13.186,-4.814 1.918,-1.2 2.939,-1.664 3.854,-3.676 1.021,-2.25 -0.149,-5.07 2.115,-6.885 -0.12,2.07 -0.195,4.201 -0.12,6.255 0.646,0.151 1.23,0.165 1.86,0.046 1.32,-0.33 0.015,-9.225 0.24,-10.35 0.51,-2.49 1.68,-6.601 2.654,-9.076 1.156,-2.939 3.391,-4.26 2.91,-7.919 -0.254,-2.04 -3.254,-5.507 -5.31,-5.941 -0.27,0.81 -0.3,2.401 -0.091,3.24 0.466,0.06 0.916,0.12 1.365,0.181 0.12,3.51 0.495,7.846 -1.305,10.846 -7.484,1.935 -0.539,-17.746 1.109,-19.936 2.296,-3.061 6.57,-3.824 9.721,-5.73 2.885,-1.751 5.243,-3.901 7.805,-5.896 -1.478,-4.119 -2.017,-8.486 -0.5,-12.764 1.096,-3.061 4.98,-4.575 3.721,-8.234 -1.096,-3.166 -3.602,-9.495 -6.766,-4.17 -1.965,-0.256 -2.641,-2.791 -4.215,-3.99 -3.69,7.514 -10.996,-3.676 -13.395,-6.75 -1.695,-2.161 -4.246,-5.715 -7.426,-5.46 -1.649,0.135 -3.09,1.664 -4.439,2.444 -3.404,1.936 -6.66,0.811 -10.26,1.59 -0.15,-3.42 0.24,-6.84 0.105,-10.245 -2.207,-0.21 -5.461,0.63 -6.842,-1.755 -1.605,-2.805 1.5,-6.209 3.931,-7.11 5.385,-2.01 8.221,-5.745 3.36,-11.099 -5.189,5.084 -13.201,-1.065 -14.189,8.099 0,1.816 -0.151,3.54 -0.646,4.786 -2.445,6.105 -11.58,2.805 -16.38,6.24 -5.52,3.944 -7.365,11.49 -7.14,17.925 0.149,4.14 3.225,5.159 5.445,8.024 2.43,3.149 2.865,7.591 3.719,11.341 0.826,3.585 0.976,7.349 1.875,10.875 1.081,4.229 3.811,7.993 4.995,12.255 1.142,4.125 -1.049,8.145 0.017,11.939 0.898,3.256 4.964,4.306 6.854,6.825 3.406,4.546 5.641,13.095 3.091,18.45 -1.276,2.685 -3.615,6.119 -6.735,6.839 -2.58,0.586 -5.34,-0.87 -5.76,3.046 -0.334,3.173 -0.475,5.856 -0.138,8.201 0.058,-1.203 0.076,-2.422 0.163,-3.612 0.018,-0.235 0.027,-0.472 0.051,-0.704 z" />
<path
   style="fill:#a30000;fill-opacity:1;stroke:#a30000;stroke-width:1.10000002;stroke-miterlimit:4;stroke-dasharray:none;stroke-opacity:1"
   id="path261"
   d="m 495.74173,157.34331 c 3.375,-5.01 6.464,-5.91 12.181,-8.46 4.74,-2.13 9.734,-4.575 14.895,-5.76 3.27,-0.75 6.764,-1.575 9.721,-3.211 2.803,-1.559 3.283,-4.424 5.444,-6.464 1.8,-1.695 4.95,-2.34 6.194,-4.352 1.289,-2.055 1.215,-5.385 2.654,-7.709 2.911,-4.695 7.517,-8.13 11.431,-11.926 0.276,-0.267 0.574,-0.494 0.858,-0.75 -2.078,-2.029 -3.964,-4.356 -4.594,-6.974 -0.914,-3.78 0.18,-7.396 -3.255,-10.171 -2.056,4.604 -9.224,2.22 -11.385,6.404 -1.74,3.375 2.296,6.842 0.96,10.44 -1.32,3.571 -5.414,3.661 -8.58,3.211 -0.105,-2.13 0.33,-4.336 -0.48,-6.39 -2.054,-0.586 -5.25,0.33 -6.975,-1.216 -1.395,-1.245 -0.855,-4.351 -1.395,-6 -2.955,-0.915 -2.221,-3.3 -0.195,-4.71 2.971,-2.086 7.064,-0.975 10.425,-1.694 0.015,-2.206 -0.315,-8.745 2.671,-9.331 2.55,-0.495 6.915,1.064 5.699,-3.33 -0.449,-0.135 -0.885,-0.105 -1.35,-0.18 0.27,-3.195 -2.685,-2.505 -4.965,-2.64 -0.645,-3.36 1.875,-5.64 1.605,-9.329 -4.846,-0.406 -5.461,0.254 -6.661,4.68 -2.671,0.765 -3.974,-1.275 -4.845,-3.615 -3.84,0.225 -5.984,5.774 -10.064,4.229 -5.115,-1.935 -3.795,-7.319 -10.891,-7.125 -0.18,1.921 -0.135,3.931 -0.299,5.852 -4.756,-0.541 -14.625,14.805 -16.561,5.25 1.68,-0.99 6.39,-4.26 2.669,-5.625 -1.5,-4.605 -4.604,-12.195 -10.529,-13.875 -2.971,4.454 -4.351,6.48 -9.81,7.635 -0.315,3.271 1.395,6.435 1.139,9.766 0.45,0.104 0.901,0.135 1.352,0.179 0.375,1.995 -0.916,2.235 -2.281,2.985 -2.669,1.439 -1.949,5.355 -1.859,7.785 1.244,0.045 2.039,0.779 3.345,0.734 0.226,0.855 0.194,2.505 -0.089,3.346 -2.911,-0.166 -1.951,3.375 -2.161,5.459 -2.911,0.361 -4.56,-0.719 -5.61,2.94 -0.779,2.701 -3.495,6.435 -6.015,2.296 -4.726,-7.756 -11.056,-6.796 -17.204,-0.766 4.859,5.355 2.023,9.09 -3.361,11.1 -2.25,0.841 -3.9,2.716 -4.23,5.16 -0.584,4.32 4.531,3.45 7.082,3.676 0.119,3.404 -0.197,6.87 -0.046,10.289 5.325,-1.154 8.385,-0.929 13.335,-3.6 3.525,-1.905 6.93,2.641 8.79,5.01 2.399,3.075 9.704,14.266 13.395,6.75 1.575,1.2 2.235,3.736 4.216,3.99 3.524,-5.925 7.784,3.345 6.959,6.766 -0.523,2.145 -3.105,3.375 -3.898,5.639 -0.977,2.717 -1.142,5.625 -0.661,8.461 0.245,1.484 0.62,2.918 1.095,4.312 1.23,-0.959 2.504,-1.886 3.915,-2.707 3.479,-2.024 5.998,-3.135 8.219,-6.434 z" />
<path
   style="fill:#a30000;fill-opacity:1;stroke:#a30000;stroke-width:1.10000002;stroke-miterlimit:4;stroke-dasharray:none;stroke-opacity:1"
   id="path263"
   d="m 576.06673,80.69231 c 1.469,-6.675 -5.266,-6.869 -6.645,-12.105 -1.352,-5.084 4.214,-12.389 -3.061,-14.685 -0.105,-3.105 3.465,-13.71 -0.646,-14.534 1.021,-5.281 12.57,-1.245 16.006,-1.516 10.365,-0.766 -1.44,-15.121 -1.545,-19.664 -3.675,-1.006 -6.435,-8.4309999 -6.225,-11.5059999 -0.602,-0.555 -1.561,-1.004 -2.325,-1.08 -0.255,2.865 0.135,13.4709999 -5.325,8.7609999 -0.78,0.914 -1.484,2.474 -1.98,3.479 -0.99,-2.115 -1.305,-4.621 -3,-6 -1.244,2.775 -2.49,8.175 -2.369,11.369 -4.335,-2.52 -5.16,-8.414 -11.056,-3.629 -3.39,2.744 4.726,4.395 5.101,6.944 0.63,0.06 1.245,0.135 1.86,0.194 -2.761,0.151 -5.175,6.75 -7.831,7.98 -2.64,1.215 -5.654,1.786 -8.505,2.236 -2.685,0.42 -5.339,-0.885 -7.904,-0.315 -1.905,0.435 1.589,7.635 -3.36,8.339 -2.76,0.391 -4.005,2.01 -4.305,4.815 -0.436,3.976 4.05,3.78 4.635,7.171 2.069,0 2.355,1.77 1.754,3.555 -3.584,-0.75 -4.408,1.949 -4.5,4.726 0.076,0.239 0.151,0.479 0.227,0.72 1.545,0.375 1.29,0.405 1.574,1.994 -0.314,-0.03 -0.63,-0.045 -0.93,-0.03 0.915,2.296 2.221,4.336 4.889,3.569 1.201,-4.424 1.832,-5.069 6.661,-4.678 0.27,3.674 -2.265,5.969 -1.605,9.329 2.296,0.135 5.235,-0.569 4.966,2.64 0.465,0.074 0.899,0.061 1.35,0.18 1.215,4.395 -3.15,2.835 -5.7,3.33 -2.985,0.586 -2.654,7.11 -2.671,9.33 -2.969,0.631 -6.074,0 -9,0.961 -2.52,0.824 -5.084,4.26 -1.229,5.444 0.539,1.649 0,4.755 1.395,6 1.726,1.546 4.92,0.63 6.976,1.214 0.81,2.056 0.375,4.246 0.479,6.392 2.461,0.345 5.609,0.495 7.5,-1.456 3.33,-3.436 -0.555,-7.08 -0.256,-10.799 0.45,-5.521 9.69,-3.15 11.76,-7.785 2.791,2.264 2.642,4.98 2.94,8.219 0.337,3.632 2.52,6.369 4.998,8.876 4.255,-3.8 9.252,-6.22 14.313,-8.966 -4.833,-6.908 -8.584,-14.087 2.589,-19.019 z" />
<path
   style="fill:#a30000;fill-opacity:1;stroke:#a30000;stroke-width:1.10000002;stroke-miterlimit:4;stroke-dasharray:none;stroke-opacity:1"
   id="path265"
   d="m 584.75173,91.88331 c 1.8,-1.29 3.704,-1.8 5.819,-2.836 3.586,-1.755 8.176,-2.819 11.236,-5.474 2.385,-2.056 3.51,-5.686 6.99,-6.541 3.734,-0.899 1.935,-7.199 2.939,-9.24 1.094,-2.189 3.811,-2.475 5.805,-3.6 3.104,-1.74 7.275,-6.314 10.35,-6.689 0.346,-1.561 1.516,-2.67 3.091,-2.939 1.74,-3.075 3.358,-6.436 5.849,-9.286 1.426,-1.649 3.421,-2.685 4.651,-4.529 1.14,-1.711 1.515,-3.615 2.654,-5.326 1.694,-2.549 4.786,-5.25 7.2,-7.2 2.85,-2.31 5.805,-4.589 8.129,-7.514 1.248,-1.555 1.248,-3.445 1.748,-5.254 -0.141,-0.043 -0.29,-0.067 -0.428,-0.117 -3.945,-1.41 -1.424,-4.949 -1.875,-7.9939999 -3.945,-0.315 -5.369,0.314 -8.445,2.295 -0.479,1.9039999 0.961,2.9849999 2.776,3.0609999 0.974,4.574 -9.646,2.76 -12.63,5.608 -0.811,1.216 -1.846,2.191 -3.091,2.941 -1.125,0.479 -3.104,-0.99 -3.96,0.345 -0.54,0.824 3.15,5.76 3.75,6.555 -6.24,0.24 -5.055,6.39 -10.635,6.93 0.164,0.811 -0.375,2.025 -0.211,2.835 -4.469,0.165 -9.674,1.245 -13.979,-0.404 -5.025,-1.921 -7.201,-4.081 -12.961,-4.23 -2.805,-0.075 -7.875,1.38 -8.445,-2.79 -0.779,-5.67 -4.365,-8.864 -6.27,-14.039 -1.545,-0.392 -2.625,0.24 -3.06,1.754 -0.526,0.121 -1.02,0.09 -1.515,-0.045 0.104,5.596 4.709,8.146 5.654,13.26 2.52,13.561 -18.645,0.226 -20.145,7.92 4.11,0.842 0.539,11.445 0.645,14.536 7.26,2.294 1.709,9.615 3.061,14.685 1.379,5.234 8.115,5.445 6.645,12.104 -3.93,1.74 -7.395,3.915 -7.785,7.935 1.688,3.633 3.151,7.623 5.548,10.9 1.963,-1.07 3.932,-2.188 5.868,-3.475 1.952,-1.292 3.211,-2.823 5.027,-4.142 z" />
</svg>