<?xml version="1.0" encoding="UTF-8" standalone="no"?>
<svg
   xmlns:dc="http://purl.org/dc/elements/1.1/"
   xmlns:cc="http://creativecommons.org/ns#"
   xmlns:rdf="http://www.w3.org/1999/02/22-rdf-syntax-ns#"
   xmlns:svg="http://www.w3.org/2000/svg"
   xmlns="http://www.w3.org/2000/svg"
   id="svg1318"
   version="1.1"
   viewBox="0 0 248.45134 178.78119"
   height="178.78119mm"
   width="248.45134mm">
  <defs
     id="defs1312" />
  <metadata
     id="metadata1315">
    <rdf:RDF>
      <cc:Work
         rdf:about="">
        <dc:format>image/svg+xml</dc:format>
        <dc:type
           rdf:resource="http://purl.org/dc/dcmitype/StillImage" />
        <dc:title></dc:title>
      </cc:Work>
    </rdf:RDF>
  </metadata>
  <path
     d="m 39.8631,0.00222684 c -0.08056,0.007 -0.197705,0.0252 -0.386022,0.0424 l -0.185002,0.32866 c 0.0037,0.0378 0.07139,0.68880996 0.06821,0.70124996 -0.219868,0.85831 -0.763381,0.84802 -1.507918,1.08985 -0.161396,0.55007 -0.32067,1.1005 -0.485241,1.64951 l -0.546738,0.50282 c -0.03889,-5.3e-4 -0.479861,-0.009 -0.488857,-0.006 -0.256646,0.0886 -0.586256,0.32602 -0.829408,0.46096 -0.17145,-0.0709 -1.254683,-0.53848 -1.266589,-0.53795 -0.25453,0.0132 -0.546505,0.0548 -0.798918,0.0418 -0.700352,-0.036 -0.493138,-0.21478 -1.26969,-0.003 l -0.223242,0.061 -0.31781,-0.29766 c -0.278342,-0.0106 -0.625819,-0.0695 -0.900721,-0.0351 -0.7239,0.0908 -1.443926,0.42217 -2.167826,0.52245 -0.590021,0.0818 -1.142627,-0.39422 -1.669148,-0.2868 -0.293952,0.24712 -0.560366,0.46499 -0.805635,0.75551 -0.0217,0.11615 0.480346,0.77244 0.567923,0.89865 l 0.654224,0.22324 c 0.110067,0.23548 0.223264,0.60583 0.376722,0.80771 0.227542,0.29924 0.531696,0.58124 0.787548,0.86196 l 0.02066,0.3452 -0.02532,0.0491 c -0.240506,0.48816 -0.471069,0.82366 -0.888317,1.20096 -0.06443,-0.044 -0.145515,-0.10454 -0.214458,-0.15348 l 0.0052,0.0103 -0.242877,0.39325 -0.485243,0.7860002 c -0.07964,0.17092 -0.03412,0.79682 0.0217,0.98547 0.475192,0.16748 1.131819,0.26357 1.634527,0.18552 0.378883,-0.27914 0.773673,-0.55065 1.178221,-0.79168 0.325967,-0.023 0.882275,0.15195 1.096058,0.41548 0.14261,0.18441 0.108021,0.68699 0.01913,0.87643 -0.145786,0.31035 -0.628499,0.94822 -0.954466,1.11517 0.02857,0.73317 0.35551,1.47848 1.018027,1.84175 0.345016,0.18918 0.769524,0.31416 1.097608,0.52504 0.186796,0.11985 0.385924,0.38347 0.555522,0.5364 0.362743,0.32702 0.738859,0.64232 1.107424,0.96273 0.05239,0.73528 0.02808,2.14795 -0.155546,2.85254 -0.164306,0.62971 -0.460537,1.28259 -0.720887,1.87844 -0.09631,0.22039 -0.228515,0.43889 -0.312123,0.66352 -0.129911,0.34899 -0.198906,0.8414 -0.300241,1.21181 l 0.343132,0.75965 c 0.218282,-0.16431 0.510929,-0.44342 0.74879,-0.56328 0.02328,-0.0119 1.279678,-0.46269 1.294495,-0.4656 0.30771,-0.0606 0.865883,-0.0179 1.19476,-0.0248 l 0.118338,0.43615 c -0.162719,0.3003 -0.333486,0.60391 -0.524516,0.88728 l 0.3452,0.86971 c 0.05107,0.0328 0.651957,0.41448 0.660424,0.42427 0.22807,0.26405 0.912487,1.93655 1.027845,2.27945 0.06615,0.19658 0.07775,0.44994 0.122989,0.65525 0.137054,0.62045 0.305543,1.21913 0.365868,1.85519 l -0.316775,0.44441 -0.432533,0.11886 0.128159,0.87385 c 0.188384,0.19076 0.601377,0.70665 0.673344,0.97203 0.01429,0.0526 -0.0034,0.41546 0.0093,0.43822 l 0.904854,1.62471 c 0.357452,0.0526 0.971603,-0.12719 1.298628,-0.24598 l 0.316777,-0.44494 1.21388,0.85111 c -0.03228,0.75856 0.06213,1.75638 0.486791,2.40037 l 0.871265,0.092 0.285771,-0.18862 0.571539,-0.37724 c 0.27305,-0.24897 0.484119,-0.62178 0.741559,-0.89245 0.426773,-0.44874 1.150469,-0.80469 1.717206,-1.02165 l 0.545703,0.0982 c 0.05292,0.068 0.662559,0.84369 0.670761,0.86248 0.0029,0.007 0.238898,1.1589 0.243396,1.20044 0.0066,0.0627 0.06163,1.98575 0.04496,2.08153 -0.115094,0.65352 -0.70558,2.15678 -1.027843,2.76055 l 0.677995,1.19063 0.328144,0.10335 c 0.583936,-0.27966 1.221513,-0.48813 1.832965,-0.69556 l 0.984951,0.30799 0.186552,0.25167 0.373105,0.50332 c 0.0762,0.18918 0.07281,0.31031 0.119372,0.50902 0.188119,0.79983 0.169828,0.88482 0.541568,1.59628 l 0.151413,0.28939 c 0.347133,0.0971 0.740267,0.24692 1.092957,0.30592 0.192616,0.0323 0.45213,-0.0216 0.652155,-0.0139 0.397669,0.0154 0.799939,0.057 1.197343,0.0853 l 0.446484,0.53795 c 0.02196,1.08136 0.02725,2.0102 -0.09922,3.10266 -0.845344,-0.50112 -1.171319,-0.35096 -2.072225,-0.39171 -0.281252,-0.0127 -0.584377,-0.0978 -0.863513,-0.093 -0.07805,0.001 -1.733087,0.3198 -1.827278,0.35604 -0.216165,0.0831 -0.424069,0.26473 -0.641821,0.3359 -0.216165,0.0709 -0.523809,0.0818 -0.752409,0.12092 -0.194733,0.0336 -0.451766,0.1162 -0.645438,0.11938 l -0.431498,-0.0646 c -0.277813,-0.0418 -0.593376,-0.0604 -0.863516,-0.12919 -0.562768,-0.14367 -1.163891,-0.41557 -1.731158,-0.51108 l -0.790133,0.0139 -0.395324,0.007 c -0.723636,-0.49874 -1.377646,-0.8625 -2.272731,-0.7183 -0.239713,0.0386 -0.514837,0.2117 -0.751375,0.22996 l -0.71882,-0.0594 -0.359666,-0.03 -0.4253,0.44028 c 0.151609,0.3683 0.28316,0.78836 0.339516,1.18391 -0.01826,0.0381 -0.200017,0.42583 -0.209806,0.43615 -0.183621,0.18997 -0.780513,0.54722 -1.069703,0.55966 -0.224896,0.2704 -0.411562,0.76518 -0.523481,1.09088 0.104243,0.42307 0.175644,0.86296 0.233058,1.2945 l -0.642334,0.33538 c -0.554831,-0.30057 -1.665457,-0.24283 -2.263944,-0.0687 -0.202671,-0.26326 -0.573093,-0.50019 -0.870749,-0.63407 l -0.538467,0.009 c -0.214312,0.39688 -0.403394,0.95773 -0.411861,1.41387 -0.329406,-0.14976 -0.7201,-0.64719 -0.874882,-0.9586 -0.525991,-0.14393 -1.07878,-0.0899 -1.617474,-0.0806 -0.472808,0.97129 -0.294132,2.19926 -0.279051,3.25045 l 0.661458,1.07074 c 0.609336,0.15107 1.226704,0.25893 1.837098,0.40101 0.686858,0.15981 1.364633,0.35378 2.054137,0.50539 0.380206,-0.17462 0.781323,-0.32461 1.179256,-0.4532 l 0.439767,0.6413 0.0052,0.43254 -0.318326,0.33021 0.113686,0.43046 c 0.458259,0.2667 1.379622,0.732 1.738398,1.05162 0.230188,0.20532 0.451213,0.51283 0.657323,0.74672 0.634471,-0.0116 1.312643,-0.0828 1.938382,-0.0341 0.52705,0.0413 0.953895,0.37309 1.408184,0.51676 0.194469,0.0614 0.445352,0.0538 0.648023,0.0971 0.252148,0.054 0.507556,0.13615 0.75706,0.20309 0.188119,1.29805 0.250989,2.58025 0.268716,3.8902 0.0053,0.39185 0.073,1.38933 0.02326,1.73065 -0.0026,0.0182 -0.385783,0.90462 -0.418062,0.98082 -0.05794,-0.0281 -0.632879,-0.29966 -0.650606,-0.31368 -0.183356,-0.14579 -0.39062,-0.45666 -0.547253,-0.63976 -0.536311,0.0564 -1.09851,0.18812 -1.611273,0.35296 -0.09419,0.37756 -0.539099,1.18482 -0.842841,1.4211 -0.0844,0.0656 -0.152482,0.0687 -0.250113,0.11265 l -0.500229,0.22479 c -0.437092,0.0902 -1.299737,-0.0183 -1.72651,-0.18655 -0.356129,-0.14023 -0.723519,-0.4145 -1.085205,-0.52245 -0.306652,-0.0915 -1.066255,-0.0825 -1.511019,-0.18965 0.02858,0.0733 0.321887,0.83901 0.33538,0.85938 0.149225,0.22542 0.474282,0.42628 0.655257,0.63769 0.143669,0.16774 0.330507,0.44867 0.439251,0.64182 0.308504,0.54821 0.336494,1.25587 0.421161,1.86758 0.01561,0.11219 2.64e-4,0.18148 0.03928,0.28784 0.06879,0.18733 0.511159,0.81691 0.551905,0.96428 0.0011,0.003 0.01841,1.05778 0.01497,1.08159 -0.04233,0.29634 -0.217467,0.6877 -0.309542,0.97927 l 0.549836,0.85576 c 0.503238,0.26961 1.167348,0.44414 1.730646,0.51108 0.64135,0.47652 0.969875,1.18624 1.425752,1.81436 0.158221,0.21802 0.407805,0.41354 0.54777,0.63976 0.179916,0.29157 0.279066,0.66235 0.443902,0.96583 0.333639,0.61436 0.761661,1.15139 0.995288,1.82211 0.602456,0.32041 1.390007,0.5012 2.05517,0.61392 l 0.330729,0.53485 c 0.382323,0.063 1.750851,0.83385 2.123384,0.93069 0.752211,0.19605 1.947013,1.41855 2.493907,1.96835 0.202171,0.0803 1.265444,-0.0145 1.515668,-0.15554 0.142082,0.0249 0.742715,-0.25585 0.869715,-0.18759 0.400844,0.21511 0.524102,0.13369 0.7953,0.33848 0.118798,0.0897 0.155797,0.17311 0.255281,0.28371 l 0.510564,0.56792 c 0.170656,0.22622 0.273306,0.52096 0.441317,0.74983 0.02037,0.0278 0.644636,0.7359 0.656807,0.74569 0.556683,0.46408 1.560965,0.79554 2.274281,0.86248 0.382056,0.0357 0.815581,0.1048 1.184939,-0.0563 0.504825,0.4273 1.077905,0.80291 1.631942,1.16169 0.09684,0.39793 0.217805,0.79311 0.339514,1.1839 0.281516,0.10769 1.532633,0.55977 1.624708,0.62115 0.06615,0.0442 0.546489,0.64727 0.656291,0.74569 0.214842,0.19288 0.566976,0.32256 0.761709,0.52814 0.0056,0.006 0.845643,1.30647 0.880568,1.39061 0.05953,0.14367 0.0819,0.38288 0.115236,0.53899 l -1.0697,0.55965 c 0.212725,0.29184 0.645695,1.02322 0.557589,1.396823 l -0.13901,0.185 c -0.177316,0.0387 -0.313785,0.035 -0.433567,0.0109 -0.223385,-0.0451 -0.387951,-0.16159 -0.64802,-0.20929 -0.382323,-0.0704 -1.150758,0.12546 -1.506887,0.24029 -0.128588,0.32597 -0.251135,0.67204 -0.417028,0.98134 -0.443177,0.13096 -0.851848,0.17491 -1.294495,0.0212 l -0.210839,0.32866 0.223758,0.53744 -0.426847,0.33176 c -0.284427,0.005 -0.694523,0.0724 -0.970484,0.0155 -0.25347,-0.0524 -0.506473,-0.14115 -0.758092,-0.20412 -0.273314,-0.0685 -0.604424,-0.10626 -0.866097,-0.20257 -0.371211,-0.13652 -0.78867,-0.50928 -0.983404,-0.85059 -0.295804,-0.0609 -0.676984,-0.1841 -0.973582,-0.20051 -0.01826,-10e-4 -0.489005,0.10646 -0.537953,0.11731 l -0.105937,0.10955 -0.07545,-0.25114 -0.151413,-0.50282 c -0.223308,-0.43233 -1.06123,-1.094153 -1.422651,-1.384933 -0.250031,-0.0273 -0.619821,-0.11257 -0.864031,-0.0941 -0.291042,0.022 -0.678445,0.16296 -0.967899,0.23255 -0.262202,0.38497 -0.613193,1.097873 -0.732256,1.527553 -0.09737,0.35137 -0.152093,1.42947 -0.189134,1.84433 l -0.142111,0.11008 -0.284736,0.22117 c -0.422804,0.14896 -0.906211,0.024 -1.289328,0.34623 -0.530225,-0.11615 -1.081654,-0.0906 -1.619022,-0.0822 -0.168275,0.003 -0.265076,0.0329 -0.431499,0.007 l -0.7953,-0.27544 -0.397391,-0.13797 c -0.103452,-0.29713 -0.195885,-0.69429 -0.337966,-0.96945 -0.0058,-0.0114 -0.299569,-0.29158 -0.328144,-0.31936 0.0095,-0.43445 -0.293751,-1.07265 -0.559657,-1.39888 l -1.181317,0.34457 c -0.526521,-0.21881 -1.089332,-0.731123 -1.56373,-1.044383 -1.114235,0.32928 -1.638631,1.219353 -2.304767,2.081523 l 0.385506,1.94459 c -0.504257,1.05483 -1.54785,1.57614 -2.588991,2.06447 -0.474133,0.19923 -1.360363,1.03716 -1.824178,1.26814 0,0 -1.124947,1.24043 -2.146638,1.7756 -1.021691,0.53517 -1.587233,0.73892 -1.757516,1.10381 -0.170281,0.36489 -0.480232,1.35286 -1.039731,1.37718 -0.179204,0.008 -0.398798,-0.007 -0.631486,-0.0233 0,0 -0.145552,0.27588 -0.361733,0.51573 -0.216183,0.23986 0.162206,0.53953 0.175699,0.64751 0.01349,0.10798 -0.269959,0.33761 -0.337447,0.52658 -0.06749,0.18897 -0.2701,0.32415 -0.418578,0.40514 -0.148477,0.081 -0.229153,0.72899 -0.404628,0.87747 -0.175474,0.14848 -0.863944,0.45845 -1.106908,0.55294 -0.242959,0.0945 -0.148455,-0.16179 -0.229444,-0.37776 -0.08099,-0.21596 -0.270309,-0.12135 -0.486275,-0.0269 -0.215963,0.0945 -0.323535,0.79642 -0.202054,0.8909 0.121483,0.0945 0.283085,-0.13504 0.41806,0.0134 0.13498,0.14848 0.540123,0.0946 0.742593,0.0946 0.202467,0 0.431641,0.31041 0.51263,0.45888 0.08099,0.14848 -0.336992,0.39125 -0.660943,0.37776 -0.32395,-0.0135 -0.877506,-0.16197 -1.093472,0 -0.215969,0.16198 -0.472303,0.0677 -0.701768,0.18914 -0.229465,0.12148 0.323493,0.16164 0.660943,0.29662 0.337449,0.13498 -0.09445,0.62128 -0.144696,0.68885 -0.06681,0.0477 -0.849481,0.81116 -1.116727,0.71571 -0.267245,-0.0954 -0.515313,-0.1052 -0.734837,0.0284 -0.219523,0.13362 -0.02842,0.23866 -0.02842,0.50591 0,0.26724 -0.362874,0.0479 -0.582396,-0.0475 -0.219525,-0.0954 -0.295852,-0.28633 -0.143142,-0.46768 0.152712,-0.18134 0.486698,-0.0191 0.429429,-0.18138 -0.05726,-0.16226 -0.26693,-0.16212 -0.438732,-0.22893 -0.171802,-0.0668 -0.28657,0.22905 -0.458369,0.30541 -0.171802,0.0764 -0.181227,-0.0193 -0.08578,-0.2961 0.09545,-0.2768 -0.114822,-0.39107 -0.334346,-0.31471 -0.219515,0.0764 -0.190752,0.36256 -0.228926,0.55345 -0.03818,0.19089 -0.114279,0.29573 -0.314711,0.0667 -0.200434,-0.22906 -0.30572,0.0382 -0.49661,0.14315 -0.19089,0.10499 -0.238354,0.49662 -0.314709,0.65887 -0.07636,0.16226 -0.343555,-0.0765 -0.286288,-0.27699 0.05727,-0.20043 8.6e-5,-0.39118 -0.104903,-0.39118 -0.104989,0 -0.45837,0.38165 -0.45837,0.55345 0,0.1718 -0.228997,0.23876 -0.429431,0.25786 -0.244933,0.30012 -0.08636,0.34752 0.362768,0.51522 0.181345,0.12408 -0.02874,0.21953 -0.219624,0.32453 0,0 -0.167135,0.0621 -0.300757,0.0382 -0.133623,-0.0239 -0.171543,0.13816 -0.314709,0.17156 -0.143168,0.0334 -0.48242,-0.3576 -0.573092,-0.3576 -0.09067,0 0.195967,0.42944 0.02894,0.51056 -0.167029,0.0811 -0.367302,-0.42479 -0.453202,-0.4439 -0.08589,-0.0191 -0.05982,0.30225 -0.08682,0.65319 -0.027,0.35095 -0.297222,0.66169 -0.391707,0.83716 -0.09449,0.17547 -0.472343,-6e-5 -0.580326,0.0134 -0.107984,0.0135 -0.148601,0.37805 -0.310576,0.54002 -0.161975,0.16198 -0.661188,0.10786 -0.944645,0.0269 -0.283457,-0.081 -0.890984,0.1078 -0.985469,0.37776 -0.09449,0.26996 -0.27006,0.41839 -0.540019,0.45889 -0.269959,0.0405 -0.661428,0.1757 -0.875916,0.21859 -0.181345,0.11453 -0.476856,-0.20985 -0.562756,-0.22893 -0.0859,-0.0191 0.0095,0.27641 0.143144,0.40049 0.133622,0.12408 -0.381991,0.25812 -0.601514,0.24857 -0.219523,-0.01 -0.180993,0.1143 -0.257349,0.33383 -0.07635,0.21952 -0.296017,0.0285 -0.401007,-0.23875 -0.10499,-0.26724 -0.26751,-0.0382 -0.31523,0.16227 -0.0477,0.20043 0.22908,0.29623 0.32453,0.37258 0.0954,0.0764 -0.4482,0.41968 -0.7059,0.45786 -0.2577,0.0382 -0.2867495,-0.13375 -0.4108295,-0.0765 -0.12408,0.0573 -0.21954,-0.16182 -0.32453,0.10543 -0.10499,0.26724 -0.23826,0.305 -0.41961,0.2191 -0.18134,-0.0859 -0.0767,-0.21943 -0.21032,-0.1049 -0.13362,0.11454 -0.22897,0.26721 -0.41031,0.44855 -0.18135,0.18134 -0.0188,0.19097 0.01,0.36277 0.0286,0.1718 -0.14346,0.48686 -0.33435,0.52503 -0.19089,0.0382 -0.124,0.17164 -0.26717,0.37207 -0.14316,0.20044 -0.11427,0.0957 -0.31471,-0.0284 -0.20043,-0.12408 -0.42007,-0.42007 -0.54415,-0.54415 -0.12408,-0.12408 -0.20987,0.31504 -0.41031,0.36277 -0.20043,0.0477 -0.1912,0.3531 -0.1912,0.44855 0,0.0954 -0.25742,-0.2292 -0.45785,-0.23875 -0.20044,-0.01 -0.6205,0.01 -0.84957,0.21033 -0.22906,0.20043 -0.29591,0.51531 -0.18138,0.73483 0.11453,0.21953 0.12395,0.32451 -0.0765,0.46768 -0.058,0.10445 -0.17607,0.28094 -0.16898,0.52296 0.006,0.20945 -0.21581,0.007 -0.37104,0.0744 -0.15522,0.0675 0.0806,0.43891 0.0806,0.51315 0,0.0742 -0.27664,0.16838 -0.35088,0.18862 -0.0742,0.0202 0.0203,-0.33704 -0.0134,-0.42478 -0.0337,-0.0877 -0.28321,-0.0679 -0.39119,-0.0274 -0.10799,0.0405 0.0604,0.21623 0.0806,0.39171 0.0202,0.17547 -0.12811,0.18874 -0.36432,0.16175 -0.23622,-0.027 -0.33065,0.21615 -0.57361,0.29714 -0.24296,0.081 0.0407,-0.74936 -0.0537,-0.8506 -0.0945,-0.10123 -0.21628,0.0541 -0.27027,0.20929 -0.054,0.15522 -0.29007,0.17546 -0.37155,0.17467 -0.35315,-0.0191 -0.34363,-0.23828 -0.48679,-0.11421 -0.14317,0.12408 -0.21961,0.28625 -0.52504,0.26717 -0.30542002,-0.0191 -0.22904002,0.46775 -0.14314002,0.83044 0.0859,0.36269 0.51525002,0.34351 0.69660002,0.57257 0.18134,0.22908 0.38183,0.64887 0.40772,0.72244 -0.15425,0.39397 -0.0213,0.84604 -0.0915,1.08469 -0.006,0.0196 -0.49675,1.04431 -0.52348,1.09141 -0.14314,0.25294 -0.41355,0.50601 -0.52865002,0.76636 -0.0145,0.0331 -0.0784,0.56909 -0.0977,0.65164 -0.0844,0.36168 -0.2032,0.73139 -0.30851,1.08779 -0.0638,0.21537 -0.12841,0.44258 -0.20567,0.65319 -0.0862,0.23574 -0.26105,0.52276 -0.31264,0.76274 -0.005,0.0233 0.008,0.58872 0.009,0.64957 0.10477,0.29184 0.73233,0.71329 0.98289,0.85008 0.096,0.24554 0.29142002,0.60956 0.33693002,0.86145 0.0635,0.35057 0.0218,1.49892 0.0284,1.94872 0.21113,0.42068 0.5525,0.8425 0.87953,1.17667 -0.0696,0.50535 0.16948,0.92489 0.23616,1.40405 0.0265,0.18865 -0.0126,1.19595 0.0191,1.29914 0.009,0.0278 0.40917,0.92226 0.41393,0.92914 0.29157,0.39873 0.75931,0.76074 1.09295,1.13327 0.22146,0.24738 0.77633,0.86686 0.93535,1.13171 l 0.40824,0.96532 0.20464,0.48266 -0.33745,1.4366 0.61702,1.12758 c 0.39661,0.17595 2.87723,1.35901 3.14658,1.63814 0.28416,0.29475 0.64786,1.09175 0.93017,1.45211 0.3069195,0.39185 0.7452895,0.77211 1.0934795,1.13326 0.211664,1.43722 0.83632,3.47398 1.35702,4.8178 l -0.218591,0.53072 -0.437699,1.06195 -0.508497,2.23862 -0.163813,0.47439 c -0.14923,0.0976 -0.40571,0.27974 -0.66818,0.45992 l 0.896072,-0.1049 c 0.214577,-0.0328 1.692705,0.24545 1.955436,0.25683 0.538163,0.023 0.98991,0.63648 1.495,0.90847 0.278341,0.22357 2.297922,-0.19381 2.656168,-0.15968 1.035844,0.0995 1.636998,-0.15583 2.667021,0.0548 0.402961,0.0826 0.900114,0.27234 1.322918,0.31626 1.343668,-0.16689 1.861854,-0.17053 2.849438,-0.7953 0.11721,-0.0825 1.27621,-0.75861 1.416968,-0.75861 0.488683,-0.15897 1.040093,-0.36596 1.068668,-0.3514 1.545934,-0.45579 1.345189,-0.27486 2.599325,-0.33538 1.409494,-0.40165 1.570643,0.77365 2.66237,-0.12299 1.163632,-0.8242 0.853154,-1.23204 1.462958,-2.22519 -0.02672,-0.59584 0.283556,-0.96947 0.356052,-1.3932 0.0725,-0.42373 0.424553,-0.41953 0.489376,-0.66559 0.07802,-0.21606 0.199604,-0.51414 0.382405,-0.86351 0.178282,-0.0178 2.506961,0.45184 2.477884,1.11621 -0.02892,0.66082 0.06615,1.19062 0.463021,1.38906 0.396875,0.19844 1.190625,0.92604 1.058333,1.45521 -0.132291,0.52916 0,0.92604 0.264584,1.12448 0.264583,0.19843 0.330729,0.52916 0.330729,0.99218 0,0.46303 0.06615,1.19063 0.06615,1.19063 -0.0078,0.1004 0.407963,0.66728 1.031462,0.73432 0.386464,-0.10437 0.345234,-0.56124 0.609783,-0.74207 0.237254,-0.0335 0.689879,-0.0884 0.689879,-0.0884 0,0 -0.257865,-0.71675 -0.257865,-1.17977 0,-0.46302 0.345715,-1.2392 0.874882,-0.84233 0.254341,0.19076 0.573066,0.26939 0.702799,0.44494 0.140182,0.18968 0.07625,0.47191 -0.0708,0.56069 -0.397984,0.24028 -0.52016,0.57833 0.388607,0.64957 0.593492,0.0465 0.727604,-0.33073 0.661458,-0.72761 -0.06615,-0.39687 -0.529167,-1.32291 0.132292,-1.52135 0.661458,-0.19844 0.859896,-0.46302 0.992187,-0.13229 0.132292,0.33073 0.992188,0.0661 1.256771,0.46302 0.264583,0.39687 1.190625,0.79375 1.785937,0.0661 0.595313,-0.72761 0.33073,-1.12448 0.33073,-1.12448 l 1.389062,0.0661 c 0,0 0.79375,1.91823 0.926042,2.24896 0.132291,0.33073 0.396875,1.25781 -0.132292,1.52239 -0.529167,0.26458 -1.653646,0.79271 -1.653646,1.25574 0,0.46302 -0.132291,1.25677 0.926042,1.25677 1.058333,0 1.190625,0.92604 1.256771,1.52135 0.06615,0.59531 0.859896,1.45521 0.859896,1.45521 l 2.094447,0.15348 0.302823,0.68419 c 0,0 0.509416,-0.0193 0.641305,0.004 0.280665,0.30198 -0.398674,0.31537 0.0016,0.55397 0.119623,0.0713 0.402373,0.0103 0.520898,0.10232 0.325146,0.25244 0.506201,0.6598 0.504878,0.87075 -0.0013,0.22869 -0.184259,0.6078 -0.247012,0.77928 -0.117264,0.22479 -0.177382,0.49365 0.414443,0.21859 0.604978,-0.0623 1.2021,-0.20319 1.5875,0.13901 0.06615,0.66146 0.264583,1.12448 0.264583,1.12448 l 1.058334,0.39687 0.198437,0.66146 0.498679,-0.18138 c 0,0 -0.06253,-0.643 0.05788,-0.74621 0.120407,-0.1032 0.378273,-0.1204 0.378273,-0.48162 0,-0.36123 0.275211,-0.39554 0.481623,-0.79117 0.204602,-0.38916 -0.431239,-0.32756 0.01704,-0.94619 0.40517,-0.12951 0.362908,-0.53371 -0.03152,-0.89452 -0.255344,-0.23358 0.265017,-0.41918 0.603581,-0.29249 0.320992,0.12011 0.563274,-0.0859 0.563274,-0.42995 0,-0.34402 0.171857,-0.27499 0.498676,-0.3266 0.326821,-0.0516 0.275579,-0.75698 0.499194,-0.94619 0.223613,-0.18921 0.6534,-0.4472 0.667661,-0.56121 0,0 1.18959,0.37982 1.784903,0.37982 0.595312,0 1.322916,0.1323 1.719791,0.33073 0.396875,0.19844 1.058334,-0.0661 1.124479,-0.46302 0.06615,-0.39687 0.198438,-1.91823 0.79375,-2.51354 0.595313,-0.59531 0.79375,-0.99219 1.058334,-0.99219 0.264583,0 0.79375,0.26459 1.25677,-0.59531 0.463021,-0.8599 0.79375,-1.05833 1.190625,-1.05833 0.396875,0 1.389063,-0.26459 1.389063,-0.26459 l 0.661458,-1.25677 c 0,0 2.050521,0.13229 1.984375,0.92604 -0.06615,0.79375 -0.264583,1.85209 -0.264583,1.85209 l 0.665594,1.22163 c 0.195762,0 0.916762,-0.12144 1.160653,-0.25373 0.269912,-0.0107 0.517014,0.0394 0.687295,0.22272 0,0.46302 0.06615,1.91823 0.06615,1.91823 0,0 0.79375,0.99219 0.859896,1.32292 0.06615,0.33073 0.264584,1.12448 0.264584,1.12448 0,0 1.984375,0.13229 2.513541,0.13229 0.529167,0 1.124479,-0.19844 1.322917,-0.79375 0.198437,-0.59531 0.264583,-1.38906 0.926041,-1.45521 0.661459,-0.0661 1.719792,-0.59531 2.050521,-0.39687 0.330729,0.19843 0.79375,0.19843 0.79375,0.19843 l 0.727604,-1.05833 c 0,0 0.198438,1.12448 0.132292,1.65365 -0.06615,0.52916 -0.330729,1.05833 -0.330729,1.05833 0,0 1.251418,0.52161 1.453658,-0.0687 0.174596,-0.50965 0.627978,-1.17637 0.83716,-1.20251 0,0 0.990711,-0.196 1.318781,-0.26872 0.03236,-0.13542 0.303342,-0.46084 0.420648,-0.59066 0.384654,-0.32335 1.048105,-0.46255 1.144114,-0.79737 -0.401431,-0.32518 -0.874882,-0.71003 -0.874882,-0.71003 l 0.06615,-0.59531 c 0,0 1.521354,-0.39688 2.57969,-0.33073 1.05833,0.0661 1.05833,-0.19844 1.32291,-0.46302 0.26459,-0.26459 0.72761,-0.79375 0.72761,-0.79375 0,0 1.71979,0.13229 1.71979,-0.19844 0,-0.33073 -0.33073,-1.5875 0.66146,-1.45521 0.992187,0.13229 2.116657,-0.26458 2.116657,-0.26458 0,0 1.78594,-0.0651 2.11667,-0.3297 0.11312,-0.0905 0.33733,-0.15043 0.6072,-0.17931 0.51918,-0.0556 1.20717,0.003 1.59887,0.17725 0.59531,0.26458 1.56424,-0.26356 1.56424,-0.26356 0,0 1.48984,0.10181 1.82056,0.0357 0.45446,-0.0167 0.54671,0.80516 0.61961,1.06299 0.57767,0.0788 0.99006,-0.23101 1.39629,-0.56948 0.43715,-0.36423 0.19844,-0.92604 0.19844,-1.32292 0,-0.39687 0.66146,-0.39687 0.66146,-0.39687 l 0.92604,-0.33073 c 0,0 -0.46302,-1.45521 0.19844,-1.65365 0.66145,-0.19843 1.52135,-0.26458 1.85208,0.1323 0.33073,0.39687 0.7276,0.66145 0.7276,0.66145 0,0 2.4474,0.26459 2.51355,-0.59531 0.0661,-0.85989 -0.59532,-2.11666 -0.59532,-2.64583 0,-0.52917 0.13229,-1.5875 0.13229,-1.5875 l -0.80511,-0.83664 c 0,0 2.72334,-0.9493 2.78949,-2.13992 0.0661,-1.19063 -0.0661,-2.77813 0.52917,-3.175 0.59531,-0.39688 0.59531,-0.52917 0.7276,-1.12448 0.13229,-0.59532 0.31884,-0.81494 0.31884,-0.81494 0,0 0.36457,-0.0367 0.53486,0.0181 0.17028,0.0547 0.86356,0.3832 0.99735,0.4501 0.13379,0.0669 0.55366,0.60191 0.66921,0.67489 0.11555,0.073 1.22215,0.0915 1.22215,0.0915 0,0 0.30505,-0.52397 0.33951,-0.5209 0.30858,0.0275 0.95776,0.10166 1.68207,0.13746 0.62472,0.12717 1.48599,0.54011 1.56735,0.69867 0.0888,0.17304 0.0893,0.46966 0.13075,0.68936 0.0347,0.0508 0.25849,0.32604 0.4563,0.54105 0.19781,0.21502 0.48162,0.44693 0.48162,0.51574 0,0.0688 0.20626,0.45596 0.37827,0.70538 0.17202,0.24941 1.13552,0.85148 1.26453,0.86868 0.129,0.0172 0.97185,-0.009 1.08365,0.0429 0.11181,0.0516 0.45604,-0.0259 0.63665,-0.0517 0.18062,-0.0258 0.51315,-0.20515 0.51315,-0.20515 0.0218,-0.17405 0.13061,-0.48516 0.27699,-0.61392 0.25395,-0.0674 1.0728,-0.44907 1.0728,-0.44907 0,0 0.35491,-1.08438 0.85525,-1.41128 0.11641,-0.0761 0.54097,-0.0309 0.81855,-0.0496 0.11287,-0.14983 0.29611,-0.34048 0.39171,-0.49093 0.29587,-0.0591 0.74125,-0.054 0.86816,-0.0548 0.0274,0.31703 0.11491,0.706 -0.004,0.90072 -0.17027,0.27975 -0.74156,0.58404 -0.89968,0.85163 -0.15812,0.26758 -0.1006,0.79139 -0.35864,1.09243 0,0 0.67467,-0.0467 0.82063,-0.0832 0.14595,-0.0365 0.46227,-0.31595 0.60823,-0.35244 0.14595,-0.0365 1.28903,0.30397 1.64176,0.72967 0.35272,0.42571 0.27987,0.89987 0.58394,1.1188 0.30408,0.21894 0.47462,0.75422 0.48679,1.08262 0.0122,0.3284 0.34055,0.82731 0.34055,1.00976 0,0.18244 -0.32851,0.94839 -0.42581,1.03353 -0.0973,0.0851 0.22531,1.10535 0.22531,1.10535 0,0 -0.33073,1.38907 0.59531,1.5875 0.92604,0.19844 1.52135,0.99219 1.52135,0.99219 0,0 1.44591,0.72347 1.90893,0.12816 0.16118,-0.65568 0.22306,-0.67055 0.4377,-0.73587 0.20791,-0.0633 0.69323,-0.0181 0.86351,-0.0181 0.17028,0 0.55994,0.32223 0.62684,0.38912 0.0669,0.0669 0.29162,0.55917 0.4315,0.53486 0.13987,-0.0243 0.61424,0.30452 0.73587,0.12815 0.12163,-0.17636 0.7665,-0.10975 1.00976,-0.14624 0.24326,-0.0365 0.38293,-0.091 0.54105,-0.2005 0.15812,-0.10947 0.74781,0.0488 0.81183,0.0393 0.003,0.0399 -0.11245,0.4226 -0.076,0.49558 0.0365,0.073 0.37085,-0.0909 0.57154,-0.19431 0.20069,-0.10339 0.65692,-0.15206 0.58395,0.0243 -0.073,0.17636 -0.57172,0.51678 -0.71159,0.67489 -0.13987,0.15812 -0.32211,0.60232 -0.46199,0.74828 -0.13987,0.14595 -0.38952,0.37101 -0.38343,0.39532 0.006,0.0243 0.11575,0.45003 0.11575,0.49868 0,0.0487 0.0724,0.61185 0.0724,0.61185 0.33073,0.59532 0.26458,1.25677 0.0661,1.52135 -0.19844,0.26459 -0.50901,1.62936 -0.50901,1.62936 0,0 -0.0126,0.61615 0.13333,0.67696 0.14595,0.0608 0.93627,0.0605 1.16737,0.0119 0.23109,-0.0487 0.7059,0.21911 0.7059,0.21911 0,0 0.29145,0.43799 0.29145,0.58395 0,0.14595 0.14613,0.58379 0.21911,0.68109 0.073,0.0973 0.57155,0.55924 0.72967,0.82682 0.15812,0.26759 0.37713,0.0611 0.60823,0.14625 0.2311,0.0851 0.35295,0.55935 0.35295,0.75396 0,0.1946 0.92191,0.26045 0.92191,0.26045 0,0 0.40396,0.5545 0.50126,0.71262 0.0973,0.15812 0.31604,0.31625 0.62012,0.31625 0.30407,0 0.46192,0.32808 0.66869,0.53485 0.20677,0.20677 0.65715,0.0852 0.70383,0.0786 0.4672,-0.28765 0.5177,-0.57518 0.88884,-1.01596 0.0421,-0.49806 0.0648,-2.3151 0.0661,-2.3151 h 1.32292 c 0,0 -0.19844,-1.45521 -0.19844,-1.71979 0,-0.26459 0.0661,-1.85209 0.33073,-2.24896 0.26459,-0.39688 0.72761,-1.91823 1.25677,-1.91823 0.52917,0 1.12448,-0.13229 1.12448,-0.13229 0,0 -0.0661,-1.19063 0.72761,-1.32292 0.79375,-0.13229 0.85989,-0.39687 0.99218,-0.79375 0.1323,-0.39687 0.46302,-0.92604 0.72761,-1.12448 0.26458,-0.19843 0.59531,-0.59531 0.59531,-0.59531 0,0 0.59531,0.7276 1.05833,1.05833 0.46302,0.33073 1.98438,1.19063 1.98438,1.19063 0,0 1.45521,-0.59531 1.85208,-0.72761 0.39688,-0.13229 0.66146,-0.26458 1.5875,-0.26458 0.92604,0 0.59531,-1.25677 0.59531,-1.25677 l 0.0661,-0.79375 c 0,0 1.12448,0.13229 1.52135,0.19844 0.39688,0.0661 1.38907,0.92604 1.38907,1.5875 0,0.66146 -0.19844,1.12448 -0.19844,1.12448 l 1.5875,-0.19844 c 0,0 -0.26458,0.66146 0.46302,0.79375 0.7276,0.13229 1.05833,0.0661 1.19063,-0.19844 0.13229,-0.26458 0.39687,-0.52916 0.39687,-0.52916 0,0 0.33073,0.7276 0.7276,0.85989 0.39688,0.13229 0.99219,0.66146 0.99219,0.66146 0,0 -0.66146,-2.4474 -0.46302,-2.77813 0.19844,-0.33072 1.38906,-2.71197 1.38906,-2.71197 0,0 0.72761,0.79375 1.05834,0.7276 0.33073,-0.0661 0.79375,-0.52917 1.38906,-0.0661 0.59531,0.46302 1.38906,1.05834 1.98437,0.99219 0.59532,-0.0661 1.38907,-0.19844 1.38907,-0.19844 0,0 0.26458,-2.51354 0.66146,-3.50573 0.39687,-0.99218 1.32291,-2.51354 1.19062,-2.84427 -0.13229,-0.33073 -0.19844,-0.52916 -0.13229,-0.99218 0.0661,-0.46302 -0.0661,-1.85209 0.19844,-2.05052 0.26458,-0.19844 0.46302,-0.92605 0.46302,-0.92605 0,0 -1.12448,-0.0661 -1.12448,-0.59531 0,-0.52917 -0.19844,-0.66146 0.66146,-0.66146 0.85989,0 0.92604,-0.33073 0.99218,-0.59531 0.0661,-0.26458 0.33073,-0.92604 0.92605,-1.05833 0.63582,-0.10191 1.53928,-1.58837 1.4583,-1.87379 0.0937,-0.42493 -0.34414,-0.86919 -0.62114,-1.24023 -0.19134,-0.49676 -0.0185,-0.46132 0.33796,-0.90021 0.19844,-0.52916 -0.35243,-0.88366 -0.35243,-0.88366 0.0839,0.10789 0.47905,-2.32107 0.33899,-2.83187 -0.0579,-0.21107 -0.2874,-0.61054 -0.11007,-1.20148 0.0906,-0.30205 0.28782,-0.65406 0.66818,-1.05678 1.12448,-1.19063 2.11666,-2.51355 2.38125,-2.64584 0.26458,-0.13229 0.33073,-0.26458 0.7276,-0.26458 0.39688,0 0.7276,0.0661 0.79375,-0.26458 0.0661,-0.33073 0.66146,-0.79375 1.05833,-0.52917 0.39688,0.26458 1.91823,0.79375 1.91823,0.52917 0,-0.26459 -0.26458,-1.85209 0.26459,-2.38125 0.52916,-0.52917 0.66145,-1.45521 0.66145,-1.45521 0,0 0,-2.05052 0.19844,-2.38125 0.19844,-0.33073 0.39688,-0.8599 0.39688,-0.8599 l 2.24896,0.79375 c 0,0 0.26458,-1.71979 1.5875,-0.99219 1.32291,0.72761 3.50572,1.5875 3.50572,1.5875 l -0.15761,-2.60242 c 0.31284,-0.53032 0.69315,-1.00058 1.41439,-1.16789 -0.15434,-0.57326 -0.67656,-0.99324 -0.46303,-1.71979 0.44034,-1.08151 1.78207,0.0379 2.67168,0.0568 0,0 0.30489,-0.51987 0.30489,-0.78445 0,-0.26459 0.13229,-0.79375 0.52916,-0.8599 0.39688,-0.0661 1.7198,-0.26458 1.7198,-0.26458 l 1.51102,0.22014 c 0.34263,0.31988 0.33241,0.0901 0.73432,0.35605 0.79137,0.52361 1.23511,0.76961 1.78438,1.59008 0.58606,0.8763 1.77492,1.18494 2.73782,1.57407 0.96715,0.39085 1.62474,1.00608 1.81178,2.0314 0.25986,0.0791 0.49977,0.2293 1.08159,0.092 0.0253,-0.37735 -0.12182,-1.19006 0.14986,-1.50792 0.81368,-0.40853 2.71476,0.35396 3.62355,-0.20257 0.30407,-0.31623 0.50765,-0.51094 0.38602,-0.92449 -0.14596,-0.55949 -1.04287,0.073 -1.67535,-0.36483 -0.63247,-0.43787 -1.11891,-2.48107 -1.04593,-3.08922 -0.87969,-0.77631 -0.69351,-0.86914 -0.87901,-1.34359 0.0349,-1.04017 -0.99624,-1.5813 -0.81288,-2.58485 0.19982,-0.80007 0.47728,-2.16205 1.45883,-2.19625 1.07609,0.62163 1.39779,-0.78915 2.20142,-1.12861 1.19608,0.30879 0.86214,-0.85752 1.10846,-1.78284 0.26792,-0.78005 0.64064,-2.39615 1.71203,-1.76268 0.54135,-1.06372 1.94416,-1.23005 2.9037,-0.70952 0.88742,0.43098 0.8433,1.81618 2.14044,1.2485 1.04729,-0.39886 1.78787,0.41162 2.6355,0.85266 0.92731,-0.73808 0.15877,-2.28147 -0.74672,-2.73523 -1.07268,-0.42729 -0.96973,-1.42085 -0.62116,-2.33268 0.57895,-0.76065 0.47269,-1.6596 0.36432,-2.44946 0.53002,-1.09383 1.46918,-2.68387 0.40825,-3.73621 -0.46452,-1.011353 -1.77521,-0.22727 -1.64228,-1.388023 -0.42065,-1.07213 -1.34488,-0.87135 -2.1239,-0.88315 -0.42776,-0.7238 -1.44638,-1.10887 -1.50999,-2.02004 -0.17328,-1.03884 -2.22373,0.42063 -1.67483,-0.89813 -0.0391,-0.79633 0.4725,-2.0017 -0.3421,-2.53008 -0.90032,-0.48148 0.0145,-1.77058 -1.54306,-1.2299 -0.86826,0.21446 -1.45979,-1.16868 -2.52491,-0.72192 0.22492,-1.01193 -0.83484,-1.7885 -0.71623,-2.71714 0.71045,-0.76121 0.5836,-1.74945 0.42219,-2.69286 0.46149,-0.88345 0.62288,-1.86811 0.28216,-2.82051 1.09813,-1.06414 1.81413,-2.50884 3.05304,-3.40547 1.11078,-1.31146 0.62651,0.68442 1.71669,0.87695 1.05506,0.8517 1.35068,-0.97461 2.36937,-0.32918 0.66504,-0.17805 0.0665,-1.75967 -0.12971,-2.29805 -1.16658,-0.63865 0.53684,-1.43141 0.21859,-2.27583 0.34798,-0.56448 2.28507,0.44729 1.83555,-0.91313 0.35395,-0.61894 1.2459,-0.89957 2.01331,-1.47432 0.9062,0.81768 1.2441,-0.79239 2.02107,-1.12035 0.77231,-0.99513 2.53228,-0.98053 2.75125,-2.37505 0.68424,-0.69737 1.76077,-1.33679 2.81533,-1.39268 0.58804,-1.07053 1.56857,-1.82228 2.17971,-2.87579 0.40628,-1.08605 1.6828,0.38906 1.75339,-1.19528 -0.36668,-0.79657 -1.23406,-1.73367 -2.17765,-1.37304 -0.84559,0.33495 -2.42843,-0.56498 -1.31413,-1.27796 0.746,-0.42183 1.90062,-0.37724 2.25102,-1.01131 -0.60139,-0.81379 -1.30844,-1.60425 -2.21485,-2.04586 -0.51014,-0.99185 -1.91104,-0.46417 -1.6831,-1.64021 -0.27319,-1.12265 0.3885,-1.76874 1.2175,-2.33061 0.47372,-0.84346 0.80341,-2.22693 -0.55501,-1.29501 -1.12761,-0.0644 -1.74572,0.53725 -2.1549,1.52704 -0.73005,0.27025 -1.76465,0.58506 -2.56316,0.29765 -0.002,0.004 -0.003,0.006 -0.005,0.0104 l 0.14418,0.49196 -0.42219,0.56534 c 0.12356,0.60828 0.31955,1.22021 0.47645,1.82108 0.003,0.0103 -0.12066,0.50715 -0.13177,0.55345 -0.0492,0.20611 -0.34928,0.44115 -0.49506,0.59169 l 0.19637,0.44287 -0.29197,0.22789 c 0.0574,0.24104 0.11068,0.48324 0.17259,0.72296 l -0.18086,0.31006 c -0.62812,0.10213 -1.39581,1.1006 -1.95699,1.48001 -0.0503,0.0339 -0.55105,0.36732 -0.56534,0.38241 l -0.5209,0.77824 c -0.006,0.0161 -0.0918,0.74647 -0.0997,0.81236 l -0.54726,0.24236 c -0.35692,-0.01 -0.87347,-0.28982 -1.11001,-0.54725 l -0.25631,-1.09606 -2.38642,-1.17461 c -0.32835,-0.16139 -1.0144,-0.88883 -1.23507,-1.14256 l 0.4806,-0.46406 -0.0537,-0.21859 c -0.41672,-0.0934 -0.82525,-0.18745 -1.25625,-0.17105 l 0.40721,-0.53072 c -0.0296,-0.30559 -0.57703,-1.15714 -0.75086,-1.46141 -0.27384,0.25903 -0.61355,0.49404 -0.93793,0.6811 l -0.60255,0.34727 c -0.008,0.006 -0.2256,0.35375 -0.24597,0.3855 l 0.002,0.54881 c -0.18944,0.1262 -0.5686,0.48922 -0.59479,0.73845 l -0.74569,-0.1726 -0.2558,-0.57309 -0.49816,-0.26407 -0.22686,-0.3669 c -0.39105,-0.1696 -0.78455,-0.33201 -1.17719,-0.49764 -0.0481,0.39846 -0.39929,0.95429 -0.7152,1.19321 l 0.10232,0.28525 -0.0517,0.27905 0.12713,0.3483 -0.87127,1.25006 -0.5581,-0.38034 c -0.3064,-0.0865 -0.82735,0.0721 -1.06971,0.25993 l -0.0568,-0.0631 c -0.64347,-0.69982 -0.47633,-0.62458 -1.35289,-1.07331 l -0.34571,-0.17674 -0.93328,0.0496 0.21911,0.82631 c -0.0257,0.0251 -0.33409,0.3368 -0.3452,0.3421 -0.30904,0.14578 -0.82821,0.31512 -1.03353,0.60616 l -0.0656,0.3421 -0.14728,0.15864 c -1.01123,-0.0309 -1.28551,-0.20298 -2.0655,0.56431 l -0.74983,-0.045 -0.0212,-0.42219 c -0.41884,-0.16061 -1.37721,-0.62561 -1.69551,-0.89866 -0.013,-0.0108 -0.29596,-0.46741 -0.32401,-0.51159 -0.51858,-0.21379 -1.06447,-0.40917 -1.55236,-0.68937 -0.0918,-0.0524 -0.17712,-0.18665 -0.27078,-0.22634 -0.0577,-0.0246 -0.68638,-0.29501 -0.70332,-0.29766 -0.4318,-0.0669 -0.98465,-0.0225 -1.4273,-0.0326 -0.0238,-5.3e-4 -0.14863,0.0285 -0.17932,0.0341 -0.25241,0.0471 -0.52386,0.0796 -0.77204,0.14315 -0.18124,0.0463 -0.3629,0.15647 -0.54467,0.1943 -0.22093,0.0458 -0.46763,0.0197 -0.68988,0.0615 -0.24263,0.0455 -0.65494,0.13595 -0.87799,0.23306 -0.42254,0.18415 -0.8589,0.47532 -1.26504,0.70021 -0.1397,0.0773 -0.34945,0.31334 -0.47645,0.42685 l -0.24288,0.0295 -0.15658,0.28267 -0.31161,0.56482 c -0.0868,0.31247 -0.0997,0.97892 -0.13487,1.32447 -8e-4,0.008 -0.13485,0.27097 -0.14728,0.2961 -0.34766,0.14526 -0.44254,0.20097 -0.54467,0.22531 -0.0995,0.0238 -0.20614,0.0177 -0.56121,0.0367 -0.36168,-0.13943 -0.75309,-0.49141 -0.98857,-0.79065 l -2.10271,-0.33745 -0.13075,-1.36012 -0.7183,-0.74001 -0.75964,-0.15709 -0.64492,0.51056 -0.42995,-0.0801 -0.0641,-0.34726 -1.31103,-0.0625 -0.0331,0.53433 c -0.65643,0.0778 -1.30263,0.0964 -1.90376,-0.18913 -0.0966,-0.0458 -0.20816,-0.0681 -0.28939,-0.13746 -0.83185,-0.70909 -1.48275,-1.25795 -2.24793,-2.04535 -0.14208,-0.14632 -0.24128,-0.21246 -0.36431,-0.37518 -0.0423,-0.0561 -0.0311,-0.10564 -0.0506,-0.17311 -0.0513,-0.17595 -0.1707,-0.45058 -0.18552,-0.63976 -0.0675,-0.85936 -0.1201,-1.7181 -0.23202,-2.57297 -0.0386,-0.29368 -0.0535,-0.63407 -0.12093,-0.92035 -0.0519,-0.21987 -0.21903,-0.45401 -0.25528,-0.67335 -0.12567,-0.76438 -0.16297,-1.58128 -0.24288,-2.35386 l -1.2671,0.0413 -0.15813,1.16686 c -0.20029,0.20928 -0.42185,0.52693 -0.50281,0.80976 -0.031,0.0222 -0.22004,0.15151 -0.23565,0.1695 -0.0804,0.0921 -0.74336,0.86736 -0.78755,0.90176 -0.086,0.0672 -0.15809,0.0649 -0.2589,0.10645 -0.65378,0.26882 -1.00032,0.30216 -1.6893,0.42995 -0.0161,0.003 -0.15546,-0.0175 -0.19223,-0.0217 -0.92525,-0.10425 -1.06275,0.0789 -1.86656,0.4718 l -0.14727,1.24385 c -0.47996,-0.005 -0.96182,-0.0182 -1.44178,-0.0134 -0.1516,0.50986 -0.30928,1.01773 -0.46353,1.52652 -0.0574,0.0328 -0.67743,0.39218 -0.69092,0.39429 -0.0632,0.01 -0.65756,0.0949 -0.68058,0.10336 -0.0273,0.0101 -0.95626,0.68573 -1.03404,0.74155 -1.19142,0.20241 -2.70224,-0.53074 -3.76825,-0.93741 -0.35719,0.85355 -0.32936,0.83352 -0.88367,1.56218 -0.009,0.0116 -0.47755,0.2838 -0.50797,0.30179 -0.22649,0.0437 -0.65968,-0.01 -0.8351,-0.1819 l -0.27388,-0.5705 -0.74001,0.0248 -0.26768,-0.39171 c -0.3765,-0.55086 -0.9815,-0.52671 -1.56993,-0.73071 -0.58579,-0.20346 -1.16428,-0.48142 -1.74822,-0.7214 -0.0699,-0.19341 -0.13413,-0.39007 -0.2098,-0.58136 -0.71411,-0.38814 -1.55128,-0.50488 -2.33629,-0.70331 -0.36222,-0.0916 -1.02087,-0.97505 -1.2082,-1.26556 -0.23521,-0.36486 -0.24217,-0.74173 -0.60306,-1.06505 -0.0214,-0.0193 -0.0415,-0.0183 -0.0677,-0.03 -0.1778,-0.0786 -0.43274,-0.24112 -0.61133,-0.27234 -0.41434,-0.0722 -0.92337,0.0571 -1.32395,-0.11989 -0.69374,-0.30665 -1.53763,-0.98163 -2.24328,-1.31051 -0.32808,-0.15293 -0.75196,-0.25121 -1.12344,-0.37001 -0.20955,-0.0302 -0.472,-0.0411 -0.67334,-0.0971 -0.3564,-0.0992 -0.73887,-0.3087 -1.08521,-0.45475 l -0.41238,-0.66301 c -0.753,-0.28284 -1.59356,-0.53052 -2.39313,-0.6382 l 0.0207,-0.66146 c -0.11774,-0.005 -1.62678,-0.0762 -1.6707,-0.0661 -0.22145,0.0503 -0.53759,0.23808 -0.75137,0.3328 -0.65405,-0.10266 -1.30223,-0.1 -1.96422,-0.11111 -0.38735,0.32888 -0.94523,0.89426 -1.14102,1.37977 l -0.60151,0.0202 -0.92759,-0.56431 -0.18036,-0.75861 c -0.41327,-0.001 -0.94354,-0.0579 -1.35443,-0.001 -0.31512,0.0437 -0.88836,0.23647 -1.15135,0.22325 -0.0995,-0.005 -0.2328,-0.0496 -0.33228,-0.0708 -0.09,-0.27993 -0.17267,-0.56211 -0.25787,-0.84336 -0.0855,-0.0191 -0.91359,-0.19904 -0.92656,-0.20619 -0.19447,-0.1061 -2.01772,-1.08254 -2.07222,-1.14101 -0.031,-0.0331 -0.28718,-0.31549 -0.30438,-0.3266 -0.0463,-0.0296 -0.082,-0.026 -0.13436,-0.0424 l -0.74,-0.231 -0.94361,-0.29404 -0.82373,0.1664 c -0.31697,0.15028 -0.75621,0.51968 -1.05678,0.72606 l -1.04076,-0.19896 c -0.40164,0.0987 -0.6447,0.60898 -0.85266,0.91881 -0.013,0.019 -0.0515,0.067 -0.0584,0.0863 -0.0577,0.16589 -0.16467,0.38747 -0.1943,0.55707 -0.007,0.0392 0.051,0.26157 0.0444,0.30179 -0.0304,0.18283 -0.1353,0.41309 -0.1943,0.59221 l -0.20154,0.0398 c -0.14579,-0.0881 -0.45081,-0.16454 -0.61909,-0.10025 l -0.24443,0.32091 -0.32762,-0.045 c -0.30401,0.17939 -0.6116,0.46462 -0.83199,0.73846 -0.12621,-0.006 -0.35063,0.0514 -0.43874,0.15141 l -0.20412,0.54415 c -0.15505,-0.0101 -0.63853,0.0532 -0.75706,0.1664 l -0.31678,0.41238 -0.15813,0.20619 -0.31419,-0.13746 -0.47646,0.24805 -0.21963,-0.36226 c 0.17304,-0.27675 0.5467,-0.93175 0.55966,-1.27227 -0.003,-0.31538 -0.57803,-0.76334 -0.83044,-0.9033 l -0.26923,0.006 -0.30283,0.3483 -0.3576,-0.009 c -0.46858,-0.21166 -0.83061,-0.60148 -1.18701,-0.95549 -0.11165,-0.11086 -0.15637,-0.19559 -0.28628,-0.28422 -0.0114,-0.008 -0.68439,-0.2228 -0.74259,-0.24185 -0.53685,-0.17462 -1.04078,-0.42155 -1.55857,-0.64751 -0.30824,-0.13441 -0.53795,-0.45607 -0.74724,-0.69711 v -0.5085 c -0.27093,-0.25559 -0.49973,-1.0398 -0.49867,-1.37821 0.002,-0.63235 0.1045,-1.31273 0.15451,-1.94562 0.0206,-0.25982 0.26907,-0.5951 0.2651,-0.84646 -0.004,-0.26379 -0.14471,-0.55737 -0.14418,-0.8201 7.9e-4,-0.39687 0.12609,-0.82031 0.14831,-1.21956 0.0368,-0.65935 -0.19018,-2.16454 -0.68574,-2.58073 -0.29131,-0.24447 -0.65147,-0.48745 -0.96739,-0.70176 -0.22357,-0.15187 -0.52012,-0.26733 -0.76274,-0.39274 -0.15108,-0.0781 -0.35365,-0.21986 -0.5116,-0.2651 -0.3257,-0.0934 -0.70013,-0.13773 -1.03456,-0.20361 -0.17039,-0.0336 -0.42521,-0.10071 -0.52813,-0.25735 -0.17251,-0.26299 -0.25069,-0.61579 -0.42478,-0.87747 -0.12541,-0.18838 -0.52052,-0.42741 -0.75706,-0.41445 l -0.13074,0.0987 -0.26252,0.1974 c -0.28893,0.40138 -0.36003,0.90714 -0.78548,1.22887 l -0.34623,0.005 c -0.18018,-0.29183 -0.23155,-0.42699 -0.51677,-0.63045 l -0.32608,0.0605 -0.47232,0.93069 -0.38189,-0.0599 -0.27802,0.32504 -0.39739,0.0662 -1.01492,1.17357 c -0.2032,0.12197 -0.66094,0.0798 -0.87075,0.0155 -0.063,0.0728 -0.31832,0.39733 -0.38499,0.4222 -0.25929,0.0971 -0.54934,0.2436 -0.83509,0.22376 l -0.0455,0.0909 c -0.25718,0.50085 -0.17862,0.46688 -0.64958,0.80925 l -0.18706,0.13591 c -0.43789,0.0201 -0.88299,-0.14641 -1.29812,-0.26045 -0.0394,-0.0106 -1.2689,0.0131 -1.4459,0.0155 -0.20161,0.21113 -0.42957,0.5074 -0.65526,0.68626 -0.14049,0.11165 -0.38652,0.14524 -0.53072,0.25425 -0.21563,0.16324 -0.43468,0.42982 -0.62942,0.6227 -0.18415,0.004 -0.37914,-0.005 -0.56223,0.0124 l -1.279,1.06556 c -0.0889,-0.027 -0.24322,-0.0551 -0.31677,-0.0961 -0.15558,-0.0868 -0.31818,-0.24983 -0.47904,-0.3173 -0.293687,-0.12329 -0.717977,-0.24298 -1.029397,-0.31574 -0.46222,-0.10822 -0.97032,-0.10426 -1.44022,-0.18707 -0.3855,-0.068 -0.78072,-0.19595 -1.16014,-0.29094 -0.13758,-0.0344 -0.21088,-0.0884 -0.35243,-0.0884 -0.37968,1e-5 -0.69416,0.31624 -1.43764,0.18501 l -1.333767,-2.10737 -0.05116,-0.5612 c 0.18786,-0.25321 0.566928,-0.91483 0.565341,-1.25006 -0.0016,-0.29501 -0.106371,-0.60979 -0.120923,-0.90692 -0.01376,-0.27993 0.05776,-0.61783 0.08475,-0.90279 l -0.110069,-0.23306 c -0.744273,-0.007 -1.497489,0.0109 -2.240174,-0.0233 -0.510646,-0.0233 -1.022858,-0.10398 -1.53324,-0.12144 -0.504031,-0.0175 -1.067797,0.38926 -1.325501,0.32814 l 0.02687,0.53537 c -0.186003,0.10583 -0.470665,0.17521 -0.684713,0.16278 l -0.324011,0.26252 -0.199472,-0.18346 -0.204121,-0.0289 -0.209807,0.21084 c -0.429948,-0.0286 -0.860152,-0.062 -1.29036,-0.0848 l -0.05995,-0.83561 0.343133,-0.47646 c 0.248973,-0.0857 0.567388,-0.16006 0.799949,-0.27595 l 0.263551,-0.3638 -0.289904,-0.23565 c -0.254264,-0.0394 -0.51027,-0.0858 -0.765328,-0.11885 -0.348721,-0.045 -0.748064,0.0342 -1.087789,-0.0351 -0.188913,-0.0386 -0.400286,-0.1296 -0.585494,-0.18966 l -0.121957,-0.0388 -0.02376,-0.29611 c 0.04657,-0.0413 0.121497,-0.14944 0.130223,-0.21135 l -0.06098,-0.19379 c -0.139436,-0.10451 -1.220764,-0.13138 -1.522389,-0.14831 0.03889,-0.53049 0.01021,-0.90175 0.390157,-1.34307 0.03149,-0.32914 -0.568346,-1.00253 -0.781865,-1.20096 -0.05186,-0.006 -0.702468,-0.0796 -0.727604,-0.0904 -1.002506,-0.43127 -0.900869,-0.44546 -1.952852,-0.34571 -0.0095,7.9e-4 -1.89793,-0.75721 -2.04742,-0.81701 -0.296863,-0.40322 -0.911349,-1.32914 -1.185458,-1.60352 -0.08758,-0.0876 -0.721048,-0.46422 -0.912606,-0.48989 l -0.502811,0.1571 c -0.139171,0.3601 -0.457195,0.75594 -0.749824,1.002 l -0.423746,0.0202 -0.265102,-0.18396 -0.170016,-0.53795 -0.378788,-0.262 c -0.21934,0.0291 -0.665856,0.3563 -0.830956,0.48886 -0.03942,10e-4 -0.445177,0.0189 -0.456819,0.015 -0.496623,-0.16483 -1.020945,-0.45234 -1.502751,-0.66559 l -2.595708,-1.14877 c -0.110596,-0.049 -0.289446,-0.0222 -0.408244,-0.0568 -0.229923,-0.0672 -0.462653,-0.18061 -0.687814,-0.26872 0.02857,-0.17119 0.184581,-0.39768 0.301792,-0.5178 -0.0164,-0.26802 0.0048,-0.67728 0.119372,-0.92811 l 0.394293,-0.22841 c 0.03281,-0.16827 0.222538,-0.38578 0.362767,-0.47335 l 0.10387,-0.47749 0.201539,-0.0662 0.06253,-0.19895 -0.111104,-0.33022 0.03876,-0.15244 0.16588,-0.0553 c 0.115359,-0.14156 0.218745,-0.89935 0.256316,-1.10123 0.06853,-0.36751 0.124605,-0.70023 0.03359,-1.07435 l 0.07493,-0.16175 0.286287,-0.13591 -0.02223,-0.10645 -0.338479,-0.1819 c -0.04286,-0.20029 -0.08182,-0.40203 -0.129709,-0.601 l 0.315743,-0.42736 c -0.211666,-0.31592 -0.184843,-0.15374 -0.0041,-0.52865 -0.0074,-0.0675 -0.06131,-0.50329 -0.0584,-0.51625 0.05768,-0.25003 0.220125,-0.49463 0.275952,-0.74466 0.130704,-0.58658 -0.845169,-2.22719 -1.131713,-2.79208 -0.441589,-0.87021 -0.83974,-1.81369 -1.358056,-2.63601 l -0.664043,-1.05317 c -0.442383,-0.20822 -0.933823,-0.51369 -1.406634,-0.61185 -0.505354,-0.1047702 -1.020736,-0.1956102 -1.522386,-0.3162602 -0.190764,-0.0458 -0.383865,-0.15264 -0.575159,-0.1881 -0.689239,-0.12779 -1.401731,-0.20536 -2.095997,-0.30696 -0.3302,-0.0482 -1.496801,-0.23858 -1.695503,-0.52089 l -0.340548,0.3638 -0.232026,0.0481 c -0.354807,-0.19738 -0.913173,-0.57195 -1.274858,-0.709 -0.01058,-0.004 -1.129088,-0.20875 -1.152901,-0.20981 -0.2794,-0.0122 -0.853538,0.22086 -1.301213,0.14624 -0.117739,-0.0196 -0.833413,-0.35888 -0.894003,-0.35915 -0.348456,-10e-4 -0.720981,0.13746 -1.069702,0.13746 -0.683419,0 -1.347282,-0.25076 -1.983341,-0.4656 -0.489214,-0.1651 -1.071702,-0.12002 -1.526521,-0.39016 l -0.219626,-0.23358 -0.109553,-0.11627 c -0.05239,-0.50721 -0.125875,-1.02291 -0.157096,-1.53117 l -0.265102,-0.37311 -0.40876,-0.185 -0.312643,-0.66714 c -0.183091,-0.1868 -0.841745,-0.30798 -1.075901,-0.30851 -0.01111,0 -0.508323,0.18206 -0.581877,0.20826 l -0.212392,0.4439 -0.435115,-0.12196 c 0.04842,-0.48498 -0.01749,-0.96421 -0.120407,-1.44125 -0.877622,-0.20135 -1.143113,-0.20508 -1.858282,-0.56121 l -0.175183,-0.34675 -0.577744,-0.10955 c -0.05054,-0.0463 -0.393989,-0.33055 -0.395841,-0.38241 -0.0013,-0.0392 -0.02048,-0.4532 -0.01704,-0.46405 0.06906,-0.22806996 0.272047,-0.53000996 0.383437,-0.74775996 l -0.02066,-0.31936 -0.361217,-0.0165 c -0.439001,0.23098 -0.750818,0.40181 -1.218072,0.54416 -0.531614,-0.51733 -0.445627,-0.59963 -0.687298,-0.5793 z"
     style="display:inline;fill:#a30000;fill-opacity:1;stroke-width:0.26458299"
     id="rect1139" />
</svg>
