<?xml version="1.0" encoding="UTF-8" standalone="no"?>
<svg
   xmlns:dc="http://purl.org/dc/elements/1.1/"
   xmlns:cc="http://creativecommons.org/ns#"
   xmlns:rdf="http://www.w3.org/1999/02/22-rdf-syntax-ns#"
   xmlns:svg="http://www.w3.org/2000/svg"
   xmlns="http://www.w3.org/2000/svg"
   id="svg976"
   version="1.1"
   viewBox="0 0 193.63096 316.75528"
   height="1197.1853"
   width="731.83356">
  <defs
     id="defs970" />
  <metadata
     id="metadata973">
    <rdf:RDF>
      <cc:Work
         rdf:about="">
        <dc:format>image/svg+xml</dc:format>
        <dc:type
           rdf:resource="http://purl.org/dc/dcmitype/StillImage" />
        <dc:title></dc:title>
      </cc:Work>
    </rdf:RDF>
  </metadata>
  <path
     d="m 145.24971,0 -2.0407,0.25529 -1.53066,1.95595 v 1.27537 l -0.85008,1.19011 -1.10535,0.17002 -1.27538,1.70067 -0.25528,1.78594 -1.53066,1.78542 -3.82612,1.53065 h -2.0407 l -2.72077,0.42478 -2.38125,-0.25476 -0.85007,-0.68058 -1.87069,-0.5948 -1.53066,-1.78593 -0.76533,-1.0201 -0.51004,-0.51056 -1.19011,0.34055 -0.4253,1.10536 -2.466,1.02009 -1.36064,-0.51005 -2.04018,0.4253 -0.93534,1.61541 0.17001,1.10536 -0.68058,1.19062 -2.46548,1.10536 -0.93535,-0.0853 -1.10535,0.59532 0.0847,0.93534 -0.76533,0.25476 -1.95544,-0.0847 -0.68058,-1.19062 -0.68006,-0.0848 -1.87068,0.68006 -2.720768,-0.0847 -0.595313,-0.76533 -3.486094,-0.0853 -1.190626,0.85059 -1.70067,-0.85059 -0.76481,-1.10536 h -0.595312 l -1.190625,1.10536 -2.55075,0.34003 -2.465999,-0.76533 -0.510048,-0.85008 -1.615406,-0.68006 -2.551263,-0.0853 -0.510048,-0.51005 -1.105358,0.4253 -0.595312,1.02009 -2.55075,1.27537 -1.360641,-0.0847 -0.510045,0.51005 -1.19011,-0.0853 -0.510561,-0.68006 -0.765328,-0.17001 -0.680064,-0.51005 v -0.93534 c 0,0 -0.850228,-0.93545 -1.275374,-1.53066 -0.425148,-0.5952 -1.70067,-0.93534 -1.70067,-0.93534 l -0.680061,-1.10536 -0.765329,0.4253 -0.595312,0.85007 -1.105359,1.10536 0.76533,1.95596 0.510045,0.51004 0.170013,2.55075 0.68058,1.02061 1.190109,0.25477 0.680577,1.4459 v 1.36013 l -1.785937,1.10535 -2.040707,1.78594 -0.85007,2.21072 -0.76533,0.0847 -0.51005,0.51056 v 1.02009 l 1.95544,0.68007 0.34003,2.466 1.360641,0.68006 0.595313,-0.25477 0.42478,-1.02061 1.785938,-0.42478 1.70067,-1.78593 h 1.020093 l 0.935345,1.10535 1.360638,-0.34002 0.680064,1.6154 2.465999,0.34055 1.020093,-0.8506 1.360641,0.0853 0.935342,0.76533 0.170016,1.95543 1.190625,0.4253 0.340032,1.27537 v 1.10536 l 1.615403,0.34003 0.680063,1.10536 1.360641,-0.0847 0.510046,-0.4253 h 1.020609 l 0.510048,0.93534 0.935341,1.02009 0.935345,0.0853 0.850077,1.70067 h 1.105358 l 0.935344,0.68006 -0.170016,1.36064 -0.594794,0.76533 -0.595312,-0.51056 -1.615924,2.806029 -0.08475,3.061311 0.765328,1.020093 -0.510048,1.105358 -1.020609,0.935344 h -1.105357 l -0.935345,-0.680061 -1.275373,0.510045 -0.935345,1.275374 -1.785419,0.340032 -1.020612,-0.340032 -2.040702,1.10536 -0.170013,1.360641 0.765326,2.210719 -0.680061,1.360638 -0.850594,0.594797 -1.955437,2.721282 -2.976044,0.935341 -0.595313,-0.510561 -1.275376,0.595313 0.08475,2.551263 1.105358,1.275376 -0.08475,1.955435 -1.070737,0.847495 -0.747757,0.373621 v 0.98185 l 0.514181,0.467156 v 0.888318 c 0,0 -0.607823,0.327165 -0.794785,0.420645 -0.18696,0.09348 -0.04651,0.841293 -0.04651,0.841293 l 0.51418,0.701249 -0.04702,0.140044 h -1.355474 l -0.233577,-0.514181 -1.682586,0.701249 -0.467669,1.028362 -0.841293,0.51418 -0.280088,0.887802 0.233579,1.449006 -0.420648,0.374137 -0.467672,-0.09353 -0.51418,0.373621 v 0.888317 l -0.654227,0.514181 -0.46715,-0.187068 0.18655,-0.514181 -0.6072,-0.420648 -1.07538,0.187069 -0.65423,1.074869 h -0.46767 l -0.32711,-0.84129 -0.65422,0.32711 -0.56069,1.261941 -0.93483,0.14056 -1.07539,0.84129 -0.84129,1.121897 -1.21491,0.51418 v 0.794266 h -0.51418 l -1.07539,-0.560689 -0.46715,-1.823143 0.2806,-0.841293 -0.70125,-0.607716 -2.0097,0.187068 -0.2806,-0.280601 -0.65422,0.561205 0.32711,0.934826 0.46715,0.420648 -0.23357,0.701249 -0.51419,-0.09354 -0.14004,-0.51418 -0.5612,-0.420646 V 82.04772 l -0.65423,-0.18655 -0.56069,0.467154 -0.2806,1.07487 -0.98134,0.51418 -0.2806,0.934826 -0.60771,0.09354 -0.8878,-0.747758 -0.2341,-0.560689 0.0935,-1.168921 -0.42065,-0.186553 -0.8878,0.373621 -0.42065,0.981853 -1.21543,0.887799 -0.84129,0.09353 -0.88832,1.21543 0.51418,2.430344 0.46767,0.561205 -0.047,2.66392 -0.23358,0.888317 -0.51418,0.654225 0.047,0.841293 -0.74828,0.560689 -0.98133,0.280601 -0.46716,0.654225 -0.46767,-0.233577 -0.70125,0.374137 0.18707,0.934826 0.37414,0.467156 -0.37414,0.187068 -0.93483,1.028362 0.047,1.028361 0.65422,0.700731 -0.37414,0.467675 -0.51418,0.2806 -0.56069,-0.14056 -0.56069,0.32711 0.18656,0.70125 0.84129,0.51418 v 0.56069 l -0.56069,0.51418 0.23358,1.07539 -0.37362,0.56069 h -1.02837 l -0.42064,-2.15026 0.0465,-0.74776 -0.65423,-0.70124 -1.30896,0.14056 -0.84129,0.65422 -0.18655,1.02836 -0.56121,0.2806 -0.2806,0.74776 -0.093,2.05672 -0.70125,1.02785 v 1.02836 l -0.93483,0.93482 -0.79478,0.28061 0.047,0.42064 0.37363,0.23358 v 1.12189 c 0,0.23371 -0.51419,1.02837 -0.51419,1.02837 l 0.46768,1.30844 0.51418,0.51418 -0.18707,1.77612 -0.37414,0.18707 v 1.63608 l -0.28009,0.65422 -0.60771,0.70125 -0.14004,0.8878 -0.70125,0.18707 -1.1219,-0.28009 -0.14004,-0.5612 h -0.70125 l -0.88832,0.84129 -0.65422,1.82315 c 0,0 0.0935,3.45858 0.0935,3.69228 0,0.23371 -0.37413,0.93482 -0.37413,0.93482 l -0.093,3.08509 0.8878,1.72909 -0.23358,2.38383 -0.23357,1.30897 -1.26246,1.1684 0.047,2.24379 -0.51418,0.23358 -0.32712,0.79427 -0.60771,0.74827 v 0.56069 l 0.84129,0.84129 -0.60771,1.07487 -0.70074,0.18707 -0.32762,1.1219 -1.44901,1.77612 -0.93431,0.23357 -1.49603,1.02837 -1.86966,0.18706 -1.58905,1.35548 -0.88832,0.0465 -1.5420196,1.77612 v 0.65474 l 0.0253,-0.0465 c 0.13876,0.0595 0.60302,0.26237 0.61753,0.48008 0.0145,0.2177 -0.33693,0.50126 -0.33693,0.50126 0,0 -0.0403,1.13907 -0.0403,1.26969 0,0.13064 0.33383,0.60927 0.33383,0.60927 l 0.47543,0.41083 -0.65423,1.86965 -0.84129,0.51418 v 0.93482 l 0.79427,0.74776 0.23409,1.72961 1.2619396,0.8878 2.38384,0.14056 0.74775,0.93483 0.65423,2.85099 -0.01,1.6893 -0.82992,0.33228 -0.11111,0.99632 0.60927,1.60507 0.44286,0.49816 0.55346,2.32441 0.77463,0.49868 -0.55346,0.66404 -0.55345,-0.11059 -1.27331,0.55346 -0.82992,0.66404 h -0.94103 l -0.94103,1.1622 v 0.94103 l 0.94103,1.27331 1.88206,-0.0553 1.93734,-1.27331 h 0.60875 l 0.60875,0.33228 h 0.71934 l 0.1111,1.43919 -0.38757,0.66404 v 1.43919 l -0.66404,3.21014 -0.55397,0.55345 0.49816,0.88574 -0.11059,1.43919 -0.88573,0.49816 0.0558,0.66404 0.94052,0.49816 0.22169,1.16272 0.38757,0.16588 -0.1664,1.2175 -0.38705,0.49816 -0.88574,-0.22118 -0.83044,0.66405 -0.88573,0.0553 -0.66404,0.71985 0.16588,0.38757 -0.44287,0.49816 -1.1622,0.38706 -0.99632,-0.38706 -1.4391896,0.60875 -0.22118,0.38758 -1.49448,0.49816 -0.49816,-0.27699 -0.99632,0.38757 0.0553,0.44287 0.60875,0.11059 -0.0599,0.84181 0.8444,0.16898 0.16898,0.6196 -0.33797,0.73174 -0.67541,0.0563 -0.11265,0.90124 -0.39429,0.22479 v 0.56327 l 1.29501,0.39429 0.33796,0.78807 1.464,-0.16899 0.33796,-0.78806 h 1.2386796 l 0.45062,0.95705 h 1.06971 l 0.84491,0.73225 0.16898,1.74563 0.61908,0.39429 -0.39429,1.0697 -0.33745,0.28164 v 0.78806 l 0.2248,1.74564 0.39429,0.39429 -0.11266,1.0697 -0.95705,0.84491 v 0.84439 l -1.0697,0.50695 -1.07022,-0.33797 -0.33796,-1.01337 -0.7317396,-0.28164 -0.16898,-0.22531 h -0.50695 l -0.84439,0.6196 h -0.50695 l -0.50694,0.73174 0.16898,1.18287 1.35134,0.61909 h 1.35186 l 0.6754096,-0.50643 1.07021,0.50643 v 0.78858 l -1.2392,1.01338 0.11266,0.45062 0.6196,0.39377 v 0.56327 l -0.56327,0.22531 -0.7317396,-0.28164 -1.18288,0.67593 -0.0563,0.39429 -1.18236,0.2248 -0.39429,-0.2248 -0.50643,0.2248 v 0.56327 l 1.46399,0.11265 1.18236,-0.2253 0.6196,0.56327 0.4500996,0.39377 h 0.6196 v -0.78806 l -0.50694,-0.56328 0.39429,-0.39377 0.67593,-0.22531 0.56275,-0.67593 1.12655,0.11266 0.61908,0.6196 v 1.52032 l 0.45062,1.18236 1.57665,1.23868 2.13992,1.01389 h 0.56275 l 0.78859,0.56276 0.16898,1.63297 -0.0563,1.18288 -0.50694,0.61908 0.67593,0.90124 0.84439,0.28112 0.56327,-0.28112 0.95705,0.11265 1.91461,1.12603 0.33796,1.0697 1.18236,0.16899 0.78858,-0.22532 0.67541,0.56328 0.50695,0.95705 1.46399,0.45061 1.12603,0.95705 0.11266,1.29553 0.39429,0.33745 v 0.78858 l -0.67593,0.56327 -0.39377,-0.0563 -0.43357,0.20774 -1.02216,0.22686 -0.90899,-0.17053 -0.90847,0.22738 -0.28422,0.56792 -0.73794,0.0568 -0.11369,0.90899 0.90848,0.39739 0.0568,0.85163 0.96532,0.90898 0.68161,0.0569 -0.34055,0.85163 -1.19269,1.02268 h -0.62477 l -0.90847,0.85162 -0.22738,0.51108 -1.24954,0.73846 h -0.62476 l -0.18397,0.33848 c 0,0 -0.65751,-0.35611 -0.76636,-0.50126 -0.10886,-0.14512 -0.61666,-0.18147 -0.73277,-0.3266 -0.11612,-0.14515 -0.0726,-1.08821 0,-1.28416 0.0726,-0.19593 0.13761,-0.53729 0.0868,-0.74775 -0.0508,-0.21043 -0.38477,-0.44221 -0.62425,-0.47853 -0.23948,-0.0362 -0.85624,0.15208 -1.03766,0.27544 -0.18143,0.12338 -0.54421,0.42127 -0.6966,0.54467 -0.1524,0.12333 -0.60925,0.25382 -0.78342,0.39894 -0.17416,0.14515 -0.50798,-0.10909 -0.67489,-0.26148 -0.16691,-0.15239 -0.37026,-0.82729 -0.45734,-1.01596 -0.0871,-0.18868 -0.08,-0.60965 -0.1235,-0.82734 -0.0435,-0.21773 -0.35559,-0.54419 -0.34107,-0.6966 0.0145,-0.15237 0.12363,-0.56576 0.25425,-0.76894 0.13062,-0.20323 -0.087,-0.52289 -0.19585,-0.72606 -0.10886,-0.20319 -0.42825,-0.6894 -0.47904,-0.6966 -0.0508,-0.007 -0.45721,0.0947 -0.66766,0.0801 -0.21045,-0.0147 -0.50082,0.26824 -0.64596,0.42788 -0.14514,0.15967 -0.33616,0.70003 -0.34106,0.90744 -0.005,0.20742 -0.55148,0.48608 -0.68937,0.71831 -0.13788,0.23223 -0.42801,0.9581 -0.89245,1.13223 -0.46444,0.17421 -0.9292,0.0145 -1.2485,0.0145 -0.3193,0 -0.3193,0.36286 -0.50798,0.66766 -0.18868,0.30478 -0.66766,1.27692 -0.66766,1.27692 0,0 -0.3191996,0.78399 -0.2030896,1.26297 0.11611,0.47896 -0.62416,0.82723 -1.16117,1.01596 -0.537,0.18864 -1.14658,0.11614 -1.52394,0.15968 -0.37735,0.0435 -0.60951,1.23348 -0.6966,1.58182 -0.0871,0.34831 0.46449,0.84201 0.49352,1.29191 0.029,0.44993 -0.45006,0.74002 -0.97255,1.07384 -0.5225,0.33378 -0.89948,1.00171 -1.30587,1.26297 -0.40638,0.26121 -0.71119,0.36258 -0.84181,0.76894 -0.13062,0.40641 0.44962,0.91424 0.60927,1.23352 0.15965,0.31933 -0.40646,0.4793 -0.65319,0.74052 -0.24674,0.26128 0.2614,0.84183 0.11627,1.17564 -0.14514,0.33378 -1.4223,0.92894 -1.53841,1.00149 -0.11611,0.0726 0.29007,0.55139 0.40618,0.72554 0.11611,0.1742 0.0584,0.47874 -0.10129,0.75449 -0.15965,0.27575 -1.27713,1.16136 -1.37872,1.24849 -0.1016,0.0871 0.0434,0.88511 0.0579,1.26246 0.0145,0.37737 -0.14517,1.29188 -0.15968,1.6402 -0.0145,0.34833 0.9142,1.04505 1.10743,1.29553 0.19323,0.25046 0.63428,0.75068 0.73587,0.9684 0.1016,0.21773 0.9868,0.7547 1.05937,1.01598 0.0726,0.26125 0.46454,0.78409 0.81287,1.05989 0.34833,0.27575 0.26096,1.30599 0.26096,1.43658 0,0.13066 -0.30434,0.49345 -0.65267,0.52245 -0.34833,0.029 -0.27598,0.20347 -0.43563,0.42116 -0.15965,0.21768 -0.59495,0.24665 -0.88522,0.21757 -0.29027,-0.029 -0.50824,0.20307 -0.78186,0.5483 -0.27362,0.34515 -0.56782,1.01928 -0.77101,1.10638 -0.2032,0.0871 -0.74042004,-0.27596 -0.94362004,-0.27596 -0.20319,0 -0.62408,0.44976 -0.67076,0.70281 -0.0467,0.25305 0.5693,0.51657 0.62736,0.57465 0.0581,0.0581 0.60668004,1.28053 0.60668004,1.28053 l 0.77049,0.54983 1.0666,2.0252 1.01803,3.23755 0.88212,0.55499 0.76894,-0.56327 0.62012,-0.0775 0.73897,0.99428 0.39791,-0.0569 0.34055,-0.90847 1.42007,-0.90898 h 2.1579996 l 0.90848,0.45424 0.3979,1.36321 1.41956,1.13586 0.3979,-0.34055 2.10117,1.98748 0.90847,0.34107 0.39791,0.68159 0.0568,1.36271 0.90847,0.68162 1.02216,0.39738 0.68162,1.07953 v 0.96533 l 0.51108,0.5679 0.7953,0.28424 v 2.10116 l 0.96531,1.41955 0.11369,2.04483 1.36322,1.30638 h 0.56793 l 0.39739,0.3974 -0.39739,0.73846 -1.30638,0.79528 -0.85163,0.28371 -0.17053,1.76062 0.17053,1.079 1.81695,0.3979 0.61908,-0.55911 0.75396,-0.10801 0.8077,-0.53848 -0.108,-0.86145 -0.37673,-0.86143 0.32298,-0.32298 0.21549,-0.70022 0.59222,-0.1075 0.16174,0.48474 1.13068,0.75343 0.0538,0.70022 -0.86145,0.16174 -0.16175,0.69972 0.10801,1.13067 0.59221,0.2155 0.21549,0.9157 -0.3235,0.43047 h 1.72341 l 1.29192,-0.86145 0.64647,-1.07694 0.53846,0.0537 0.2155,0.70022 1.02267,0.0537 0.43098,-0.43098 0.21549,0.86145 -1.23868,0.43098 -0.16123,1.23868 -0.64647,0.32297 -0.26924,0.96894 0.91571,0.75395 0.32298,3.23083 0.64595,1.07693 0.21549,2.26187 1.0232,1.23817 0.0537,2.96159 -0.10749,0.59219 v 0.48474 l 0.6997,0.32298 0.2155,0.86143 0.0537,0.53848 1.18494,0.26924 1.07694,0.21548 0.96893,-0.8077 v -0.59221 l 1.45366,-0.59222 0.48472,-0.70022 0.8077,-0.32298 0.2155,-0.64595 1.18442,-0.0542 0.91571,0.96943 1.93838,1.0232 2.6386,-0.108 1.88464,0.0543 0.21497,0.32298 1.88464,0.16124 c 0,0 0.42367,-0.0581 0.48731,-0.22066 0,0 -0.11584,-0.36696 0.0176,-0.52092 0.13341,-0.15393 0.52325,-0.70813 0.63614,-0.80047 0.11289,-0.0924 -0.29741,-0.68754 -0.48215,-0.94411 -0.18472,-0.25654 0.13339,-0.82124 0.2155,-1.0573 0.0821,-0.23604 0.3076,-0.30779 0.4718,-0.34883 0.1642,-0.0411 0.80051,0.51298 1.0263,0.70797 0.22578,0.19498 0.45155,0.13349 0.6568,0.0207 0.20526,-0.1129 0.14382,-0.52359 0.0925,-0.75965 -0.0513,-0.23606 0.14379,-0.2255 0.30799,-0.2563 0.16421,-0.0308 0.041,-0.59547 -0.0822,-0.84182 -0.12315,-0.24625 -0.20536,-0.42064 -0.0103,-0.63614 0.195,-0.21553 0.17451,-0.74927 0.29766,-0.89297 0.12315,-0.14367 0.7745,-0.68212 0.81804,-0.85627 0.0435,-0.17412 0.12402,-0.45519 0.17415,-0.6971 0.0501,-0.24193 0.11185,-1.21192 0.2036,-1.68362 0.0917,-0.47167 -0.0873,-1.18978 -0.11627,-1.6397 -0.029,-0.44993 0.1163,-0.6241 0.27595,-0.68213 0.15965,-0.0581 0.58052,-0.94353 0.77153,-1.24489 0.19102,-0.30136 0.40389,-0.77293 0.47646,-1.16477 0.0726,-0.39185 0.0724,-0.91398 -0.11627,-1.1462 -0.18868,-0.2322 0.23226,-0.52245 0.49351,-0.85628 0.26126,-0.33377 0.0436,-1.00166 -0.0289,-1.27743 -0.0726,-0.27575 -0.53686,-0.21773 -0.72554,-0.50797 -0.18868,-0.29028 0.20294,-0.66752 0.42065,-0.88522 0.21769,-0.21773 -0.029,-0.72583 -0.0145,-0.79841 0.0145,-0.0725 0.682,-0.97218 0.72554,-1.43661 0.0435,-0.46444 -0.0869,-0.89995 -0.0579,-0.98702 0.029,-0.0871 0.40636,-0.26157 0.68213,-0.24702 0.27575,0.0146 0.89966,-0.24646 1.10587,-0.493 0.20622,-0.24651 0.56308,-0.7258 0.7953,-0.7839 0.23222,-0.058 0.42086,-0.47932 0.52245,-0.5664 0.1016,-0.0871 0.812724,0.0292 1.030429,-0.0434 0.217704,-0.0726 0.885767,-0.55118 1.045414,-0.62375 0.159652,-0.0726 0.943078,-0.0294 1.117245,-0.21807 0.174165,-0.18868 -0.580197,-0.50785 -0.623734,-0.72554 -0.04354,-0.2177 0.391636,-0.55171 0.420645,-0.78394 0.02903,-0.2322 -0.01461,-0.2612 0.203089,-0.53689 0.217707,-0.2758 -0.05803,-0.6386 -0.174151,-0.8563 -0.116107,-0.2177 0.246941,-0.23209 0.609782,-0.0145 0.147873,0.0887 0.310055,0.0788 0.45837,0.0248 l 0.806153,0.62113 c 0.140087,0.57523 0.450054,0.64127 0.749308,0.73898 0.923563,0.61032 1.195258,-0.004 1.66243,-0.0821 l 0.975651,-3.13058 0.953432,-0.86092 1.46141,-1.26297 1.07125,-1.26608 0.918808,-1.07281 0.91054,-0.37568 0.273368,-0.99062 0.710033,-1.43611 1.095541,0.36277 0.667661,-0.56584 0.450101,-0.74054 0.449585,-0.35552 c -0.217702,-0.18865 -0.536869,-0.53687 -0.725538,-0.55139 -0.188679,-0.0146 -0.420677,0.10165 -0.580326,-0.17415 -0.15965,-0.27572 -0.07304,-0.75472 -0.363286,-0.8418 -0.290259,-0.0871 -0.740238,-0.29022 -1.001488,-0.3483 -0.261244,-0.058 -0.536996,-0.15957 -0.68213,-0.0289 0,0 0.117184,-0.33848 0.101804,-0.40516 -0.01537,-0.0667 -0.128556,-0.39497 -0.113173,-0.48731 0.01537,-0.0924 0.04632,-0.45667 0.02067,-0.51313 -0.02564,-0.0565 -0.179319,-0.16433 -0.179319,-0.16433 l 0.359153,-0.12817 1.008724,0.35555 0.181383,0.22479 c 0,0 0.275349,0.57351 0.29714,0.60978 0.0218,0.0363 1.096179,0.0216 1.226799,0.0289 0.13063,0.007 0.508495,-0.0134 0.508495,-0.0134 l 0.07183,-0.65683 -0.08217,-0.4718 0.198438,-0.88263 0.620633,-0.99631 2.067057,-0.92657 1.353923,0.42788 1.211813,-0.35658 -0.285255,-0.56999 0.499195,-1.21179 h 1.496549 l 0.590145,-0.97462 c -0.17417,-0.42087 0.443008,-0.56608 0.907439,-0.6532 0.464439,-0.0871 0.609314,-0.55134 0.594797,-0.72555 -0.0145,-0.17414 -0.07243,-0.69651 0.116271,-1.05936 0.18868,-0.36285 0.07232,-0.92887 0.08681,-1.34977 0.0145,-0.4209 -0.211654,-0.39905 -0.326594,-0.6749 -0.0726,-0.17415 0.19635,-0.55885 0.37052,-0.66043 0.174159,-0.10162 -0.442817,-0.15213 -0.457338,-0.42788 -0.0145,-0.2758 0.471829,-0.0367 0.58963,0.031 0.0743,-0.19349 0.157776,-0.79304 0.273886,-1.19941 0.11611,-0.40635 0.36308,-0.29051 0.769461,-0.42117 0.406379,-0.13059 0.856075,-0.3339 1.088305,-0.4935 0.16995,-0.11689 0.386705,0.0386 0.655776,0.23048 l -0.198957,-1.5286 0.07131,-1.78181 -0.641303,-1.71048 -0.997873,-0.35658 -0.783932,-1.49654 0.21394,-1.1405 0.569992,-0.21342 0.142626,-0.99787 -0.569989,-0.71314 -1.211813,-0.28474 -0.07131,-0.99787 0.855244,-0.49919 v -1.2113 l -1.140499,-0.71262 -0.213424,-2.06705 -0.07131,-1.49655 1.139984,-1.78181 0.641821,-0.21394 v -0.64182 l -2.067058,-0.99735 -0.07131,-0.4992 0.712618,-0.56999 0.641305,0.14263 0.997873,-0.85525 -0.92656,-0.49919 0.641821,-0.42737 0.07132,-0.5705 -0.713137,-0.42737 -0.926558,0.49868 -1.639176,-0.49868 -0.213942,-0.85524 -0.641302,-0.35657 0.143142,-0.96687 -0.425296,-1.78593 -0.935345,-0.76533 -0.765326,0.93534 h -1.275376 v -0.68006 l 0.765329,-0.59531 v -1.44539 l -0.340032,-0.51005 v -1.19063 l 1.10536,-0.59531 -0.255281,-2.72076 -0.594796,-0.51005 -0.08527,-1.78594 0.340032,-1.78542 0.765328,-0.68006 -0.255283,-1.78593 -0.594794,-0.25477 -2.466002,0.25477 -0.765325,-0.51005 -0.4253,-1.53066 v -0.68006 l -0.340029,-0.59531 -1.190109,-0.17002 -1.445906,-1.19011 -1.020093,-0.0853 -1.190625,-0.85007 -0.935344,-1.78594 0.08527,-1.02009 0.595313,-1.19063 -0.255284,-1.36012 0.680064,-0.93535 1.190625,-0.59531 1.870686,-2.21072 0.08475,-0.85059 1.383895,-1.17409 1.605587,2.19005 1.144633,0.37104 -0.04134,1.32756 0.858345,-0.0997 0.609783,-0.71365 0.624252,-0.15348 0.556038,-0.62632 0.611849,0.97721 0.7028,0.31936 0.47077,0.65939 0.721921,0.60564 0.665591,0.16537 1.269175,0.37155 0.599445,0.91468 1.088824,0.18035 0.501777,-0.96222 0.08475,-0.68006 0.765326,0.25476 1.020612,0.76533 0.595312,2.466 c 0,0 1.032656,1.42462 1.148766,1.62781 0.116109,0.20318 0.725516,1.79967 0.899686,2.20607 0.391861,0.26124 0.870649,0.56592 1.073838,0.71106 0.20319,0.14513 1.425752,0.46406 1.425752,0.46406 0.25081,-0.18302 0.493747,-0.4005 0.532268,-0.48007 0.077,-0.15906 0.276929,-0.59486 0.271817,-0.89762 -0.005,-0.30275 0.164208,-0.63121 0.292489,-0.73898 0.128292,-0.10776 0.615672,-0.35909 0.718302,-0.42064 0.10263,-0.0616 0.2156,-0.61599 0.45165,-0.61599 0.23604,0 0.56452,-0.2464 0.66715,-0.37982 0.10262,-0.13341 0.35912,-0.48207 0.57464,-0.39997 0.21552,0.0821 0.92381,0.164 1.04696,0.26665 0.12315,0.1026 0.29742,0.26674 0.48214,0.13332 0.18474,-0.13341 0.63658,-0.17428 0.69815,-0.0408 0.0616,0.13341 0.91304,0.0822 0.97462,0.23616 0.0616,0.15393 -0.1741,0.44132 0.12351,0.44132 0.29762,0 0.64622,-0.3596 0.90278,-0.20568 0.25657,0.15397 0.77591,-0.0397 0.86662,-0.0289 0.0907,0.011 0.32316,0.28658 0.43201,0.37001 0.10886,0.0835 0.7232,0.14667 0.83096,0.20825 0.10776,0.0616 0.0819,0.33365 0.19482,0.45165 l -0.57051,1.46038 0.1571,0.7674 0.49092,0.7152 -0.0284,0.80718 0.4315,1.07591 1.15342,-0.84801 0.92708,-2.04639 1.53892,-0.13488 1.5074,0.1757 0.85008,-1.02009 v -1.36064 l -1.10536,-1.10536 0.85059,-0.93534 -0.0853,-3.48609 h -0.85007 l -1.27538,-0.51057 h -2.0407 l -0.76533,0.68058 -1.19062,-0.34003 -0.34003,-0.4253 -1.36064,-0.68006 h -1.78542 l -2.04071,-0.59531 -1.19062,-0.85059 h -1.53014 l -0.935345,-0.68007 -0.08527,-1.02061 0.680065,-0.51004 -0.0879,-0.72967 -0.51005,-0.76533 0.255283,-0.8506 1.190107,-1.53014 0.0853,-1.4459 -0.76533,-0.76533 0.34003,-1.27537 0.85008,-1.0201 -0.17002,-0.93534 -1.36012,-1.10536 0.17002,-0.93534 0.59479,-0.51005 0.76533,-2.12597 0.0853,-1.70067 -0.76533,-1.36012 0.17002,-0.76533 h -0.85008 l -0.25528,1.44539 -0.595313,-0.59531 0.425297,-1.78542 -0.595313,-0.68058 -1.360641,-0.93535 -0.170016,-1.1901 -0.510045,-0.76533 0.510045,-1.53066 0.595313,-0.17001 0.255283,-1.0201 0.510045,-0.42529 -0.25528,-1.36064 -0.765329,-1.0201 -0.170016,-1.78593 -0.850077,-3.0608 0.510048,-3.31608 0.170013,-1.44539 -0.510045,-0.68057 0.765329,-0.34004 0.850077,0.34004 v 0.93534 l 1.190625,-0.51005 0.59531,0.25528 0.17002,1.70016 0.76532,0.59531 h 1.95544 l 0.8506,-0.68006 -0.17002,-1.70067 -0.25528,-1.19063 0.76533,-0.93534 0.76533,-0.0847 1.70015,-0.85008 0.4253,-1.27589 1.02061,-1.36012 1.02009,-0.4253 1.27537,-2.29599 v -0.76532 l -0.51004,-0.51005 0.0853,-0.42478 1.10536,-0.51056 v -0.68009 l 0.59479,-0.76533 -0.25476,-1.0201 -0.51056,-0.51056 1.02061,-0.59479 1.6154,0.34003 0.93535,-0.59531 2.46599,0.0847 0.68007,0.93535 0.76532,-0.17002 0.4253,-0.76533 1.61541,-0.34003 0.76532,0.59532 0.34003,-0.59532 2.21072,0.17002 1.10536,0.51056 0.68058,-0.68058 1.78542,0.25529 1.70067,1.78542 1.70067,0.0853 1.78542,1.36012 1.95596,-0.0847 0.93534,-1.27538 1.36012,-0.34003 0.59532,-1.19063 0.34003,-1.95543 0.93534,-1.70067 -0.59531,-1.10536 0.85059,-1.02061 1.95544,-0.59531 v -0.85008 l -1.10536,-0.68006 c 0,0 1.10532,-1.19077 1.27537,-1.61592 0.17007,-0.42515 -0.34003,-1.87069 -0.34003,-1.87069 l 0.76533,-0.17002 1.10536,1.61592 h 1.95595 l 1.78542,1.0201 0.85008,-1.19011 -0.17001,-1.19062 -1.0201,-0.68007 -0.0853,-1.10536 -1.1901,-1.27589 -0.4253,-1.44539 -0.76533,-0.93534 0.76533,-1.36012 0.68006,-0.68058 0.25528,-1.44539 -0.25528,-1.61541 0.76533,-1.10536 1.02061,-0.42529 1.19011,-0.93535 0.68058,0.25528 0.51004,1.10536 h 0.85008 l 0.8506,-1.19062 -0.17002,-0.76533 -1.87069,-0.34003 -0.85059,-1.02009 0.34003,-0.76533 1.53066,-0.17002 0.25528,-0.68057 0.76533,-1.0201 0.0848,-0.68058 -0.59532,-0.51004 -0.34003,-0.85008 0.93535,-0.59531 -0.34004,-0.59532 0.59532,-0.85007 1.19011,0.85007 0.76532,-1.70067 0.76533,-0.25476 h 1.36064 l 0.0847,-0.93534 -0.34003,-0.93535 v -0.85059 l 0.85008,-0.93535 -0.5948,-0.93534 -1.27537,-0.42478 -0.68058,-1.61592 v -2.46549 l -0.34003,-1.10535 0.76533,-0.93535 1.10535,0.17002 0.93535,-0.34003 v -1.02061 l -1.36064,-1.19011 0.76533,-1.27589 1.02061,-0.935346 0.85007,-3.060795 1.95596,-0.935342 0.34003,-0.680061 0.68006,-0.425299 2.0407,0.340032 1.70067,-0.340032 c 0,0 0.34022,-0.510395 0.59531,-1.190625 0.25509,-0.680228 0.93535,-0.76481 0.93535,-0.76481 l 1.02009,-0.255284 0.51005,-1.105357 1.53065,-1.870687 2.21072,-0.255283 0.68058,-0.424778 2.12545,0.34003 1.78542,-0.680578 0.51057,-2.55075 0.68006,-0.170016 0.17001,-1.530654 -0.42529,-1.020093 -1.10536,-0.425297 -1.19011,-1.020093 v -0.935344 l 0.93534,-0.850593 -0.34003,-1.020093 1.36012,-1.360641 0.93535,-0.08475 0.85059,-0.850596 -0.17001,-1.105358 0.93482,-0.595312 1.27589,0.08527 1.4454,0.510045 1.95543,-1.275373 h 0.68058 l 1.19011,-1.105361 0.59531,-1.785419 v -1.615924 l 1.27537,-1.02009 1.02062,0.254764 0.42478,-0.680064 0.25528,-1.190625 1.27537,-0.765325 v -1.785422 l 0.76533,-1.275374 h 1.44539 l 0.42529,-0.595312 0.0848,-1.700673 0.76533,-0.850077 v -0.935342 l -1.61541,-0.85008 -0.0853,-1.105358 -1.53013,0.08475 -0.68058,1.360641 -1.70016,-0.680577 -0.17053,-0.764813 -1.27538,0.424781 -1.53013,-0.510048 -0.68058,-1.190625 -0.0847,-1.020091 -1.02061,0.255281 -0.42478,1.360122 0.34003,1.020612 -0.59531,0.935342 -0.68006,-0.170016 -0.0853,-0.850593 -0.68006,-0.935345 -0.25529,-1.615403 0.34003,-0.935344 -0.25476,-1.44539 -1.36064,-1.360641 -1.44539,-0.08475 -1.36064,-1.700673 0.0853,-1.615922 1.10536,-1.360122 -0.51057,-2.976051 0.93535,-3.6561 h 0.42529 l -0.17001,-0.8506 -0.85008,-0.68006 -0.4253,-0.93534 -1.36064,-0.0853 -1.02009,1.10536 h -0.85059 l -0.76533,-1.27538 0.51056,-1.10535 0.17002,-3.23082 1.87068,-1.87068 0.68007,-2.12597 -0.34003,-2.80603 -1.53066,-1.53066 -1.44539,-0.0847 -1.10536,1.78542 -0.25528,1.87069 h -1.18982 l -0.51057,-0.68006 -1.53013,-0.59531 -1.95596,0.0853 -1.44539,-0.25528 -1.19062,-1.70067 -0.93535,-0.34003 v -0.51005 l 0.68058,-0.25528 -0.34003,-0.85007 -1.36064,-0.68058 v -1.19011 l 0.93534,-1.27538 -0.59531,-2.466 -0.85008,-0.51004 -0.42529,-2.38074 -1.95596,-0.25528 -0.68006,-0.85008 -3.31607,-0.42529 -0.25529,-0.51005 0.4253,-0.68058 -0.59531,-0.59531 -0.93534,-0.25476 0.0853,-1.36065 -1.02061,-1.6154 -0.51005,-0.59531 -0.42529,-1.61541 0.34055,-0.68058 -0.51057,-0.85007 -1.87068,-0.34004 -1.0201,-0.76532 -0.17001,-0.93535 -0.51005,-0.85007 h -1.10587 l -1.53014,-0.8506 z"
     style="display:inline;fill:#a30000;fill-opacity:1;stroke:none;stroke-width:0.1531911"
     id="rect940" />
</svg>
