<?xml version="1.0" encoding="UTF-8" standalone="no"?>
<svg
   xmlns:dc="http://purl.org/dc/elements/1.1/"
   xmlns:cc="http://creativecommons.org/ns#"
   xmlns:rdf="http://www.w3.org/1999/02/22-rdf-syntax-ns#"
   xmlns:svg="http://www.w3.org/2000/svg"
   xmlns="http://www.w3.org/2000/svg"
   viewBox="0 0 753.70523 587.81037"
   height="587.81036"
   width="753.7052"
   xml:space="preserve"
   id="svg815"
   version="1.1"><metadata
     id="metadata821"><rdf:RDF><cc:Work
         rdf:about=""><dc:format>image/svg+xml</dc:format><dc:type
           rdf:resource="http://purl.org/dc/dcmitype/StillImage" /><dc:title></dc:title></cc:Work></rdf:RDF></metadata><defs
     id="defs819" /><g
     transform="translate(-139.5728,-115.13715)"
     style="display:inline"
     id="layer3"><path
       d="m 714.71947,115.13715 -2.48047,2.48047 1.20117,1.1211 -0.80078,1.75976 -0.80078,-0.56054 -0.79883,0.80078 -0.88086,0.39843 h -0.24023 l -0.47852,0.72071 h -0.40039 l -1.04101,-0.16016 -0.47852,0.0801 -1.36133,1.28125 -0.39844,0.71875 -0.0801,0.40039 0.1582,0.56055 v 0.47851 l -0.71875,0.4004 -0.40039,0.32031 0.16015,0.7207 -0.0801,0.55859 -0.64063,1.20118 1.04102,0.40039 0.16015,0.95898 0.47852,0.48047 1.92187,1.51953 1.2793,0.88086 h 0.48047 l 0.39844,-0.0801 0.40039,-0.32031 h 0.32031 l 0.40039,0.0801 0.0801,0.32031 v 0.40039 l 0.32031,0.47852 0.16016,1.36133 -0.16016,0.55859 0.32031,0.24023 0.15821,0.48047 h 0.24023 l 0.16016,0.32032 -0.24024,0.56054 0.40039,0.23828 0.0801,0.32032 -0.16015,0.48047 0.16015,0.32031 -0.32031,0.0801 v 0.40039 l -0.32031,-0.16016 -0.0801,0.79883 0.16016,0.48047 -1.2793,1.67969 -1.67969,1.28125 0.40039,0.63867 0.32031,0.24023 0.79883,-0.56054 1.1211,0.16015 0.79882,0.64063 -0.16015,0.24023 -0.71875,0.40039 -0.96094,1.03906 0.32031,0.32032 v 0.40039 l 0.32032,-0.0801 0.0801,0.16015 0.79883,0.5586 0.32031,-0.0781 0.48047,0.1582 0.48047,-0.39844 0.47852,0.24024 0.24023,-0.32031 0.64063,-0.0801 0.40039,0.0801 0.0801,0.24023 -0.4004,0.31836 -1.19921,0.0801 -0.0801,0.24023 -0.32031,0.16016 -0.48047,0.24023 h -0.40039 l -0.48047,0.16016 -0.95899,0.48047 -0.96093,1.03906 0.24023,0.32031 -0.24023,0.24024 -0.39844,0.56054 -0.56055,0.24024 -0.96094,0.71875 0.0801,1.20117 -0.47851,0.71875 -1.52149,1.04102 0.24024,0.63867 0.80078,0.32031 0.8789,1.43945 0.96094,1.04102 3.03906,2.08008 1.04102,1.19922 0.0801,0.48046 -1.43946,1.51954 -0.24023,0.64062 v 0.48047 l -0.16016,0.71875 -0.96093,0.88086 -0.56055,0.7207 0.0801,0.31836 -0.0801,0.64063 -0.55859,0.64062 0.0801,1.03906 0.0801,0.40039 0.79883,0.88086 -0.24023,0.5586 -0.95899,1.04101 -0.48047,0.87891 -1.19922,1.20117 -0.24023,0.40039 v 0.47852 l -0.24024,0.56054 -0.48046,0.64063 -0.48047,0.87891 -0.5586,0.64062 -0.64062,1.43945 -0.56055,0.80079 -0.24023,0.56054 -0.79883,1.03906 -0.32031,0.56055 -0.48047,0.24024 -0.63867,-0.0801 -0.56055,-0.24024 -0.48047,0.24024 -0.16016,0.40039 -0.48046,0.55859 -0.87891,0.64063 0.0801,0.95898 -0.48047,0.80078 -0.24024,1.11914 0.32032,0.48047 -0.0801,0.24023 -0.56055,0.32032 0.16016,0.56054 -0.0802,0.24024 h -0.32031 l -1.03907,-1.4414 -0.40039,-0.0801 -0.64062,0.40039 -0.55859,0.0801 h -1.28125 l -2.95899,-0.24024 H 690.239 l -1.51953,0.48047 -0.80078,0.32031 h -0.47852 l -0.32031,-0.16015 0.0801,-0.48047 -0.0801,-0.56055 -0.32031,-0.0801 -0.96094,0.0801 -0.47852,-0.23828 -2.08007,0.39844 -0.24024,-0.0801 -0.24023,-0.24024 -1.11914,-0.31836 -1.36133,-0.7207 v -0.88086 l -0.5586,-1.43945 0.31836,-0.79883 0.40039,-0.40039 1.28125,-0.80078 0.39844,-0.48047 0.40039,-0.95898 -0.64062,-0.88086 -0.23828,-0.47852 -0.16016,-0.48047 1.83984,-2.56054 0.32032,-0.64063 1.11914,0.32031 0.7207,0.32032 1.43945,0.24023 2.08008,-0.88086 -0.40039,-0.71875 -0.32031,-0.56055 -0.79883,-0.24023 -0.40039,-0.40039 -0.80078,0.0801 0.80078,-0.87891 -0.0801,-0.40039 -1.59961,-1.04101 -0.56055,0.56054 -0.40039,0.0801 -0.40039,0.64063 -0.79882,0.16015 -0.64063,0.71875 -0.7207,0.4004 -1.03907,0.24023 -0.88085,0.40039 -0.71875,0.7207 -0.24024,0.5586 -0.48047,0.56054 -1.51953,0.64063 -1.43945,0.79883 -0.56055,0.0801 -0.64062,0.16015 h -0.56055 l -0.39844,0.24024 -1.12109,-0.32031 -0.95899,0.0801 -0.80078,0.96093 -0.99219,-0.32617 c 0.33929,-0.57825 0.62035,-1.15226 0.49805,-1.29492 -0.26516,-0.30935 -1.10421,-0.70796 -1.50195,-1.23828 -0.39775,-0.53033 -0.92868,-1.19234 -1.10547,-1.72266 -0.17677,-0.53033 -1.01632,-2.12089 -1.41406,-1.63476 -0.39775,0.48613 -0.21987,1.54515 -1.23633,1.67773 -1.01646,0.13251 -3.00652,-0.44125 -3.4043,0.0449 -0.22308,0.27266 -0.51494,0.86623 -0.93164,1.31055 l -1.11133,-0.0176 -0.56054,-0.32032 -0.56055,-0.47851 -1.35938,-0.64063 -0.56054,-0.0801 -0.79883,0.24024 -0.7207,-0.7207 -0.64063,0.24023 -1.19922,0.24023 -0.24023,-0.40039 -0.16016,-0.56054 -0.32031,-0.31836 -0.55859,-0.24024 -0.56055,-0.48047 -1.20117,-0.64062 -1.11914,-0.40039 -2.48047,-0.63867 -0.71875,-0.64063 -0.96094,-0.32031 -0.80078,-0.87891 -1.03906,-0.56054 -2.64061,-1.03907 -2.24023,-1.12109 -0.87891,-0.32031 -1.04101,-0.0801 -0.95899,-0.24024 -0.48047,0.40039 -0.64062,0.40039 -0.71875,0.0801 -0.88086,-0.16016 -0.40039,-0.32031 -0.71875,0.0801 -0.0801,0.56055 v 0.48047 l -0.56055,1.03906 0.0801,0.64063 0.40039,0.95898 -0.0801,0.40039 -0.40039,0.24023 -0.56054,-0.0801 -1.03907,-0.80078 -0.80078,0.24024 h -1.9199 l -0.95898,1.12109 -0.72071,0.32031 -1.19922,0.79883 -1.52148,1.67969 -0.79883,0.7207 -0.88086,0.88086 -0.47851,1.43946 -0.56055,1.03906 -0.7207,0.88086 -0.48047,1.27929 -1.11914,2.16016 -0.72071,1.59961 -1.27929,1.52148 -1.03907,-0.40039 -0.48046,-0.40039 -0.4004,-0.48047 -0.16015,-0.71875 v -1.36132 l 0.0801,-1.2793 -0.48047,-0.7207 -2.24024,-0.95899 -0.63867,-0.16015 -0.48047,-0.32032 -0.56054,-1.19922 -0.24024,-0.24023 -0.55859,-0.16016 -0.32031,0.24024 -0.64063,0.0801 0.64063,1.51953 0.16015,0.64062 -0.48047,-0.0801 -0.40039,-0.56054 -0.64062,-1.1211 -0.15821,-0.55859 -0.24023,-0.48047 -0.80078,-0.24023 -1.03906,-0.16016 -0.72071,0.32031 -1.19922,0.24024 -0.80078,0.32031 -0.64062,-0.56055 -0.40039,-0.56054 -0.15821,-0.5586 -0.56054,-0.32031 -0.56055,-0.24023 -0.0801,-1.35938 -0.48047,-0.48047 -1.35937,-0.0801 -1.03906,-0.32031 -0.80079,-0.48047 -3.19921,-0.48047 -1.04102,0.32032 -0.48047,0.7207 -0.55859,0.16015 -0.88086,-0.32031 -0.7207,1.19922 -0.63868,0.40039 -0.16015,0.96094 -0.64063,0.40039 -1.03906,0.31836 -0.80078,0.0801 -0.80078,-0.71875 -0.15821,-0.32031 0.0781,-0.80078 h 0.40042 l 0.32031,-0.16016 0.96094,-0.63867 3.19922,-1.28125 0.48047,-0.47852 0.0801,-0.7207 0.40039,-0.56055 0.47851,-1.83984 -0.16015,-0.64063 -0.47852,-0.71875 -0.0801,-0.7207 0.32031,-0.40039 0.63868,-0.39844 1.04101,-1.28125 0.71875,-0.40039 0.24024,-0.63867 -0.32032,-0.80078 1.44141,-2.48047 0.47852,-1.2793 0.88085,-1.75976 -0.16015,-1.59961 0.48047,-0.32032 0.24023,-0.64062 -0.48047,-1.11914 -0.0801,-0.88086 0.0801,-0.64063 1.51953,-0.63867 2,-1.28125 0.80079,-0.39843 0.40039,0.23828 0.71875,-0.15821 0.0801,-1.20117 -0.32031,-0.56055 0.24024,-1.19921 -0.79883,-0.0801 -0.80078,0.0801 -0.72071,0.24023 -0.95898,-0.16016 -0.24024,-0.40039 0.56055,-0.95898 0.32031,-2 h -1.28125 l -0.32031,-0.40039 -0.71875,-0.56055 0.16016,-0.8789 v -0.64063 l 0.31836,-0.96094 0.64062,-1.19922 -0.32034,-2.08007 -0.40039,-0.95899 v -0.64062 l -0.31836,-0.64063 -0.80078,-0.56055 -0.56055,-0.63867 -0.0801,-1.59961 -0.63867,-0.48047 -0.0801,-0.56054 0.40039,-0.64063 1.2793,-0.79883 v -0.64062 l 0.32031,-0.64063 v -0.79882 l -1.36132,-0.64063 -1.35938,-0.16015 -0.56055,0.24023 -0.55859,0.0801 -0.64063,0.24023 -0.24023,-0.32031 -0.24023,0.0801 -0.24024,0.88086 -0.39844,0.16016 -0.80078,0.1582 -2.64062,1.12109 h -0.79883 l -2,0.87891 -2.16016,0.88086 -0.40039,0.24023 -0.32031,0.40039 -0.24023,-0.0801 0.0801,-0.80078 -0.0801,-0.8789 -0.63868,0.23828 -0.80078,0.48047 -1.19922,0.96093 -0.7207,0.32032 -0.96094,0.31836 0.0801,0.7207 0.24024,0.32031 -0.48047,0.32031 -1.03907,0.4004 -1.75976,0.23828 -1.67969,0.0801 0.24024,-1.11914 -0.0801,-0.40039 -0.24024,-0.32032 -0.16015,-1.27929 -0.16016,-0.0801 -0.16016,0.24023 -0.48046,0.40039 -0.95899,0.39844 -1.04101,0.32031 -0.95899,-0.24023 -0.80078,-0.0801 -0.24023,0.0801 -0.40039,0.80078 -0.39844,0.16016 -0.16016,-0.4004 -0.40039,0.0801 -1.91992,-0.32031 -0.2402,-0.47852 v -0.7207 l -0.40039,-0.7207 -0.79882,0.40039 -1.20118,0.16015 -1.67968,-0.0801 -3.11914,0.16016 -1.04102,3.35937 -2.24023,-0.24023 -1.83985,0.32031 -2.40039,0.24024 -1.2793,-0.32032 h -1.04101 l -0.47852,-0.16015 -0.96093,0.24023 -3.59961,-1.75976 -0.80078,0.0801 h -1.51954 l -2.24023,0.32031 -0.16016,-0.48047 -0.63867,0.48047 -2.08008,0.24023 -3.52148,0.71875 -0.31836,-0.39843 -1.75977,0.0801 -0.7207,0.63867 -1.83984,-0.16016 -0.56055,0.0801 -2.48047,1.20117 h -0.55859 l -0.32031,0.47852 0.24023,1.04102 -0.0801,0.40039 0.5586,0.40039 -0.31836,0.39843 -0.56055,0.16016 -2.16016,0.88086 -0.96093,-0.48047 -0.71875,0.80078 -1.83985,0.95899 v 0.40039 l 0.5586,0.24023 -0.71875,0.95899 v 0.40039 l -0.80079,-0.24024 -3.03906,0.88086 -0.88086,-0.32031 H 509.28 l -0.64063,-0.32031 -0.56055,-0.0801 -0.71875,0.0801 -0.32031,0.48047 h -0.7207 l -1.03906,0.0801 -0.80079,0.24023 -0.56054,-0.0801 -1.19922,0.48047 -0.64063,-0.16016 -0.55859,0.16016 -3.12109,0.23828 -0.56055,-0.63867 -1.43945,-0.32031 -0.87891,-0.4004 -0.64063,-0.7207 -1.19921,-2 -0.56055,-0.47851 -0.7207,-0.0801 -1.83985,0.0801 -3.91992,0.24023 -1.35937,-1.44141 -0.96094,-0.63867 -2.79883,-1.52148 -1.28125,-1.75977 -0.79883,-0.63867 -0.32031,-3.04102 0.24023,-0.48046 0.24024,-1.03907 v -1.20117 l -0.32031,-0.47851 -0.48047,0.16015 -0.24024,-0.48047 h -0.40039 l -0.95898,0.24024 -1.43946,-0.24024 -0.48046,-0.48047 0.16015,-0.24023 -0.0801,-0.24023 -0.40039,0.16015 -1.51953,-0.55859 -1.04101,-0.48047 -0.87891,-0.7207 -0.56055,-0.48047 0.16016,-0.16016 -0.24024,-0.31836 -0.80078,-0.32031 -0.31836,-0.64063 -0.88086,-0.32031 -2.16015,0.0801 -1.03902,-0.5586 -0.72071,-0.56055 -0.40039,-0.0801 -0.7207,0.16016 -0.87891,-0.0801 -1.04101,-0.96094 -0.15821,0.16016 -0.88086,0.24023 -0.7207,0.40039 -0.39844,0.48047 -0.32031,0.5586 -0.0801,0.56054 0.32032,0.88086 0.55859,0.39844 1.20117,0.56055 0.32031,0.0801 0.47852,0.40039 2,0.64062 0.32031,0.31836 0.72071,1.28125 0.32031,0.24024 1.27929,0.0801 0.56055,0.0801 0.32031,0.63867 -0.24023,1.91992 0.24023,1.28125 -0.16015,0.63867 -0.96094,0.88086 -1.03906,0.48047 0.23828,0.32031 -0.47852,1.11914 -0.40039,0.40039 -0.56054,0.4004 -0.24024,0.63867 -0.32031,0.32031 -0.0781,0.56055 -0.96093,1.35937 v 0.56055 l 0.32031,1.03906 -0.32031,-0.24023 -0.48047,0.0801 -0.5586,-0.0801 -0.96093,0.40039 -0.88086,0.16015 -1.35938,0.88086 -1.27929,-0.40039 h -0.56055 l -1.11914,0.32031 -1.68164,0.24024 -0.71875,-0.0801 -0.56055,-0.32031 h -0.48047 l -1.19922,0.8789 -1.04101,1.60157 -3.11914,0.0801 -0.64063,-0.24024 -0.32031,-0.32031 h -0.39844 l -0.96094,0.56055 -0.71875,1.03906 -0.56054,0.56054 -1.67969,0.24024 -0.48047,0.55859 -0.40039,0.48047 -0.16016,0.7207 -0.0801,0.63868 0.0801,1.12109 -0.16015,0.40039 -0.48047,0.16016 -1.35939,0.16015 h -0.79882 l -0.0801,0.0781 -0.48047,0.16016 -0.40039,0.40039 -0.24024,0.56055 -1.19921,0.7207 -0.48047,0.8789 -0.48045,1.20117 -0.63867,0.1582 -0.48047,0.24024 -0.64063,0.48047 -0.48047,0.96094 -0.8789,0.16015 -3.36133,-0.24023 -2.23828,-0.32032 -0.96094,0.0801 -1.67969,0.5586 -0.80078,0.40039 -1.03906,0.7207 -0.88086,0.87891 -0.32031,0.0801 -1.11914,-0.0801 -2.40039,2.32031 -0.87891,1.20117 -0.88086,2.32032 -0.7207,2.47851 -0.47852,0.64063 -1.20117,1.51953 -3.11914,3.20117 -0.16016,0.16016 -0.88086,1.11914 -0.16015,0.48046 0.16015,0.5586 0.72071,0.16015 1.11914,0.64063 1.12109,1.04102 0.79883,0.47851 1.36133,1.36133 -1.20117,0.71875 -0.5586,0.48047 -0.32031,0.0801 -2.24024,-0.24024 -1.75976,0.16016 -1.04102,-0.48047 -0.55859,0.56055 -0.48047,1.43945 -0.24023,1.12109 0.0801,0.71875 0.16016,0.80079 0.56055,0.95898 1.19922,0.96094 -0.24024,0.40039 -0.16015,0.48047 0.16015,0.1582 -0.40039,0.48047 -0.32031,0.16016 -0.0781,0.96093 -0.56054,0.71875 -0.16016,0.40039 0.0801,1.59961 1.75976,1.60157 1.03907,0.79882 -0.47852,0.96094 -0.0801,0.47852 4.32032,0.7207 1.51953,1.91992 -0.0801,0.56055 -0.88086,0.71875 -1.11914,0.24023 -0.24024,0.16016 0.24024,0.40039 v 0.40039 l -0.48047,0.16016 -0.32031,0.40039 0.16015,0.79883 -0.64062,0.40039 -0.1582,0.56054 1.51953,2.39843 0.24023,0.64063 -0.16015,0.48047 -0.64063,0.80078 -0.56055,0.55859 -0.16015,0.32032 -1.11914,-0.0801 -0.88086,-0.48047 -1.11914,-0.0801 -0.96094,0.0801 -1.19922,0.32031 -0.40039,1.1211 1.04102,0.55859 -0.16016,1.44141 0.48047,0.71875 -0.40039,0.24023 0.16015,0.64063 -1.83984,-0.0801 -0.96094,-0.40039 -1.03906,-0.32032 -1.04102,-0.71875 -0.79882,-1.04101 0.0801,0.7207 -0.7207,0.63867 -0.24023,1.1211 -1.19922,1.03906 -0.88086,0.40039 1.11914,1.12109 0.24023,1.11914 0.16016,0.72071 -0.47852,0.63867 -0.16015,0.48047 0.39844,0.48047 0.80078,0.56054 -0.48047,0.87891 -0.24024,0.80078 -1.35937,2.08008 -0.64063,0.55859 -0.47851,0.80078 -0.16016,0.72071 -0.88086,0.39843 -1.11914,-0.31835 -1.04101,-0.0801 -0.48047,0.24023 -0.39844,0.39844 -0.48047,0.32031 -0.16016,1.36133 1.11915,0.79883 0.80078,0.7207 0.64062,0.95899 3.19922,1.36132 1.04102,0.39844 1.03906,0.16016 v 0.32031 l 0.40039,0.48047 -0.24024,0.95898 -0.96093,-0.23828 -0.87898,0.0801 -0.80078,2.63867 h -1.2793 v -0.24023 l -0.48047,-0.0801 0.16016,-0.63867 v -0.48047 l -1.11914,-0.16016 v -0.80078 l -0.0801,-0.23826 0.0801,-0.7207 0.79883,-1.51953 -0.79883,-0.56055 -1.83984,0.7207 -0.24024,0.63867 -1.36133,0.24024 -0.55859,0.32031 -0.48047,0.24024 -0.40039,0.64062 -0.80078,0.31836 -0.63867,0.48047 -0.40039,0.64062 -0.72071,0.32032 -0.47851,0.95898 -1.1211,0.96094 -0.71875,3.03906 0.15821,0.56055 0.40039,1.03906 v 0.80078 l -0.0801,0.40039 -1.43945,1.75977 -0.64063,2.40039 -0.39844,0.95898 -1.04101,0.72071 -0.24024,0.40039 -0.16015,0.47851 0.16015,0.40039 0.80079,0.88086 v 1.35938 l 0.16015,1.12109 0.47852,1.19922 0.40039,1.43945 1.28125,0.16016 0.63867,0.32031 0.48047,0.48047 0.16015,0.95898 0.32032,0.72071 0.95898,1.59961 0.96094,0.96093 0.56055,0.23828 -0.0801,2 0.39844,1.36133 v 0.40039 l -0.39844,0.47852 0.0801,0.56055 0.95898,0.32031 0.32031,0.40039 -0.16015,0.79883 -1.11914,0.80078 -0.72071,0.40039 -1.43945,-0.56055 -0.16016,0.40039 -5.04101,-1.91992 -1.83985,-0.32031 -1.19921,-0.80078 -1.04102,-0.39844 -1.75977,-0.40039 -0.71875,-0.48047 -0.64062,-0.0801 -0.7207,0.0801 -0.0801,0.95898 0.16015,1.04102 -0.64062,1.67969 -0.63867,1.04101 -0.72071,0.63868 0.16016,0.32031 0.56055,0.32031 -0.80076,0.88086 v 0.87891 l 0.56054,1.27929 1.75977,0.72071 0.24023,0.7207 v 0.55859 l -0.40039,0.64063 -0.48047,1.51953 -0.63867,-0.55859 -0.64062,-0.32032 -1.11914,-0.24023 -0.72071,0.16016 -1.27929,1.35937 -0.88086,-0.24023 -0.80078,0.88086 -0.5586,1.11914 0.0801,1.28125 0.55859,2.08007 h -0.47851 l -0.0801,0.39844 0.0801,0.64063 -0.96094,1.75976 0.48047,1.20117 -0.16016,0.39844 -0.64062,0.48047 -0.40039,0.88086 -0.2383,0.40039 v 0.63867 l -0.0801,0.80078 -0.64063,0.56055 -0.16015,2.23828 -0.32032,0.48047 -0.8789,0.48047 -0.80078,0.16016 -0.80078,-0.0801 h -1.03907 l -1.04101,0.64062 -0.5586,0.79883 -1.36132,1.20117 -0.47852,0.5586 -1.75977,0.56054 -1.36132,-0.88086 -1.67969,0.48047 -0.40039,-0.24023 -0.40039,-0.16016 -0.87891,0.0801 -1.20117,-0.16016 -0.87891,-0.39843 -0.56054,-0.56055 -1.03907,-0.16016 -0.56054,-0.40039 -0.80078,0.16016 -0.5586,-0.32031 -0.40039,-0.32032 -0.48047,-0.23828 0.0801,-0.64062 -1.35937,-0.88086 -0.32032,-0.16016 -0.7207,-0.71875 -0.32031,-0.16015 -0.23828,0.0801 -0.80079,-0.24023 -0.80078,-0.80078 -1.11914,0.80078 -0.48047,-1.19922 -1.03906,0.1582 -0.80078,0.0801 -0.16016,-0.71875 -0.48046,-1.51953 -0.47852,-0.16016 -0.88086,0.63868 -0.80078,0.88086 -0.63867,0.24023 h -1.1211 l -0.79882,0.32031 -0.88086,-0.32031 -0.79883,0.0801 -0.72071,-0.32031 -0.88085,0.40039 -0.95899,0.71875 -1.04101,0.56054 -0.71875,-0.24023 -0.56055,-1.03906 -0.64063,0.55859 -0.47851,-0.24024 h -0.64063 l -0.96093,-0.1582 0.0801,-0.56054 -0.8789,-0.0801 -3.43946,0.64062 -0.64062,0.23828 -0.40039,0.40039 -1.03906,0.32032 -0.48047,0.64062 -0.32032,0.79883 -0.88085,-0.24024 -3.03907,-2.1582 -0.64062,-0.16015 -2.08011,0.24018 -0.95898,-0.16016 h -0.80079 l -1.19921,0.39844 -0.72071,0.0801 -0.64062,0.24023 -0.79883,0.0801 -0.24024,-0.56055 -0.88085,-0.1582 -2.79883,0.95899 -2,-0.16016 -1.28125,0.32031 -0.31836,0.80078 0.16015,0.79883 0.47852,0.56055 0.80078,0.40039 0.40039,0.47851 -0.32031,0.48047 -0.7207,0.48047 -0.32032,0.64063 0.16016,0.63867 0.80078,0.56055 -0.24023,0.56054 -0.88086,0.71875 -0.47852,0.56055 -0.7207,1.28121 -0.48047,0.23828 h -0.87891 l -0.7207,0.48047 v 0.88086 l 1.35938,2.40039 0.24023,0.95898 -1.67969,2.32032 -0.0801,0.7207 -0.40039,0.79883 -1.19922,1.04101 -1.5996,1.2793 -0.48047,0.95898 -1.43946,1.52149 -1.67968,3.11914 -0.88086,0.80078 -1.19922,0.71875 -1.20117,0.24024 -0.87891,0.32031 -0.7207,0.96094 -1.2793,0.39843 -1.20117,0.56055 -0.95899,0.7207 -0.32031,0.48047 0.24024,2.47852 -0.0801,0.80078 -0.32032,1.43945 v 0.72071 l -0.48046,1.11914 -1.19922,0.48046 -0.56055,0.4004 -0.48047,0.48046 0.32031,0.63868 v 0.32031 l -0.40039,0.48047 -0.71875,0.32031 -0.56054,-0.0801 -0.48047,-0.24023 h -0.48047 l -0.1582,-0.40039 -0.40039,-0.32032 -1.67969,0.48047 -0.88086,-0.0801 -0.24024,-0.40039 -1.03906,-0.95898 0.24024,-0.7207 v -0.56055 l -0.64063,-0.63867 0.0801,-0.64063 -0.16016,-0.56054 -2.32031,-0.87891 -0.7207,0.32031 -1.11914,0.39844 -1.11914,-0.31836 -0.32032,-0.40039 v -0.80078 l 0.40041,-0.79879 -1.60156,-0.16016 -0.63867,2 -0.56055,2.31836 -0.32031,1.04102 0.16016,1.59961 -0.32032,0.96094 0.32032,2.79882 0.40039,0.88086 -0.24024,1.35938 -0.24023,2.56055 0.7207,1.43945 0.63867,2.24023 -0.79882,0.40039 0.95898,1.35938 -0.32031,0.64062 -0.15821,1.2793 0.31836,0.48047 0.72071,2.08008 0.32031,0.40039 0.79883,0.39843 0.56054,1.04102 0.0801,0.32031 -0.48047,1.2793 0.24024,1.35937 0.48047,1.20118 0.0801,0.7207 -0.24023,0.47852 -1.03906,0.64062 -0.16016,0.48047 0.16016,0.24023 -0.32031,0.71875 -0.96094,0.24024 -0.32031,0.40039 -0.79883,0.48047 -0.0801,0.39843 -0.0801,0.72071 0.64063,1.20117 -0.24024,0.71875 -0.40039,0.56055 -0.64062,0.32031 -0.56055,0.0801 v 0.47851 l -0.1582,0.16016 h -0.24024 l -0.0801,0.32031 0.47852,0.56055 1.04101,0.80078 0.72071,0.63867 0.8789,1.83985 1.20118,0.88086 1.35937,0.24023 1.35938,0.47851 0.0801,0.32032 v 0.7207 l 0.32032,2.32031 0.24023,0.87891 -0.0801,0.64062 0.56055,0.64063 v 0.71875 l -0.24023,0.88086 1.19921,0.0801 1.1211,-1.75977 0.39844,-0.88086 0.80078,0.88086 0.40039,1.11914 v 1.43945 l -0.24024,0.88086 0.95899,0.24024 0.32031,0.56055 0.16016,0.71875 -0.79883,0.96093 0.16015,1.03907 -0.80078,0.48046 -0.96093,0.4004 0.32031,1.75976 -0.24024,0.7207 v 0.63868 l -0.8789,1.52148 -0.0801,0.47852 -0.56055,0.64062 v 1.11914 l -0.48047,0.88086 -0.0801,0.56055 0.64062,0.47851 0.16016,0.32032 v 0.56054 l 0.88086,0.32032 1.11914,0.64062 0.7207,0.87891 0.24023,1.59961 0.5586,0.80078 0.0801,0.8789 -0.16016,0.56055 -0.87891,0.7207 -1.04101,0.32032 -0.87891,0.79882 v 0.96094 l 1.11914,1.75977 h -0.7207 l -0.55859,0.24023 0.40039,1.51953 0.0801,0.80078 0.5586,0.39844 0.16015,0.56055 -0.0801,0.64062 0.0801,0.71875 -0.71875,0.96094 -0.24023,1.91992 -1.91992,1.43946 -0.88086,0.80078 0.48047,1.43945 -1.04102,0.56055 0.40039,0.79882 0.56055,0.56055 0.16016,0.80078 0.32031,0.95899 0.23828,1.36133 0.32031,2.39843 -0.32031,1.91992 -0.23828,1.1211 0.0801,0.56055 0.55859,1.35937 1.28125,0.32031 1.35937,0.0801 0.95899,0.24024 0.88086,0.55859 1.19922,0.48047 h 1.20117 l 0.87891,0.16015 0.7207,0.32032 0.80078,-0.0801 0.63867,0.24023 0.7207,0.71875 1.03907,0.72071 1.52148,0.64062 2.71875,0.32031 0.96094,-0.16015 h 1.43945 l 4,1.59961 0.32031,0.40039 0.48047,0.71875 1.91993,0.56054 2,-0.16015 0.55859,-0.64063 0.24023,-0.47851 0.32032,-0.24024 1.04101,-0.32031 0.5586,0.24024 0.7207,0.0801 1.04101,-0.24023 3.75977,0.48047 0.71875,0.16015 0.7207,0.23828 h 0.64063 l 0.31836,-0.0781 0.88086,0.39844 0.40039,0.80078 -0.16016,4.56055 0.24024,0.24023 -0.0801,0.63867 -0.56055,0.72071 v 0.8789 l -0.24023,1.04102 0.24023,0.8789 -0.7207,0.56055 0.16015,0.7207 -0.16015,0.87891 0.32031,0.96094 0.40039,0.8789 0.40039,1.04102 1.03906,-0.0801 -0.47851,1.11914 -0.40039,1.68164 -0.72071,0.47852 0.16016,0.80078 -0.40039,0.8789 -0.55859,0.48047 -0.96094,0.16016 -0.88086,0.24023 -1.75977,-0.16015 -1.11914,0.16015 -0.7207,-0.24023 h -1.03906 l -0.56055,1.43945 -0.64062,0.72071 -0.87891,0.56054 -0.24024,0.95899 -0.56054,0.80078 -0.48047,0.40039 -1.35938,0.16016 -0.56054,0.16015 -0.5586,0.31836 -0.0801,0.7207 -0.4004,0.24024 -1.19921,0.24023 -0.48047,-0.16015 -0.32032,-0.40039 -0.0801,-0.48047 0.16015,-0.63867 -0.16015,-0.40039 v -0.56055 l 0.16015,-0.56055 -0.96093,-0.63867 0.16015,-0.40039 -0.16015,-0.24024 0.24023,-2 -0.32031,0.16016 0.0801,-0.64062 0.32031,-0.5586 0.56054,-0.56054 0.56055,-0.24024 -0.24023,-0.24023 0.56054,-0.72071 0.47852,-0.23828 0.24023,-0.48047 0.72071,-1.04101 c -0.22447,-0.28983 0.67124,-1.0357 0.39844,-1.26953 -0.61872,-0.22093 -1.19894,0.55003 -1.9004,-0.17774 -0.70144,-0.72776 -1.28167,-0.5293 -1.90039,-0.52929 -0.61872,0 -1.8789,0.85742 -2.35742,0.21679 -0.47852,-0.64062 -1.76046,-0.23968 -2.68164,-0.4375 -0.92113,-0.19782 -0.70626,-0.8835 -1.01562,-1.28125 -0.30936,-0.39774 -0.66356,-0.61907 -0.75196,-1.32617 -0.0884,-0.70715 -1.36884,-0.61888 -1.94336,-0.83984 -0.57453,-0.22098 -0.92869,-1.10447 -1.10547,-1.28125 -0.17678,-0.17678 -2.29729,0.22115 -2.91601,0.48632 -0.61871,0.26516 -1.37102,-0.0447 -2.07813,-0.26562 -0.70711,-0.22097 -2.82881,0.30936 -3.22656,0.35352 -0.39774,0.0442 -1.72258,0.6618 -2.42969,1.23632 -0.7071,0.57453 -1.1938,1.10543 -1.45898,1.45899 -0.26516,0.35355 -0.47288,1.01691 -1.54687,1.50195 -1.07402,0.48504 -0.84005,1.5483 -1.32618,1.99024 -0.48615,0.44194 -1.27929,0.64454 -1.43945,1.52539 -0.16016,0.88087 -0.63642,0.63936 -1.21094,1.03711 -0.57452,0.39775 -1.02929,1.36132 -1.02929,1.36132 l -1.51954,-1.03906 -0.24023,-0.24023 -0.48047,-1.43946 -0.40039,-0.88086 -2.48047,-2.95898 -0.32031,-1.91992 -1.51953,-2.40039 -1.67969,-3.35938 -0.0801,-1.60156 -0.8789,-1.67969 h -0.40039 l -0.72071,-0.56055 -2.40039,-2.39843 -0.32031,-0.32031 -0.79883,0.32031 -0.56049,0.32024 h -0.64062 l -0.47852,0.31836 -0.80078,1.28125 -1.27929,-0.16016 -1.20118,0.0801 -0.71875,0.32031 -0.32031,-0.88086 -1.20117,-1.27929 v -0.32031 l -1.2793,-0.48047 -0.8789,-0.0801 -2.08008,-1.19922 h -0.40039 l -0.88086,0.32031 -0.63867,-0.0801 -1.28125,-0.88086 -0.40039,-0.40039 -0.5586,-0.32031 -0.32031,-0.39844 -0.24024,-0.7207 -0.48046,-0.24023 -0.79883,0.24023 -0.88086,-1.43945 -0.80078,-0.48047 -1.43946,-0.24024 -1.11914,1.83985 -1.28125,0.80078 -0.95898,0.71875 0.0801,0.80078 -0.0801,0.16016 -0.80078,0.64062 -1.19922,-1.20117 0.0801,-0.87891 -0.0801,-0.40039 v -0.80078 l -0.24024,-0.56055 -0.32031,-0.47851 -0.40039,-0.32031 -0.71875,-0.24024 -0.64062,0.24024 h -0.40039 l -0.71875,-0.56055 -0.40039,-0.64063 -0.64063,-1.43945 -0.56055,-0.79883 -1.35937,-1.28125 -0.95899,-0.71875 -1.36132,-1.28125 -0.32032,-0.0801 -0.55859,0.16015 -0.40039,0.24024 -0.96094,1.12114 -0.47851,0.39844 -0.80079,1.60156 -0.64062,0.87891 -1.11914,0.96093 -0.88086,1.35938 -0.55859,0.64062 -0.56055,0.16016 -0.56055,-0.0801 -0.56054,-0.24023 -0.31836,-0.24024 -0.88086,1.2793 v 0.0801 l -0.0801,0.16015 -0.16016,0.64063 -0.56055,0.63867 -0.16015,0.88086 -0.15821,0.88086 -0.24023,0.71875 -0.40039,0.80078 -0.0801,0.16016 -0.0801,0.71875 -0.0801,0.88086 -0.40039,1.51953 -0.79883,1.91992 -0.40039,0.64063 0.24023,0.56054 0.87891,0.47852 0.32031,0.32031 -0.40039,2 v 0.96094 l 0.48047,0.8789 1.11914,1.04102 1.28125,0.79883 3.59961,1.75976 3.2793,1.20118 1.83984,0.48046 2.56055,1.2793 -0.32032,2.32031 0.48047,1.43946 1.04102,1.43945 1.27929,2.08008 0.88086,0.48047 0.63868,-0.32032 0.80078,-0.48047 h 0.48047 l 0.63867,0.24024 2,0.40039 0.56054,0.16016 0.72071,-0.0801 0.79883,0.0801 0.40039,0.32031 0.48047,0.16016 0.48046,-0.4004 0.95899,1.04102 -0.0801,0.47852 v 0.48046 l -0.48047,1.75977 0.24024,0.96094 -1.35938,1.27929 -0.24023,0.64063 v 1.03906 l -0.24024,0.72071 0.16016,1.19921 -0.24024,0.64063 -0.48046,0.56055 0.0801,1.35937 1.04102,2.95898 0.0801,0.80079 -0.16016,1.12109 0.24024,0.47852 -0.24024,0.7207 0.16016,0.7207 0.40039,0.79883 0.0801,0.88086 -0.40039,1.03906 -0.4004,0.64063 v 1.11914 l -0.96093,0.48047 -0.39844,0.88086 0.0801,0.95898 0.39844,0.7207 0.56054,0.79883 0.0801,0.40039 0.16016,0.32031 -0.24024,0.88086 -0.24023,0.71875 0.32031,0.96094 0.40039,0.71875 -0.48047,0.88086 -0.16015,0.7207 -1.03907,0.47852 -0.32031,0.88086 -0.96094,1.59961 4.64063,-0.24024 0.88086,-0.95898 0.47851,-0.56055 2.16016,0.64063 0.48047,0.0801 -0.16016,1.91992 1.04102,0.55859 0.31836,2 -0.23828,0.96094 -0.40039,0.56055 1.27929,1.11914 v 1.12107 l 1.51953,2.39844 1.83985,-0.16016 3.28125,-0.55859 h 0.79883 0.40039 l 1.12109,1.27929 0.39844,0.24024 0.0801,0.64062 -0.71875,0.79883 -0.48047,3.59961 -0.88086,1.36133 -1.91992,-0.56055 h -0.79883 l -0.40039,0.56055 -0.0801,0.47851 0.16015,0.80079 0.0801,0.88086 0.87891,0.47851 0.96094,0.16016 0.7207,0.64062 0.71875,0.0801 0.48047,0.40039 0.56055,0.16016 0.32031,0.0801 0.39844,1.51953 -1.19922,0.40039 -0.48047,1.75976 v 0.79883 l -0.16016,0.64063 -1.2793,1.12109 -0.40039,0.79883 -0.40039,1.20117 -0.0801,0.87891 0.0801,2.40039 v 1.91992 l 0.24024,0.95898 0.96094,0.88086 -0.72071,1.43946 0.32031,0.48046 0.80079,0.72071 1.03906,0.32031 -0.48047,0.95898 0.64062,0.4004 0.0801,0.48046 -0.48047,0.16016 0.24024,0.39844 0.64062,0.48047 0.0801,0.32031 -0.24023,0.48047 -0.24024,0.24023 -0.40039,-0.16015 -0.48047,-0.32032 -0.47851,0.24024 0.16015,0.55859 0.87891,0.32031 0.32031,0.32032 -0.40039,0.32031 -0.24023,-0.16016 -0.48047,0.0801 -0.1582,0.48047 0.39843,0.63867 -0.16015,0.24024 -0.63867,0.32031 -0.24024,0.40039 0.64063,1.43945 0.63867,0.24024 0.80078,-1.51953 1.83984,1.03906 1.03907,-0.0801 0.24023,0.16016 -0.55859,1.83984 0.31836,0.16016 -0.16016,0.7207 0.16016,0.24023 h 1.36132 l 0.16016,0.16016 -0.0801,0.63867 -0.32031,0.88086 -1.43945,1.2793 -0.40039,0.96094 3.51953,4.8789 0.32031,0.80078 0.24023,2.48047 1.4668,8.98438 c 0.0534,0.613 -0.34007,0.64319 -0.83789,0.68359 -1.8125,-0.31249 -3.125,-0.56249 -3.5625,0 -0.4375,0.56251 -1.125,0.99999 -2.3125,1.1875 -1.18744,0.18749 -0.625,1.625 -1.0625,2.25 -0.4375,0.625 -2.09388,0.23626 -1.8125,1.125 0.28136,0.88873 -0.11909,1.04688 0.041,2.64844 0.16015,1.60156 0.0294,2.40632 0.40039,3.4414 0.35946,1.00302 -0.71142,2.21534 -0.7793,2.29102 0.0366,-0.0249 0.14222,0.036 0.45898,0.82812 0.44127,1.10345 -1.04101,1.92189 -1.28125,2.56055 -0.24022,0.63867 -0.56062,1.84006 -1.59961,1.75977 l -1.03906,-0.0801 -0.24023,0.7207 0.0801,0.87891 -1.83985,-0.40039 -1.04101,0.32031 -1.75977,0.24023 -0.87891,-0.24023 -0.40039,0.24023 0.71875,1.11914 -0.24023,1.76172 -0.55859,1.2793 -0.24024,1.2793 -0.56055,-0.0801 -0.79882,-0.55859 -0.80079,-0.0801 h -0.24023 l -0.16016,0.71875 -0.79882,0.0801 -0.24024,-0.71875 -1.20117,0.0801 -0.71875,-0.24023 -2.24023,0.63867 -0.72071,0.32031 -1.51953,1.28125 -0.7207,0.31836 -2,0.32032 -0.95899,0.56054 -0.48047,0.40039 -0.88085,0.48047 -0.23829,0.39844 0.71875,1.60156 -1.11914,0.79883 -0.56054,0.64063 -0.16016,1.19921 v 0.72071 l 0.32031,0.95898 -0.16015,0.48047 -1.43945,-0.48047 -2.48047,-0.39844 -0.80078,-0.64062 -0.5586,-0.64063 -1.20117,-0.71875 -0.24023,-0.24023 -0.95899,0.47851 0.56055,0.80079 -0.0801,0.32031 -0.0801,0.48047 -0.0801,0.71875 -0.0801,0.88086 0.16015,0.40039 1.43946,0.16015 1.59961,0.79883 1.59961,1.20117 0.48046,0.87891 0.40039,0.24023 0.64063,0.32032 1.27929,0.32031 0.72071,0.32031 -1.04102,1.43946 -0.32031,1.11914 0.24023,0.40039 0.16016,0.48047 -0.0801,0.0801 -0.32031,0.32032 -0.8789,-0.24024 -0.80079,-0.0801 -0.56054,0.0801 h -0.63867 l -0.48047,-0.16015 -0.40039,-0.32032 -0.56055,-0.32031 -0.95899,0.88086 -0.0801,0.95898 -0.32031,0.80079 0.0801,0.64062 0.0801,0.1582 0.16016,0.48047 -0.40039,0.48047 h -0.0801 l -1.67969,-0.0801 -0.48047,0.32032 -0.40039,0.64062 -0.23828,0.1582 -0.32031,0.32032 h -0.32032 -0.64062 l -0.63867,0.56054 -0.64063,0.72071 -0.48047,0.79882 0.0801,1.44141 -0.64062,0.95898 -1.91992,1.51954 -3.83985,3.5996 -3.75976,3.1211 -0.64063,0.40039 -0.23828,1.43945 -0.56055,1.67969 -1.12109,3.75977 -0.0801,0.48046 -0.1582,0.80079 -0.96094,0.16015 -2.40048,0.08 h -2.24024 l -2.32031,0.31836 -2.79883,0.16016 -1.17578,0.20898 c 0.28126,0.4375 1.43753,1.25 1.40625,1.5625 -0.0312,0.3125 -0.4781,0.52734 -0.98633,0.52734 -0.50824,0 -1.28012,0.39633 -1.74414,0.6836 -0.46404,0.28725 -2.0118,-0.0659 -2.07812,0.26562 -0.0662,0.33146 -0.26493,0.95011 -0.99414,0.70703 -0.7292,-0.24306 -2.23277,-0.48554 -2.43165,-0.0215 -0.19886,0.46404 -1.39131,2.03233 -1.78906,2.27539 -0.39775,0.24307 -1.41437,1.85704 -1.96679,2.01172 -0.55244,0.15468 -1.61371,0.33084 -2.23243,0.375 -0.61872,0.0442 -1.87753,0.13224 -2.20898,0.92773 -0.33146,0.7955 0.40036,1.43555 0.43164,2.2793 0.0312,0.84375 -0.54883,1.21287 -0.75,1.625 -0.20118,0.41213 -0.53125,1.18751 -0.84375,1.53125 -0.3125,0.34375 -0.46874,1.66408 -0.79688,2.08203 -0.32812,0.41795 -0.89065,0.57422 -0.85937,0.94922 0.0312,0.375 0.12493,1.71875 0.65625,1.84375 0.53126,0.125 1.03126,0.21875 1.3125,0.90625 0.2813,0.6875 0.37888,1.35939 0.33008,1.82031 -0.0488,0.46092 -0.51759,1.17969 -0.86133,1.33594 -0.34376,0.15625 -0.68753,0.125 -0.65625,0.9375 0.0312,0.8125 0.65625,1.65625 0.65625,2.09375 0,0.4375 -0.0625,2.5625 -0.34375,2.96875 -0.28124,0.40625 -0.96875,0.5625 -1.15625,1.25 -0.1875,0.6875 -0.45702,1.75389 -0.83789,1.81445 -0.38087,0.0606 -1.19336,0.74805 -1.59961,1.37305 -0.40626,0.625 -0.51563,0.26172 -0.32031,1.50586 0.19531,1.24414 -0.27338,2.52539 -0.0859,3.15039 0.18751,0.625 -0.043,2.75195 -0.21875,3.28125 -0.17578,0.5293 -0.40627,1.0625 -0.0937,1.625 0.31249,0.5625 0.39453,1.0918 0.15625,1.4375 -0.23828,0.3457 -0.62891,0.12504 -0.79883,0.90625 -0.16994,0.78122 -0.85742,0.96875 -1.38867,1.15625 -0.53126,0.1875 -1.03126,0.125 -1.125,0.90625 -0.0937,0.78125 -0.0312,1.40624 -0.21875,1.6875 -0.18751,0.28125 -1.28907,0.82425 -0.70703,1.13086 0.582,0.30661 0.42578,1.18164 0.51953,1.61914 0.0937,0.4375 -0.40622,1.09374 -0.4375,1.5 -0.0312,0.40625 -0.21093,1.46489 -0.40235,1.91992 -0.1914,0.45503 -0.53515,0.98633 -1.03515,0.83008 -0.5,-0.15626 -1.37501,-0.84375 -1.8125,-1.40625 -0.43751,-0.5625 -1.375,-0.71875 -2.125,-0.90625 -0.75,-0.1875 -1.12498,2.40625 -1.0625,2.84375 0.0626,0.4375 0.15624,1.375 0.59375,1.65625 0.43749,0.28126 0.6875,1.1875 0.4375,1.59375 -0.25,0.40625 -1.375,1.78125 -1.5,2 -0.12494,0.21875 -0.37498,0.65625 -0.3125,1.03125 0.0626,0.375 0.40625,1 0.40625,1 0,0 0.54289,-0.47852 1.25,-0.47852 0.70711,0 1.64117,0.3969 2.47461,0.53125 0.83344,0.13435 0.70721,-1.59076 1.19336,-2.12109 0.48613,-0.53033 0.44106,2e-4 1.36914,0.48633 0.92808,0.48614 2.03412,-0.26655 2.56445,-0.79688 0.53032,-0.53032 1.45822,-0.53024 1.76758,-0.70703 0.30937,-0.17677 0.044,0.84 0.2207,1.67969 0.17678,0.83969 0.48556,1.37079 0.79492,1.94531 0.30936,0.57454 1.94494,-0.70703 3.22657,-0.70703 1.28164,0 1.36906,-1.06131 2.07617,-0.75195 0.7071,0.30935 1.81212,-0.61868 3.09375,-0.35352 1.28164,0.26518 1.32663,-0.70767 1.59179,-1.45898 0.26517,-0.7513 2.12147,-0.13258 3.09375,0 0.97227,0.13258 1.81147,1.50311 3.05469,1.92969 1.24324,0.42656 0.79002,-1.61961 0.9668,-1.88477 0.17677,-0.26517 2.07681,-0.61893 2.87305,-1.1543 0.79624,-0.53536 0.0434,-2.42524 0.30859,-2.86718 0.26516,-0.44194 1.23717,-1.72434 2.47461,-1.94532 1.23744,-0.22097 2.41566,0.0923 2.96094,-0.66211 0.54528,-0.75436 0.17669,-1.54641 0.70703,-1.28125 0.53033,0.26517 -0.0445,1.01556 0.2207,1.72266 0.26516,0.70711 0.92816,1.76812 1.54688,1.32617 0.61872,-0.44193 1.54776,-0.22016 2.43164,-0.66211 0.88388,-0.44194 3.13758,-2.25505 4.02148,-2.91797 0.88388,-0.66291 0.61807,-0.70727 1.50195,-0.83984 0.88388,-0.13258 2.06446,-2.11328 2.06446,-2.11328 0,0 0.97431,-1.49016 1.54883,-2.19727 0.57453,-0.70711 3.36953,-1.61082 4.34179,-1.69922 0.97228,-0.0884 3.71252,-0.7956 4.99414,-1.19335 1.28163,-0.39775 1.76746,-1.28168 2.82813,-1.9004 1.06065,-0.61872 1.98938,-0.48655 3.00586,-0.61914 1.01646,-0.13257 4.32245,-1.11035 4.50781,-1.58984 0.18536,-0.47948 0.79488,-1.2392 1.14844,-1.76953 0.35356,-0.53034 1.768,-0.92797 2.38672,-1.06055 0.61872,-0.13258 1.89962,-1.23751 2.20898,-1.54687 0.30936,-0.30936 2.12222,-1.32507 2.55078,-1.54493 0.42858,-0.21987 2.22308,-0.70818 3.51953,-0.31835 1.29644,0.38983 1.11888,-0.80111 1.35938,-1.44141 0.24022,-0.64062 0.96094,0.64062 0.96094,0.64062 l 1.11914,0.4004 0.40039,0.56054 1.91992,-0.16015 0.32031,-0.40039 0.40039,-0.0801 0.71875,0.8789 h 0.96094 l 0.24024,0.32032 0.16015,0.96093 0.24024,0.63867 1.19921,-1.03906 0.64063,0.40039 1.59961,-0.40039 0.48047,0.24024 1.11914,2 0.48047,0.64062 -0.32032,0.63867 0.4004,0.56055 0.95898,0.40039 0.7207,-0.16015 h 0.72071 l 1.35937,1.03906 1.2793,0.80078 0.56054,0.16016 0.95899,-0.0801 0.80078,0.16015 0.16016,1.03907 0.40039,0.48046 1.43945,-0.0801 0.96094,-0.24024 0.79883,-0.48047 0.16015,-0.71875 0.24024,-0.7207 v -1.59961 l -0.24024,-1.11901 -0.32031,-0.7207 -0.95898,-1.1211 0.48046,-0.1582 0.23829,-0.32031 0.0801,-0.56055 0.24024,-0.64062 1.51953,-0.79883 0.48047,-0.0801 0.24023,-0.48047 0.32031,-0.16016 1.2793,-0.16015 -0.16015,0.56055 -0.47852,0.40039 0.47852,1.03906 0.56054,0.24023 0.64063,-0.16015 -0.24024,0.7207 0.16016,0.16016 0.48047,-0.0801 0.47851,0.47851 0.40039,-0.1582 -0.48046,-1.12109 0.32031,-0.16016 0.24023,-0.24023 h 0.32031 l 0.24024,-0.24024 0.56055,0.48047 -0.16016,0.48047 0.55859,0.24023 0.80078,-0.80078 0.0801,-0.24023 0.80078,-2.32032 -0.16015,-0.39843 0.23828,-0.48047 -0.0781,-0.96094 -0.32031,-0.55859 -0.7207,-0.32031 -0.32031,-0.56055 v -1.59961 l -0.24024,-1.43945 0.64063,-1.04102 -0.24024,-1.83984 0.56055,0.56054 0.87891,0.40039 1.52148,1.11914 0.55859,-0.48046 0.32032,-0.71875 0.0801,-0.56055 -0.79882,-1.19922 -1.20118,-1.52148 -0.95898,-0.24024 h -1.04102 l -0.95898,-0.31836 -0.7207,-0.64062 -1.11914,-0.40039 -0.24024,-0.80079 0.16016,-1.03906 -0.40039,-0.80078 1.67968,-0.63867 1.59961,-1.83984 h -0.71875 l -0.7207,-0.80079 0.16016,-0.7207 0.95898,-0.39844 0.0801,-0.24023 0.16016,-0.80078 -0.0801,-0.87891 0.32031,-0.64062 0.32031,-1.75977 0.87891,-0.64062 2.88086,0.0801 0.56055,-0.40039 1.27929,-1.27929 0.40039,-0.56055 0.24024,-1.43945 0.71875,-0.72071 -0.5586,-0.55859 -0.48047,-0.96094 -0.48046,-0.0801 -0.71875,0.16016 -0.72071,0.0801 -0.48047,0.16016 -0.8789,0.95898 -0.40039,-0.0801 -0.72071,0.40039 -0.79882,-0.16015 -0.16016,-0.4004 -0.88086,-0.79882 0.24023,-0.40039 1.11915,-0.24024 0.64062,-0.8789 0.80078,-0.56055 0.39844,-1.19922 1.20117,-0.88086 0.79883,-0.32031 0.40039,-0.56055 -0.0801,-0.47851 0.32031,-0.64063 0.40039,-0.32031 v -0.40039 l -0.80078,-0.71875 -0.39843,-0.56055 v -1.19922 l -0.32032,-0.64062 -0.80078,-0.72071 c -0.37537,-0.47216 -0.99538,-0.91505 -0.71093,-1.46484 0.54687,-0.25 1.71875,-1.40625 2.125,-1.8125 0.40625,-0.40625 0.79687,-1.0625 1.03124,-1.5625 0.23438,-0.5 0.4375,-0.60938 0.85938,-0.75 0.42187,-0.14062 0.50005,-0.46876 0.59375,-0.70313 0.0937,-0.23438 0.76562,-0.90625 1.375,-1.5 0.60937,-0.59375 0.95313,-0.82813 1.48437,-0.9375 0.53125,-0.10937 0.3125,-1.03124 0.35938,-1.51562 0.0469,-0.48437 0.8125,-1.1875 1.28125,-1.6875 0.46875,-0.5 0.84375,-0.84376 1.28125,-1.29688 0.4375,-0.45312 1.76563,-1.37499 2.15625,-1.89062 0.39062,-0.51562 0.39063,-0.96875 0.64063,-1.14062 0.24999,-0.17188 1.32812,-1.12505 1.45312,-1.21876 0.125,-0.0937 0.57813,-0.67182 1.20312,-0.57812 0.62496,0.0937 0.56245,0.54692 0.53126,0.625 -0.0313,0.0782 -1.12501,0.0313 -1.32813,0.14062 -0.20313,0.10937 0.14063,0.68751 0.45313,0.96876 0.31245,0.28125 0.15627,0.64061 0.21874,1.03124 0.0625,0.39067 0.625,0.14063 0.89063,0.46876 0.26562,0.32811 0.59376,0.21875 0.8125,0.57812 0.21875,0.35936 0.59376,0.45313 0.92187,0.29688 0.32813,-0.1563 0.79688,-0.23441 1.23438,-0.25 0.4375,-0.0156 1.00001,0.42187 1.20312,0.625 0.20313,0.20311 -0.0938,1.20311 -0.1875,1.5625 -0.0937,0.35936 -0.0625,0.7969 0.21876,0.8125 0.28124,0.0156 0.59375,0.37499 0.59374,0.71874 0,0.34376 -0.59375,0.20312 -0.875,0.46876 -0.28125,0.26563 0.23438,0.29692 0.82813,0.32812 0.59375,0.0313 0.0469,0.71875 -0.20313,0.95312 -0.24999,0.23437 -0.89062,0.32812 -0.9375,0.4375 -0.0469,0.10937 0.4375,0.60938 0.3125,0.90626 -0.12499,0.29687 0.0313,0.57817 0.32813,0.60937 0.29687,0.0313 0.62502,0.20312 0.6875,0.42187 0.0625,0.21876 0.0469,0.78125 0.35937,0.9375 0.3125,0.15625 0.62501,-0.67187 0.78126,-0.8125 0.15624,-0.14059 0.90629,-0.125 1,-0.125 0.0937,0 0.67187,1.34376 0.67187,1.34376 l -0.84375,1.5625 c 0,0 -0.76567,0.85937 -0.84375,0.98437 -0.0782,0.125 -0.42187,1.53125 -0.42187,1.53125 l 0.29687,1.60938 c 0,0 1.28125,-0.1406 1.5625,-0.0469 0.28125,0.0938 1.75001,0.1094 2.07813,0.17188 0.32812,0.0625 1.04688,0.68749 1.4375,0.90624 0.39063,0.21876 0.79687,0.0625 1.04687,0.39063 0.25,0.32813 0.60938,0.57813 0.98437,0.70313 0.375,0.12499 0.2812,0.3125 0.25,0.6875 -0.0313,0.37499 0.46876,1.04687 0.71876,1.25 0.24999,0.20311 0.67187,0.40626 0.92187,0.57812 0.25,0.17188 -0.14062,0.73438 -0.42187,0.96875 -0.28125,0.23438 -1.10937,0.25 -1.25,0.6875 -0.14062,0.4375 0.75595,0.70704 0.875,0.90625 0.11906,0.19921 -0.19336,1.21289 -0.19336,1.21289 -0.18783,0.16577 -0.97268,0.3852 -1.35938,0.26367 -0.3867,-0.1215 -1.06115,-0.34064 -1.07226,-0.0312 -0.0111,0.30936 0.45434,0.92668 -0.01,1.07031 -0.46404,0.14364 -1.30455,0.25382 -0.85156,0.57422 0.45299,0.32039 1.62456,0.17808 1.74609,0.37696 0.12152,0.19886 -0.19998,0.26486 0.0762,0.57422 0.27622,0.30936 0.30469,0.5059 0.10157,0.5996 -0.20318,0.0937 -0.42187,0.28126 -0.28126,0.40626 0.14063,0.12499 0.39063,0.21874 0.1875,0.45312 -0.20316,0.23437 -0.42187,0.53125 -0.29687,0.64062 0.12496,0.10938 0.26564,0.34375 0.0625,0.625 -0.20315,0.28125 -0.39063,0.51563 -0.21875,0.64063 0.17187,0.125 0.48438,0.45312 0.4375,0.73437 -0.0469,0.28125 -0.0469,0.87506 0.21875,0.96876 0.26562,0.0937 0.89063,-0.0312 1.10937,0.14062 0.21876,0.17187 0.23438,0.53125 0.45313,0.70312 0.21874,0.17188 0.65626,0.3125 0.92187,0.3125 0.26564,0 0.57814,0.3125 0.46876,0.57813 -0.10937,0.26562 0.0625,0.29688 0.46874,0.67187 0.40625,0.375 0.50001,0.7188 0.75,0.79688 0.25,0.0781 0.71876,0.0781 0.875,0.28125 l 0.92774,-0.3125 0.24023,-0.48047 0.58594,-1.59961 -0.3457,-0.79883 0.39844,-1.04101 0.48046,-0.79883 0.32032,-0.96094 0.7207,-0.48047 0.95898,-0.24023 h 0.32032 l 0.80078,-0.0801 1.03906,-0.47851 0.48047,-0.0801 0.56055,0.16015 0.23828,-0.48046 0.16015,-0.56055 0.0801,-0.48047 0.56055,-0.24024 0.48047,-0.31835 0.79883,-0.24024 1.04101,0.40039 1.11914,-0.16015 -0.24023,-0.64063 0.64062,-0.24023 h 1.04102 l 0.55859,-0.40039 v -0.63868 l 0.48047,-0.16015 0.48047,0.32031 0.40039,-0.0801 0.63867,-0.40039 0.56055,-1.04101 1.59961,-1.83985 -0.79883,-2.08008 0.39844,-0.16015 0.80078,-0.71875 -0.0801,-0.80078 0.0801,-0.64063 0.7207,-0.63867 -0.7207,-0.56055 h -0.80078 l 0.0801,-0.56054 -0.39844,-0.63868 -0.32031,-0.7207 v -0.56055 l 1.35937,-0.8789 0.64063,-0.80078 0.8789,-0.72071 2.32031,0.0801 0.0801,0.64063 0.64063,0.40039 0.79883,0.48047 0.64062,0.24023 0.0801,0.55859 0.0801,0.64063 0.40039,0.32031 0.55859,0.24024 0.48047,-0.64063 0.96094,0.56055 0.79883,0.32031 0.88085,0.23828 0.87891,-0.71875 0.32031,-0.32031 0.64063,0.24023 0.48047,0.79883 0.24023,0.96094 0.0801,0.80078 -0.80078,1.67969 0.88086,1.43945 0.79883,0.88086 0.56054,0.47852 0.72071,-0.47852 0.39843,0.23828 0.40039,0.16016 0.64063,-0.39844 0.87891,-0.16016 0.64062,1.19922 1.59961,0.0801 0.32031,-0.16016 0.48047,-0.32031 0.48047,-0.16015 0.47852,-0.16016 1.12109,-0.0801 0.95898,0.32031 0.24024,-0.71875 0.32031,-0.64062 h 0.64063 l 0.16015,-0.40039 0.5586,-0.72071 h 0.0801 0.56055 l 0.80078,-0.23828 0.95899,-0.16015 0.7207,-0.72071 0.32031,0.0801 0.47852,0.88086 0.96093,0.39844 0.64063,0.40039 h 0.31836 l 1.76172,-0.64063 0.31836,-0.23828 1.20117,-1.52148 0.0801,-0.31836 -0.0801,-0.16016 -0.24024,-0.32031 -0.64062,-0.40039 -0.40039,-0.64062 v -0.4785 l 0.56055,-0.64062 h 0.0801 v -0.72071 l 0.16016,-0.24023 -0.0801,-0.32032 -0.16015,-0.63867 h -0.24024 l -1.19922,0.48047 -0.7207,0.79883 -0.63867,-0.0801 -0.24024,-0.0801 -0.24023,-0.48047 0.56055,-0.39843 0.0781,-0.64063 -0.1582,-0.32031 -0.64063,-0.16016 -0.88086,-0.0801 -0.8789,-0.47852 -0.32032,-0.48047 0.16016,-0.40039 0.95899,-0.7207 0.2402,-0.39837 0.96094,-0.48047 0.32031,-0.32031 0.87891,-1.1211 0.96093,-0.63867 0.39844,-1.36133 0.64063,-0.71874 0.64062,-0.4004 0.48047,-0.56054 0.47852,-1.59961 1.12109,-1.51953 0.79883,-0.72071 0.0801,-0.63867 -0.24024,-0.32031 -1.91992,-0.24023 -1.75977,0.95898 h -0.39843 -0.40039 l -0.72071,-0.55859 -0.64062,-0.64063 -0.95899,-0.40039 0.16016,-1.2793 -0.96094,-0.7207 0.16016,-0.48047 0.48047,-0.47851 0.32031,-0.48047 0.40039,-0.24024 h 0.63867 l 0.32031,-0.0801 0.80079,-0.56054 0.40039,-0.47852 -0.16016,-0.40039 -0.0801,-0.40039 -0.32031,-0.24023 h -0.0801 l -0.96094,-0.24024 -0.0801,0.24024 -0.0801,0.40039 -0.23828,0.40039 -0.88086,0.63867 -0.40039,0.16016 -1.43946,-0.32032 -0.96093,-0.47851 0.16015,-0.32031 1.36133,-1.75977 0.0801,-0.64063 -0.48047,-1.5996 -0.32031,-0.32032 -0.40039,-0.16015 -0.24024,-0.48047 v -0.24024 -0.39843 l 0.24024,-0.32032 1.35937,-0.64062 1.68164,-0.40039 1.83985,-0.79883 0.0801,-1.12109 0.47852,-0.47852 1.91992,-2.80078 -0.1582,-0.32031 -0.0801,-0.24024 0.16016,-0.40039 0.95898,-0.95898 0.96094,-0.64063 0.23828,-0.24023 0.24023,-0.47852 0.16016,-0.40039 0.16016,-0.32031 0.40039,-0.16016 0.48047,-0.48047 0.79882,-1.43945 1.28125,-1.11914 0.16016,-0.32031 -0.64063,-0.96094 0.4004,-0.48047 2.16015,-1.2793 0.71875,0.16016 0.7207,0.48047 0.24024,0.47851 0.48047,0.56055 0.71875,0.16016 1.51953,-0.16016 0.64062,0.24024 0.40039,0.32031 0.48047,0.7207 0.5586,0.5586 0.80078,0.24023 h 1.19922 l 0.24023,0.16016 -0.24023,0.56054 0.0801,0.48047 0.48046,0.39844 v 0.16016 l -0.32031,0.56054 -0.0801,0.48047 0.24024,0.40039 0.24023,-0.16015 0.24024,-0.88086 0.48047,-1.19922 0.0801,-0.24024 0.16016,-0.16015 0.71875,-0.56055 0.24023,-0.40039 0.0801,-0.31836 -0.0801,-0.0801 -0.0801,-0.48047 -0.56055,-0.80078 v -0.56055 l 0.24023,-0.31835 h 0.24024 0.16015 l 0.48047,0.16015 0.40039,0.0801 1.19922,0.63867 0.72071,0.0801 1.27929,-0.0801 0.48047,0.16016 0.79883,0.0801 0.48047,-0.40039 0.24023,-0.4004 -0.0801,-0.47851 -0.24023,-0.48047 0.0801,-0.56055 0.7207,-1.19921 0.48047,-0.56055 1.59961,-0.32031 0.95898,-0.63868 0.48047,-0.16015 1.2793,0.39843 h 0.48047 l 0.56054,-0.31835 0.4004,0.39843 0.47851,0.16016 0.40039,0.16016 0.32031,-0.0801 0.16016,-0.16016 0.0801,-0.16016 0.0801,-0.55859 0.16015,-0.32031 0.16016,-0.0801 0.40039,0.0801 0.47852,0.16016 0.56054,0.16015 h 0.48047 l 0.24024,-0.24023 0.24023,-0.32032 v -0.32031 l -1.28125,-1.75976 0.48047,-0.72071 0.64062,-0.55859 h 0.16016 0.23828 l 1.28125,1.2793 0.48047,-0.0801 0.79883,-0.48047 h 0.48047 l 1.19922,-0.55859 0.24023,-0.40039 -0.16016,-1.91993 0.0801,-0.40039 0.24024,-0.16015 h 0.88086 l 0.24023,-0.0801 0.23828,-0.24024 0.0801,-0.32031 -0.71875,-0.79883 -0.16016,-0.0801 -0.32031,-0.0801 -0.88086,-0.16016 -0.79883,-0.40039 -0.32031,-0.24023 v -0.24024 l -0.80078,-0.63867 -0.63867,-0.7207 -0.16016,-0.48047 0.24024,-0.24024 1.11914,-0.63867 0.0801,-0.32031 -0.40039,-0.24024 -0.47851,-0.0801 -1.20117,0.24023 H 384.239 l -0.71875,-0.0801 -0.32031,-0.32031 -0.16016,-0.16016 -0.80078,-1.35937 -0.24023,-0.64063 -0.16016,-0.71875 0.16016,-0.64062 0.16015,-0.24024 0.7207,0.16016 0.95899,0.32031 0.16016,0.87891 0.88085,0.7207 0.32032,0.0801 0.32031,-0.16016 0.39844,-0.48046 0.0801,-0.16016 -1.59961,-1.2793 -0.40039,-0.56054 -0.39844,-1.2793 v -0.64063 l -0.0801,-0.0801 -0.16016,-0.0801 -0.56054,0.0801 -0.64063,-0.24024 -0.40039,-0.16016 -0.1582,0.16016 v 1.36133 l -0.16016,1.19922 -0.48047,0.24023 v 0.0801 0.0801 0.32031 0.40039 l 0.24024,0.95899 -0.32032,0.32031 h -0.56054 l -0.63867,-0.0801 -0.88086,-0.80078 -0.24024,-0.31836 -0.16015,-0.32031 -0.0801,-0.64063 0.40039,-0.32031 1.19922,-0.16016 0.24023,-0.24023 -0.0801,-0.47852 -0.16015,-0.32031 -0.23828,-0.16015 -0.24024,-0.0801 -0.16015,-0.32032 v -0.32031 l 0.0801,-0.56055 -0.16015,-0.1582 -0.56055,-0.32031 h -0.16016 l -0.79882,-0.64063 -0.40039,-1.27929 -0.0801,-0.40039 -0.16016,-0.40039 -0.40039,-0.48047 0.0801,-0.32032 0.32031,-0.1582 1.03906,0.0801 1.1211,0.1582 0.48047,0.0801 0.23828,-0.23828 -0.0801,-0.24023 -0.0801,-0.56055 0.0801,-0.16016 0.24023,-0.24023 0.32032,-0.79883 0.7207,-0.32031 0.63867,-0.0801 1.12109,0.0801 0.4004,0.39843 0.47851,1.36133 0.64063,0.16016 1.20117,-0.16016 0.95898,-0.32031 0.48047,-0.32031 0.56055,0.0801 0.31836,0.48047 0.7207,-0.0801 0.0801,0.16015 0.32031,0.24024 0.24024,-0.24024 0.24023,-0.16015 0.23828,0.48047 0.0801,0.47851 -0.31836,1.04102 0.71875,0.24023 2.24023,2.08008 0.48047,0.40039 0.40039,0.95898 0.32032,0.32032 0.55859,0.24023 0.56055,0.16016 0.48047,-0.16016 0.8789,-1.67969 v -0.56054 l -0.16015,-0.48047 -0.24024,-0.32031 -0.0781,-0.24024 0.23828,-1.03906 -0.31836,-0.24024 h -0.96094 l -0.16016,-1.19921 -0.0801,-0.48047 v -0.40039 l 0.24023,-0.32032 0.40039,-0.0801 0.64063,0.0801 1.11914,0.40039 h 0.48047 l 0.40039,-0.16015 0.23828,-0.48047 -0.16016,-0.95898 0.32031,-1.20118 -0.0801,-0.47851 -1.43946,-1.36133 -0.40039,-0.95898 0.0801,-1.04102 -0.79883,-0.47852 0.0801,-0.40039 0.23828,-0.48047 -0.1582,-0.48046 0.1582,-0.32032 0.56055,-0.1582 0.48047,0.1582 0.32031,-0.0801 0.24023,-0.23828 0.16016,-0.64062 0.39844,0.32031 0.16015,0.63867 0.32032,0.40039 1.43945,1.44141 0.16016,0.23828 0.32031,-0.31836 0.56054,-0.80078 0.24024,-0.32031 h 0.32031 l 0.16016,1.27929 0.23828,0.56055 0.32031,0.24024 -0.16015,0.96093 0.0801,0.47852 0.32032,0.7207 0.0801,0.72071 -0.64062,0.31835 -0.55859,-0.47851 -0.56055,-0.16016 -0.7207,0.0801 -0.0801,0.32031 v 0.71875 l 0.32031,0.88086 1.12109,0.16016 1.35938,0.63867 2,-0.0801 0.16015,-0.8789 v -0.88086 l 0.24024,-1.11914 0.0801,-0.24024 0.8789,-0.80078 0.64063,-0.95898 0.56055,-0.32032 -0.0801,-0.40039 -0.88086,-1.43945 v -0.88086 l 0.24023,-0.55859 0.64063,-0.48047 0.40039,-0.0801 0.71875,1.51953 -0.0801,0.24024 -0.40039,0.48047 -0.0801,0.56054 0.16016,0.5586 0.40039,0.0801 0.80078,-0.24023 1.43945,0.32031 0.24024,-0.63867 0.0801,-0.96094 0.0801,-1.59961 0.32032,-0.48047 0.32031,-0.40039 0.71875,-0.24023 h 0.80078 l 0.56055,-0.39844 v -0.56054 l -0.88086,-1.51954 -0.32032,-0.7207 -0.0801,-0.56055 0.0801,-0.63867 0.72071,-0.88086 0.63867,-0.40039 h 0.64062 l 0.40039,-0.40039 0.64063,-0.95898 0.47852,-0.32032 -0.31836,-0.56054 0.0781,-0.39844 0.32031,-0.16016 0.64063,0.47852 0.16015,0.56055 -0.16015,1.67968 0.16015,0.56055 0.4004,0.32031 1.51953,0.16016 0.48047,0.16016 0.16015,0.39843 -0.16015,0.48047 h -0.4004 l -0.16015,0.16016 0.0801,0.56055 0.24023,0.32031 0.0801,0.47851 0.24023,0.24024 0.87891,1.52148 0.0801,0.71875 -0.16016,0.88086 0.40039,0.63867 0.32031,0.40039 0.56055,0.32032 1.19922,1.43945 0.96094,1.04102 1.19922,2.79882 0.40039,0.64063 0.32031,0.16015 2.08008,0.0801 0.55859,0.0801 0.24024,0.24024 -0.40039,0.95898 -0.63868,0.24023 h -0.64062 l -0.56055,0.32032 -0.0801,0.48047 v 0.40039 h 0.0801 l 0.0801,0.8789 0.40039,0.16016 0.32031,-0.16016 0.64063,0.32031 1.19922,0.88086 0.16015,1.19922 0.32032,0.72071 0.79882,2.55859 0.40039,0.64062 0.16016,0.48047 0.0801,0.87891 0.48047,0.64062 1.27929,0.16016 0.80079,1.2793 0.55859,0.48047 0.40039,0.0801 0.0801,0.0801 0.80078,-0.40039 0.32031,-0.40039 -0.40039,-1.43945 -0.88086,-1.67969 -0.55859,-0.48047 -0.48047,-0.95898 -0.80078,0.32031 -0.56055,-0.32031 -0.23828,-0.88086 0.0801,-0.87891 -0.40039,-0.56054 -0.48047,-0.48047 -0.32031,-1.43946 0.24023,-0.64062 0.96094,-0.79883 0.1582,-0.24023 0.0801,-0.0801 0.16016,-0.0801 0.16015,0.0801 0.16016,-0.0801 h 0.0801 0.16015 l 0.0801,-0.0801 0.0801,-0.16015 0.16015,-0.0801 h 0.16016 l 0.16016,-0.0801 h 0.0801 l 0.16015,-0.0801 h 0.16016 l 0.1582,-0.0801 h 0.0801 l 0.16016,-0.0801 0.0801,-0.16015 0.16016,-0.0801 v -0.0801 l 0.0801,-0.16015 0.0801,-0.16016 v -0.0801 l 0.0801,-0.16016 0.0801,-0.0781 0.0801,-0.0801 0.16016,-0.16015 0.0801,-0.0801 0.16016,-0.0801 h 0.0801 0.16016 0.16015 0.16016 0.1582 l 0.16016,0.0801 h 0.0801 l 0.16015,0.0801 h 0.16016 l 0.16015,0.0801 0.0645,1.1875 c 0.75714,0.097 3.07031,0.66016 2.94531,1.28516 -0.12494,0.625 -0.0626,1.875 0.625,2.25 0.68749,0.375 1.4375,1.8125 1.0625,2.5 -0.375,0.6875 -0.62501,1.8125 0.1875,2.125 0.81249,0.3125 0.1875,1.3125 0.8125,1.8125 0.625,0.5 1.5,2.1875 1.5,2.625 0,0.4375 -0.28118,2.81249 0.125,3.59375 0.40626,0.78125 1.99999,1.125 2.40625,1.53125 0.40625,0.40626 1.59375,2.56249 2.21875,3.15625 0.625,0.59374 1.95654,0.76632 2.375,1.1875 0.41848,0.42117 1.12499,1.375 1.71875,1.625 h 1 0.87891 l 0.24023,0.40039 0.16016,0.56055 0.40039,0.32031 h 0.48047 l 0.63867,-0.0801 0.24023,-0.40039 0.56055,-0.32031 1.03906,-0.16016 h 0.7207 l 1.59961,0.48047 1.1211,-0.56055 h 1.03906 l 0.88086,0.0801 0.63867,0.40039 0.40039,-0.0801 0.48047,0.48046 0.32031,-0.16015 0.24024,-0.24024 0.39844,-0.16015 0.40039,0.24023 v 0.55859 l 0.48046,0.72071 0.56055,0.32031 1.11914,0.48047 -0.0801,0.40039 0.32032,0.31836 -0.24024,0.40039 0.16016,0.48047 0.56055,0.24023 0.55859,0.0801 0.24023,0.63867 0.64063,1.36133 0.56055,0.24024 0.95898,0.0801 0.16016,0.39844 0.32031,0.16016 0.48047,-0.0801 0.40039,-0.24024 0.31836,0.24024 1.20117,-0.95898 0.79883,-0.24024 H 476.72 l 0.64062,0.24024 0.47852,0.56054 0.80078,-0.56054 -0.16016,-1.04102 0.40039,-0.39844 0.4004,-0.24023 0.71875,-0.16016 0.96093,-0.48047 0.40039,-0.48047 0.39844,-0.0801 0.56055,0.16015 0.16015,0.32031 -0.32031,0.4004 0.56055,0.0801 0.56055,-0.24023 1.5996,0.16016 0.16016,-1.04102 0.64063,-0.24024 0.47851,0.32032 1.67969,-0.71875 1.60156,-0.56055 0.5586,0.0801 0.40039,0.32031 0.32031,-0.40039 0.40039,0.16016 0.0801,0.7207 1.83984,0.79883 0.79883,0.16015 0.80078,-0.32031 0.64063,-0.71875 0.47851,0.0801 0.64063,-0.32031 0.24023,-0.56055 0.40039,-0.32031 0.71875,-0.16016 2,1.20117 0.48047,0.0801 0.40039,-0.0801 0.16016,0.39844 0.48047,-0.16016 0.0801,-0.31835 0.32032,-0.48047 1.35937,-0.48047 0.64063,-0.24024 0.1582,-0.40039 -0.47852,-1.19922 v -0.56054 l 1.83985,-0.32032 -0.40039,-0.79882 0.16015,-0.40039 0.24024,-0.16016 0.0801,-0.48047 -0.0801,-0.71875 -0.80078,-0.48047 -0.24024,-0.64062 -0.24023,-1.19922 v -0.80078 l 0.0801,-0.71875 0.16015,-0.40039 0.48047,0.0801 0.56055,0.40039 0.32031,0.39843 0.55859,1.1211 0.32032,-0.0801 0.16015,-0.16016 0.40039,0.16016 h 0.48047 l 0.87891,-0.96094 0.24023,-0.55859 v -0.48047 l -0.64062,-0.56055 -0.63867,-0.0801 -0.16016,0.0801 -0.7207,-0.40039 -0.24024,-0.31836 -0.0801,-0.64062 h 0.40039 l 2.08008,0.95898 0.32031,-0.16016 0.48047,0.32032 0.63868,0.56054 0.40039,-0.32031 0.16015,-0.71875 -0.16015,-0.64062 -0.87891,-0.32032 -0.64063,-0.40039 -0.80078,-0.0801 -0.32089,-0.47829 v -0.40039 l 0.56055,0.0801 0.56054,0.24023 0.56055,0.0801 1.03906,0.39844 0.88086,0.56054 0.47852,-0.0801 1.44141,-0.56055 0.32031,-0.39844 -0.16016,-0.56054 -0.40039,-0.32032 -0.16016,-0.64062 0.4004,-0.24024 1.03906,0.96094 0.32031,-0.56055 1.11914,-1.03906 -1.19922,-2 -0.32031,-0.48047 -0.24023,-0.56054 0.56054,-1.43946 1.83985,-1.67968 0.32031,-0.32032 0.40039,-0.16015 -0.7207,-1.19922 -0.87891,-0.72071 -0.16016,-0.16015 -0.0801,-0.64063 v -0.31836 l -0.0801,-0.48046 -0.64063,-0.64063 -0.24023,-0.56055 -0.32031,-0.31836 -0.0801,-0.56054 v -0.16016 l 0.64062,0.16016 0.24024,0.48047 0.95898,0.8789 0.40039,-0.0801 0.56055,0.56055 0.80078,0.40039 0.55859,0.32031 0.48047,0.39844 1.2793,0.64063 1.12109,0.24023 0.16016,-0.16016 0.32031,-1.11914 v -0.56054 l 0.24024,-1.43946 0.55859,-0.24023 0.88086,-1.36133 1.03906,-0.47851 0.64063,-0.56055 0.56054,-0.80078 0.32032,-0.24024 2.1582,-0.1582 0.48047,-0.64062 0.40039,-0.16016 1.59961,-0.0801 0.80078,-0.16016 0.71875,-1.51953 0.80078,-0.64062 0.24023,0.16015 0.0801,0.32032 0.24024,0.0801 0.71875,-0.56055 0.16015,0.32031 -0.32031,3.03906 -0.1582,0.32032 0.1582,0.96093 0.32031,1.03907 1.20118,0.7207 0.32031,-0.0801 0.8789,-0.7207 0.40039,-1.67969 0.87891,-1.51953 0.24024,-0.16016 h 0.56054 l -0.24023,-0.40039 -0.0801,-0.48047 0.16016,-0.1582 1.28125,-0.0801 0.31836,0.39844 0.0801,0.24023 0.48047,0.0801 0.48047,-0.71875 0.32031,-0.16015 1.35938,0.0801 0.88086,0.47852 0.47851,-1.35938 0.56055,-0.0801 0.16016,-0.24024 -0.64063,-0.56055 -0.63867,-1.27929 -0.64063,-0.40039 h -0.56054 l -1.19922,0.7207 -0.16016,0.48047 -0.24023,0.24023 -0.88086,-0.24023 -0.55859,-0.24023 -0.4004,-1.1211 v -0.55859 l -0.24023,-0.32031 -0.64062,0.24023 -0.47852,-0.24023 -0.32031,-0.48047 -0.88086,-2.32032 -0.56055,-0.71875 0.0801,-0.32031 h 0.32031 l 1.83985,0.79883 2,-0.16016 0.48046,-0.23828 1.35938,-0.24023 0.16016,-0.32031 0.64062,0.56054 0.80078,-0.32031 0.47852,0.24023 0.48047,-0.0801 0.40039,-0.80079 0.16015,-0.88086 -0.0801,-1.19921 -0.24023,-0.32032 0.24023,-1.11914 0.48047,0.16016 0.5586,-0.16016 0.56054,0.40039 0.40039,0.47852 1.35938,-0.24024 0.64062,0.16016 0.56055,-0.0801 0.39844,0.24024 0.16016,0.64062 -1.11915,2.32032 -0.48046,0.40039 v 0.24031 l 0.48046,0.47852 0.0801,0.7207 -0.0801,0.16016 1.75977,1.11914 c 0.21235,0.17538 1.5152,0.52929 2.02344,0.52929 0.50823,0 1.59238,-0.55136 1.92383,-0.88281 0.33145,-0.33147 1.2812,-0.83984 1.63476,-0.83984 0.35356,0 1.72266,0.0664 1.72266,0.0664 l 1.66211,0.10352 c 2.08149,-3.414 3.78025,-6.2582 4.38281,-7.20508 0.875,-1.375 5.125,-5.8125 9.4375,-10.03125 2.15625,-2.10937 4.32812,-4.16406 6.10156,-5.75391 1.77348,-1.58984 3.14848,-2.71484 3.71098,-2.96484 2.25,-1 14.25,-8.75 14.25,-8.75 0,0 1.4375,-1.6875 3.21875,-3.65625 1.78125,-1.96875 3.90625,-4.21875 5.28125,-5.34375 1.375,-1.125 7.09375,-4.95312 12.46875,-8.5 5.375,-3.54688 10.40625,-6.8125 10.40625,-6.8125 l 13,-6.1875 c 0,0 1.4648,-0.88065 1.81836,-1.16797 0.35355,-0.28726 1.70148,-0.35436 2.25391,-0.46484 0.55243,-0.11049 6.49556,-3.00583 6.9375,-3.35938 0.44195,-0.35355 3.20507,-2.03125 3.20507,-2.03125 0,0 -1.17122,0.21947 -1.54687,0.26367 -0.37565,0.0442 -5.32617,3.1836 -5.32617,3.1836 0,0 -2.73894,0.35279 -3.49024,0.30859 -0.7513,-0.0442 -1.81284,0.33142 -2.01172,0.35352 -0.19887,0.0221 -1.03906,1.73633 -1.03906,1.73633 -0.54953,-0.10206 -0.87715,-0.002 -1.17969,0.19531 -0.30253,0.19776 -0.57998,0.49366 -1.02929,0.78711 -0.48614,0.13258 -1.06135,0.22005 -1.52539,0.5957 -0.46404,0.3756 -0.70688,0.22009 -0.99414,0.24219 -0.28727,0.0221 -1.54573,0.4648 -2.00977,0.81836 -0.23202,0.17675 -0.46529,0.34151 -0.70312,0.41601 -0.23788,0.0745 -0.48026,0.0589 -0.73438,-0.1289 0,0 -1.40625,1.56445 -1.65625,1.7832 -0.25,0.21875 -1.65625,0.59375 -2.0625,0.75 -0.40625,0.15625 -1.28125,0.6875 -1.53125,0.96875 -0.25,0.28125 -1.4375,0.43745 -2.03125,0.34375 -0.29687,-0.0469 -0.54687,0.15626 -0.79297,0.46094 -0.24609,0.30468 -0.48828,0.71093 -0.76953,1.07031 -0.28125,0.35942 -0.44528,0.30469 -0.57813,0.18359 -0.13278,-0.12114 -0.23437,-0.30854 -0.39062,-0.21484 -0.3125,0.1875 -1.03125,1.40625 -1.1875,1.46875 -0.15625,0.0625 0.0937,-1.0625 0.375,-1.46875 0.28125,-0.40625 0.81245,-1.28125 0.71875,-1.71875 -0.0937,-0.4375 -0.96875,-0.84375 -1.1875,-0.96875 -0.21875,-0.125 -1.5,-0.5 -2.15625,-0.34375 0,0 -0.78125,-0.0937 -1.1875,-0.0312 -0.40625,0.0625 -1.125,-0.78125 -1.375,-1.28125 -0.25,-0.5 -1.5,-1.0625 -1.5,-1.0625 0,0 -0.4375,1.09375 -1.0625,1.4375 -0.625,0.34375 -1.25,1.34375 -1.46875,1.65625 -0.21875,0.3125 -1.59375,0.90625 -1.59375,0.90625 -0.75,0.1251 -3.62499,0.0625 -4.1875,0.0625 -0.28125,0 0.25001,0.5 0.9375,1.04688 0.6875,0.54687 1.53125,1.14062 1.875,1.32812 0.68749,0.375 2.06249,0.50001 2.25,0.9375 0.0937,0.21875 -0.28125,0.6875 -0.78125,1.10156 -0.5,0.41406 -1.125,0.77344 -1.53125,0.77344 -0.40625,0 -1.04687,-0.0781 -1.53906,-0.0781 -0.2461,0 -0.4541,0.0195 -0.57813,0.0781 -0.124,0.0586 -0.16401,0.15625 -0.0703,0.3125 0.1875,0.3125 0.7188,0.99995 1.20312,1.73438 0.48438,0.73437 0.92188,1.51562 0.92188,2.01562 0,0.25002 -0.14551,0.40332 -0.37695,0.48242 -0.23145,0.0791 -0.54883,0.084 -0.89649,0.041 -0.69531,-0.0859 -1.50781,-0.36719 -1.97656,-0.64844 -0.23438,-0.14065 -0.42187,-0.16895 -0.57422,-0.12695 -0.15234,0.042 -0.26958,0.15429 -0.36328,0.29101 -0.1875,0.27344 -0.2813,0.64844 -0.375,0.77344 -0.0937,0.125 -0.6875,0.42189 -1.30469,0.82812 -0.61718,0.40628 -1.25781,0.92188 -1.44531,1.48438 -0.1875,0.5625 -0.78125,1.17187 -1.35156,1.60938 -0.57031,0.43749 -1.11724,0.70312 -1.21094,0.57812 -0.18749,-0.25 0.625,-3.875 0.625,-4.25 0,-0.375 -1.1875,-2.25 -1.5625,-2.5 -0.1875,-0.125 -0.40625,0.56253 -0.6875,1.26562 -0.14062,0.35159 -0.29688,0.70703 -0.47266,0.9668 -0.17578,0.25977 -0.37109,0.42378 -0.58984,0.39258 -0.4375,-0.0625 -0.67188,-0.54688 -0.78906,-1.11719 -0.1171,-0.57031 -0.11714,-1.22656 -0.0859,-1.63281 0.0312,-0.40625 0.40625,-0.90625 0.88281,-1.34375 0.47657,-0.4375 1.05469,-0.8125 1.49219,-0.96875 0.43754,-0.15625 0.65625,-0.3125 0.78125,-0.53125 0.12505,-0.21875 0.15625,-0.5 0.21875,-0.90625 0.0625,-0.40625 0.60938,-0.75 1.25781,-0.94531 0.64844,-0.19533 1.39844,-0.24219 1.86719,-0.0547 0.46875,0.18751 0.92187,0.28121 1.25781,0.25781 0.33594,-0.0234 0.55469,-0.16406 0.55469,-0.44531 0,-0.28125 -0.45313,-0.59375 -0.97656,-0.92969 -0.52344,-0.33593 -1.11719,-0.69531 -1.39844,-1.07031 -0.28125,-0.375 -0.8125,-0.59375 -1.35938,-0.83594 -0.54687,-0.24218 -1.10937,-0.50781 -1.45312,-0.97656 -0.1719,-0.23437 -0.208,-0.40234 -0.1543,-0.53125 0.0537,-0.12891 0.19727,-0.21878 0.38086,-0.29687 0.36719,-0.15628 0.89844,-0.26563 1.21094,-0.54688 0.3125,-0.28125 0.73437,-0.64061 1.32031,-0.98438 0.58594,-0.34372 1.33594,-0.67187 2.30469,-0.89062 0.96875,-0.21875 1.57813,-0.64062 1.94531,-1.00781 0.36714,-0.36721 0.49214,-0.67971 0.49214,-0.67971 0,0 -0.57815,-0.2344 -1.10156,-0.5625 -0.26172,-0.16406 -0.51075,-0.35156 -0.66602,-0.54492 -0.15522,-0.19336 -0.2168,-0.39258 -0.10742,-0.58008 0.21871,-0.375 0.17187,-0.60939 0.10938,-0.89062 -0.0625,-0.28128 -0.14063,-0.60938 0.0156,-1.17188 0.0781,-0.28125 0.33496,-0.51953 0.68945,-0.72461 0.35449,-0.20508 0.80664,-0.37695 1.27149,-0.52539 0.92969,-0.29688 1.91406,-0.5 2.28906,-0.6875 0.37498,-0.1875 0.53124,-0.5 0.42188,-0.80469 -0.10938,-0.30469 -0.48438,-0.60156 -1.17188,-0.75781 -0.34375,-0.0781 -0.55859,-0.23828 -0.68164,-0.44531 -0.12286,-0.20703 -0.15426,-0.46093 -0.13086,-0.72657 0.0469,-0.53122 0.3125,-1.10937 0.5,-1.45312 0.1875,-0.34375 0.70313,-0.78125 1.24219,-1.29688 0.53906,-0.51561 1.10156,-1.10937 1.38281,-1.76562 0.28125,-0.65625 0.48438,-0.89065 0.75,-0.90625 0.26562,-0.0156 0.59375,0.1875 1.125,0.40625 0.53125,0.21875 0.95312,0.0937 1.1875,-0.21094 0.23438,-0.30469 0.28125,-0.78906 0.0625,-1.28906 -0.1093,-0.25 -0.10374,-0.4623 -0.0234,-0.64062 0.0803,-0.17836 0.23536,-0.32178 0.42774,-0.43946 0.38475,-0.23535 0.91596,-0.36132 1.2832,-0.41992 0.36723,-0.0586 0.46095,-0.40332 0.58789,-0.77148 0.12694,-0.36816 0.28711,-0.75978 0.78711,-0.91602 1,-0.31251 2.0625,-1.12499 2.8125,-1.6875 0.375,-0.28127 0.98438,-0.1875 1.65625,-0.0469 0.67187,0.1407 1.40625,0.32808 2.03125,0.23438 0.625,-0.0937 0.85937,-0.40624 1.10938,-0.71094 0.24998,-0.30469 0.51562,-0.60156 1.20312,-0.66406 0.34375,-0.0312 0.53416,-0.16797 0.63086,-0.36523 0.0966,-0.19727 0.0996,-0.45508 0.0644,-0.72852 -0.0703,-0.54687 -0.28901,-1.15625 -0.19531,-1.46875 0.0937,-0.3125 0.1875,-0.4375 0.50781,-0.57031 0.32032,-0.13282 0.86719,-0.27344 1.86719,-0.61719 1,-0.34378 1.45312,-0.37498 1.71875,-0.42188 0.26563,-0.0469 0.34375,-0.10937 0.59375,-0.51562 l 1.40625,-0.34375 c 0.0937,-0.125 0.375,-0.96875 0.6875,-1.375 0.15626,-0.20313 0.10956,-0.57812 0.10156,-0.91406 -0.008,-0.33595 0.0234,-0.63279 0.33594,-0.67969 0.3125,-0.0469 0.60156,-0.10156 0.87109,-0.24609 0.26954,-0.14454 0.51954,-0.37891 0.75391,-0.78516 0.23437,-0.40625 0.64063,-0.71094 1.07422,-0.98047 0.43359,-0.26953 0.89453,-0.5039 1.23828,-0.76953 0.34375,-0.26563 0.91406,-0.42973 1.49219,-0.51953 0.57812,-0.0898 1.16406,-0.10542 1.53906,-0.0742 0.5625,0.0469 2.16211,-0.48585 3.26953,-0.53125 0.36914,-0.0151 0.68359,0.0234 0.88672,0.15625 0.40625,0.26562 1.10937,0.37505 1.81641,0.40625 0.70703,0.0312 1.41796,-0.0156 1.83984,-0.0625 0.84375,-0.0937 1.40173,0.0889 1.42383,0.26563 0.0111,0.0884 0.0889,0.36874 0.23242,0.64453 0.14352,0.27578 0.35269,0.54698 0.62891,0.61328 0.27621,0.0663 0.49189,0.3259 0.64648,0.61328 0.15459,0.28738 0.24815,0.60252 0.28125,0.7793 0.0331,0.17677 0.23771,0.43029 0.37891,0.71484 0.14115,0.28455 0.21901,0.60013 -0.002,0.89844 -0.22097,0.29831 -0.39245,0.61805 -0.40625,0.85547 -0.0137,0.23741 0.13027,0.39247 0.53907,0.35937 0.81759,-0.0663 1.47984,0.42104 1.85546,0.31055 0.37568,-0.11048 1.14807,-0.90725 1.30274,-0.73047 0.15468,0.17678 -0.48521,1.36983 -0.5957,1.76758 -0.0552,0.19887 0.10474,0.50846 0.24023,0.8125 0.1355,0.30403 0.24648,0.60251 0.0918,0.77929 -0.30936,0.35355 -0.9514,1.65729 -1.08399,2.25391 -0.0663,0.29831 -0.15501,0.6582 -0.16601,0.96484 -0.011,0.30665 0.0558,0.56004 0.29883,0.64844 0.48613,0.17677 1.59179,0.44114 1.59179,0.66211 0,0.22097 -0.75283,1.21603 -0.50976,1.52539 0.24307,0.30936 1.50396,0.61925 1.92383,0.68555 0.41981,0.0663 1.41444,0.88292 1.25976,0.94922 -0.15468,0.0663 -1.2606,1.21503 -1.37109,1.70117 -0.0552,0.24306 -0.1159,0.42632 -0.23438,0.55078 -0.11847,0.12447 -0.29476,0.19007 -0.58203,0.20117 -0.57452,0.0221 -0.884,-0.0442 -1.19336,0.35352 -0.30936,0.39775 -1.01659,0.37618 -1.19336,0.68554 -0.17678,0.30936 -0.46453,0.64074 -1.03906,0.70704 -0.28726,0.0331 -0.66366,0.0609 -1.03125,0.14648 -0.36759,0.0856 -0.72635,0.22898 -0.98047,0.49414 -0.50823,0.53033 -1.10371,0.59627 -1.58984,0.92774 -0.48614,0.33143 -1.39228,0.61924 -1.9668,0.68554 -0.57453,0.0663 -1.47982,0.99326 -1.85547,1.23633 -0.18782,0.12153 -0.40327,0.38634 -0.64648,0.62109 -0.24321,0.23476 -0.51419,0.43946 -0.8125,0.43946 -0.59662,0 -1.12631,0.5311 -1.50196,0.81836 -0.37565,0.28726 -1.21628,0.61924 -1.30468,0.68554 -0.0884,0.0663 -0.75391,0.2168 -0.75391,0.2168 -0.59375,0.15625 -0.98438,0.48437 -1.28125,0.85938 -0.29687,0.37497 -0.5,0.79687 -0.71875,1.14062 -0.10938,0.17189 -0.0576,0.29984 0.0918,0.39844 0.14941,0.0986 0.39648,0.16795 0.68164,0.21875 0.57031,0.10161 1.28906,0.13281 1.66406,0.19531 0,0 1.03125,-0.875 1.6875,-0.9375 0.65625,-0.0625 1.96875,-0.5625 2.46875,-0.8125 0.5,-0.25 2.4375,-1.4063 3.1875,-1.5 0.75,-0.0937 1.6875,-0.6875 2.21875,-1.125 0.53125,-0.4375 1.96875,-0.46875 2.71875,-0.96875 0.75,-0.5 2.4375,-1.34375 2.78125,-1.65625 0.34375,-0.3125 1.96875,-0.0625 2.59375,-0.1875 0.625,-0.125 0.71875,-1.0313 1.25,-1.125 0.53125,-0.0937 1.71875,-0.53125 1.96875,-0.71875 0.25,-0.1875 1.53125,-0.5313 2.15625,-0.5625 0.625,-0.0312 2.15625,0.21875 2.15625,0.21875 0,0 13.625,-4.8125 14.3125,-5.0625 0.6875,-0.25 12.0625,-4.125 12.9375,-4.3125 0.875,-0.1875 33.4375,-7.6875 33.4375,-7.6875 0,0 10.0625,-3.1875 11.75,-4 1.6875,-0.8125 8.5625,-4.4375 9.5625,-4.75 1,-0.3125 5.0625,-1.4375 5.0625,-1.4375 0,0 -0.28988,-0.053 -0.62305,-0.17773 -0.33317,-0.12475 -0.70979,-0.32159 -0.88086,-0.60938 -0.34213,-0.57558 -1.33555,-0.79696 -1.49023,-1.2168 -0.15468,-0.41985 -1.28217,-0.52914 -1.8125,-0.8164 -0.26517,-0.14364 -0.50871,-0.46939 -0.65234,-0.83399 -0.1436,-0.3646 -0.18728,-0.76809 -0.0547,-1.0664 0.13258,-0.29831 -0.19891,-0.73507 -0.58008,-1.13282 -0.38117,-0.39774 -0.81261,-0.75675 -0.87891,-0.90039 -0.13258,-0.28726 -0.46289,-1.8789 -0.46289,-1.8789 0,0 0.8166,-1.12706 1.30274,-1.19336 0.24306,-0.0332 0.65211,0.012 0.98633,0.14453 0.33421,0.13258 0.59426,0.35342 0.53906,0.67383 -0.0553,0.32041 0.18182,0.67898 0.47461,1.02148 0.29278,0.34251 0.64091,0.66971 0.80664,0.92383 0.16572,0.25412 0.20994,0.86585 0.30664,1.50391 0.0967,0.63805 0.24544,1.30074 0.62109,1.65429 0.37565,0.35355 0.66896,0.5855 0.95899,0.70703 0.29002,0.1215 0.5768,0.13333 0.9414,0.0449 0.72921,-0.1768 2.65925,-0.12016 3.22657,0.0449 0.28366,0.0825 0.96241,-0.32225 1.58203,-0.7793 0.61961,-0.45705 1.18041,-0.96702 1.22461,-1.09961 -0.0714,-0.71324 -0.0524,-1.23889 0.0312,-1.64453 0.0836,-0.40564 0.23053,-0.69067 0.41211,-0.91992 0.36315,-0.4585 0.86561,-0.69613 1.27929,-1.23633 0.61884,-1.41568 1.22029,-2.54961 1.81446,-3.49219 0.59416,-0.94258 1.18159,-1.69335 1.77148,-2.34179 1.17978,-1.29689 2.37119,-2.18478 3.65625,-3.37891 0.0716,-0.93019 0.50065,-1.66568 1.00586,-2.32422 0.50521,-0.65853 1.08659,-1.24012 1.46289,-1.86328 0.59375,-1 1.625,-3.1875 2.09375,-3.5625 0.46875,-0.375 3.25,-3.0625 3.78125,-3.40625 0.53125,-0.34375 3.21875,-2.375 3.71875,-2.8125 0.5,-0.4375 1.9375,-1.5625 2.6875,-1.9375 0.75,-0.375 5.03125,-1.71875 5.71875,-2.15625 0.6875,-0.4375 1.375,-0.375 1.96875,-0.59375 0.59375,-0.21875 1.18386,-1.2694 1.7168,-1.72852 0.53294,-0.45911 3.0957,-1.45898 3.4082,-1.61523 0.3125,-0.15625 1.625,-1.03125 1.78125,-1.25 0.0781,-0.10939 -0.21671,-0.12089 -0.50195,-0.15039 -0.28525,-0.0295 -0.56002,-0.0771 -0.44532,-0.26172 0.1147,-0.1846 0.21742,-0.54955 0.41016,-0.86914 0.19274,-0.31959 0.47461,-0.59375 0.94336,-0.59375 0.46875,0 0.92969,-0.0156 1.40234,-0.12891 0.47266,-0.11328 0.95704,-0.32421 1.47266,-0.71484 1.03125,-0.78125 1.125,-1.25 1.875,-1.65625 0.75,-0.40625 3.53125,-2.34375 3.96875,-2.875 0.4375,-0.53125 0.78125,-1.25 1.34375,-1.53125 0.28125,-0.14063 0.58593,-0.66406 0.83203,-1.19141 0.2461,-0.52734 0.43367,-1.05859 0.48047,-1.21484 0.0937,-0.3125 0.81245,-3.90625 0.78125,-4.21875 -0.0312,-0.3125 -0.53125,-2.6875 -0.78125,-2.8125 -0.25,-0.125 -0.96875,-0.75 -0.96875,-0.75 0,0 0.25,1.375 0.0625,1.75 -0.1875,0.375 -0.375,0.96875 -0.6875,1.6875 -0.15625,0.35937 -0.45313,0.82031 -0.61719,1.30469 -0.16406,0.48437 -0.19531,0.99218 0.17969,1.44531 0.75,0.90625 0.9687,1.15625 0.9375,1.6875 -0.0156,0.26563 0.008,0.64063 -0.0156,0.93359 -0.0234,0.29297 -0.0938,0.50391 -0.29687,0.44141 -0.40625,-0.125 -0.4375,-0.9688 -0.78125,-1.0625 -0.34375,-0.0937 -0.65625,0.0937 -0.8125,0.1875 -0.15625,0.0937 -1.21875,-0.34375 -1.21875,-0.34375 0,0 0.17969,-0.125 0.32422,-0.31641 0.14448,-0.1914 0.25391,-0.44921 0.11328,-0.71484 -0.28125,-0.53125 -1.6875,-1.40625 -2,-1.40625 -0.3125,0 -0.8125,0.0625 -0.96875,0.0625 -0.15625,0 -0.9688,0 -1.0625,-0.375 -0.0468,-0.1875 -0.12383,-0.38939 -0.25195,-0.5293 -0.12812,-0.1399 -0.30737,-0.2178 -0.56055,-0.1582 -0.50635,0.11922 -1.71875,0.71875 -1.71875,0.71875 0,0 0.15625,-0.9375 0.46875,-1.34375 0.31245,-0.40625 0.3438,-1 0.0312,-1.40625 -0.31255,-0.40625 -0.5,-1.90625 -0.34375,-2.8125 0.15625,-0.90625 0.75,-2.90625 0.75,-2.90625 0,0 1.09375,-0.0312 1.09375,-0.1875 0,-0.15625 0.4063,-1.6875 0.5,-1.96875 0.0937,-0.28125 1.06445,-1.4375 1.06445,-1.4375 0,0 1.68555,-0.90625 2.06055,-1.5 0.375,-0.59375 1.46875,-3.78125 1.46875,-3.78125 0,0 9.46282,-6.34076 10.16992,-6.87109 0.70713,-0.53033 10.95943,-7.24852 11.57813,-7.51368 0.6187,-0.26517 8.2207,-5.39257 8.2207,-5.39257 l 4.5781,-2.36328 c 0,0 0.016,-0.60938 -0.2187,-0.48438 -0.2344,0.125 -0.7188,0.57812 -1.2813,0.89062 -0.5625,0.3125 -2.7187,1.53126 -3.5781,1.67188 -0.8594,0.1406 -3.0469,0.4375 -3.7188,0.1875 -0.6718,-0.25 -2.2968,-0.21875 -2.7187,-0.5625 -0.4219,-0.34378 -0.7813,-0.51557 -1.2188,-0.42188 -0.4375,0.0937 -2.375,-0.28122 -2.9062,-0.26562 -0.5313,0.0156 -2.0938,0.53125 -2.5781,0.65625 -0.4844,0.125 -1.2344,0.23439 -1.2344,0.23437 0,0 1.8594,-1.0625 2.2656,-1.3125 0.4062,-0.25 2.8125,-0.23437 3.4531,0 0.6407,0.23437 2.125,0.0312 2.6563,0.21876 0.5312,0.18749 1.9531,0.6875 2.3125,0.48437 0.3594,-0.20312 0.9531,-1.9375 0.9531,-2.39063 0,-0.45312 -0.1406,-0.76562 0.2344,-1.21874 0.1875,-0.22658 0.1797,-0.46094 0.1035,-0.66797 -0.076,-0.20703 -0.2206,-0.38672 -0.3066,-0.50391 -0.1719,-0.23437 -0.7188,-2.03125 -0.9219,-2.25 -0.2031,-0.21875 -0.8787,-1.01034 -1.2813,-0.89062 -0.4025,0.11972 -1.5,0 -1.6718,0.20312 -0.1719,0.20313 -0.9063,0.67185 -1.4688,0.71875 -0.5625,0.0469 -2.5625,-0.12501 -3.0625,-0.0781 -0.5,0.0469 -2.5,-0.42187 -3.0625,-0.23437 -0.5625,0.18747 -2.4844,0.32809 -2.8906,0.23437 -0.4063,-0.0937 -1.86069,-0.90679 -2.29687,-1 -0.21814,-0.0465 -0.66781,-0.17178 -1.13477,-0.24218 -0.46696,-0.0704 -0.95119,-0.0859 -1.24023,0.0859 -0.57813,0.34374 -1.1875,0.67187 -1.1875,0.875 -10e-6,0.20312 -0.96875,0.70312 -1.09376,1.01562 -0.12499,0.3125 -0.71875,1.28125 -0.90624,1.59375 -0.18751,0.3125 -0.54102,1.64061 -0.54102,1.64063 l -0.27133,-1.42182 -0.67188,0.0312 c 0,0 0.54688,-1.10936 0.75,-1.51563 0.10156,-0.20311 0.42578,-0.77343 0.83398,-1.32421 0.40821,-0.55079 0.90038,-1.08204 1.3379,-1.20703 0.87499,-0.25002 2.50789,-1.12865 2.55859,-1.29883 0.0507,-0.17017 1.06641,-0.34179 1.20703,-0.32617 0.14063,0.0156 0.98439,-0.70313 1.3281,-0.70313 0.3438,0 1.6406,0.26565 1.9219,0.28125 0.2812,0.0156 2.7187,0.28126 2.9531,0.29688 0.2344,0.0156 1.8438,-0.17186 2.2344,-0.0469 0.3906,0.125 1.5625,0.0781 1.8594,0.3125 0.2968,0.23438 0.7812,0.76563 1.0781,0.5625 0.2969,-0.20312 0.5469,-1.03125 0.6719,-1.51562 0.125,-0.48438 0.125,-2.04688 0.1562,-2.53126 0.031,-0.48437 0.4531,-1.96874 0.7344,-2.42187 0.1406,-0.22656 0.3203,-0.60156 0.4336,-0.9707 0.1133,-0.36914 0.1601,-0.73243 0.035,-0.93555 -0.125,-0.20314 -0.4453,-0.23434 -0.7344,-0.21484 -0.2891,0.0195 -0.5469,0.0898 -0.5469,0.0898 0,0 0.1719,-1.32812 -0.2031,-1.70312 -0.375,-0.375 -2.25,-2.21875 -2.7187,-2.64063 -0.4688,-0.42187 -0.4688,-1 -0.625,-1.42187 -0.1563,-0.42188 -0.3595,-0.78126 -0.3907,-1.15626 -0.031,-0.37499 -1.4919,-4.09443 -1.7129,-4.49218 -0.2209,-0.39775 -1.8557,-4.37496 -1.9882,-4.72852 -0.1326,-0.35355 -0.3105,-2.47579 -0.6641,-2.78515 -1.1298,-1.10324 -1.8773,-2.22626 -2.4883,-3.25782 -0.61097,-1.03156 -1.08557,-1.97029 -1.66599,-2.70703 -0.39775,-0.17678 -1.76707,-2.34248 -1.85547,-2.74023 -0.57011,-0.51782 -0.97166,-1.08062 -1.26367,-1.66797 -0.29202,-0.58736 -0.47421,-1.19984 -0.60352,-1.81836 -0.25862,-1.23704 -0.30726,-2.49744 -0.60742,-3.62891 -0.33358,-1.43486 -0.34503,-2.88304 -0.19531,-4.35156 0.14971,-1.46852 0.46101,-2.95766 0.76758,-4.47461 0.56139,-0.51214 0.85113,-1.09556 1.05859,-1.66797 0.20746,-0.57241 0.3327,-1.13438 0.56641,-1.60742 0.77817,-0.36555 1.23209,-0.83997 1.48242,-1.43555 0.2499,-0.59558 0.2964,-1.3115 0.2539,-2.16211 2.20638,-3.5499 4.26888,-6.29487 6.39458,-8.85546 2.1256,-2.5606 4.3148,-4.93749 6.7753,-7.75196 0.7274,-0.84895 1.5803,-1.46525 2.4766,-2.05859 0.8963,-0.59335 1.836,-1.16282 2.7383,-1.91797 0.2652,-0.26517 1.6606,-0.89932 2.2793,-1.7832 0.3093,-0.44194 1.5279,-1.12826 2.7402,-1.73828 1.2123,-0.61003 2.4198,-1.14282 2.707,-1.27539 0.7651,-0.61897 1.2593,-1.37855 1.8575,-2.07618 0.299,-0.34881 0.6235,-0.68269 1.0215,-0.97461 0.3979,-0.29191 0.8685,-0.54259 1.4589,-0.72656 0.3094,-0.22097 0.9731,-0.884 1.2383,-1.19336 0.2652,-0.30936 0.098,-0.86106 0.1094,-1.08203 0.01,-0.11048 0.063,-0.29115 0.1641,-0.41406 0.1008,-0.123 0.2451,-0.18828 0.4218,-0.0723 0.3536,0.23202 0.8721,0.97117 1.0821,1.23633 0.2099,0.26517 0.6297,-0.79576 0.7402,-0.90625 0.1105,-0.11048 0.7069,-0.1976 0.9941,-0.39648 0.2873,-0.19887 1.8792,-0.59801 2.0118,-0.79688 0.1325,-0.19888 0.045,-0.53037 0.5976,-0.77344 0.5524,-0.24307 2.4746,-0.37523 2.8281,-0.50781 0.3536,-0.13259 1.1041,-0.66149 1.7891,-0.68359 0.685,-0.0221 3.0717,-0.64258 3.5137,-0.64258 0.4419,0 2.8281,-0.375 2.8281,-0.375 0,0 10.1214,6.1e-4 10.3203,-0.0215 0.1989,-0.0221 3.5132,0.19912 3.6016,0.13282 0.088,-0.0663 0.4409,-0.83985 0.1758,-0.83985 -0.1326,0 -0.3041,0.0825 -0.4864,0.10743 -0.1823,0.0248 -0.374,-0.008 -0.5508,-0.24024 -0.3535,-0.46403 -0.8632,-1.30469 -0.8632,-1.30469 0,0 -0.7731,-0.86122 -1.2813,-0.79492 -0.5082,0.0663 -2.0544,-0.0214 -2.6289,0.0449 -0.5745,0.0663 -1.9902,-0.22078 -2.3437,-0.64062 -0.1768,-0.20992 -0.3202,-0.7015 -0.3672,-1.17383 -0.047,-0.47233 0,-0.92601 0.2129,-1.05859 0.4198,-0.26516 1.7908,-0.42003 2.0781,-0.48633 0.2872,-0.0663 1.9668,-0.95117 1.9668,-0.95117 0,0 -0.3537,0.8192 -0.8399,0.92968 -0.4861,0.11049 -1.57,0.30967 -1.791,0.55274 -0.1105,0.12153 -0.2253,0.47457 -0.2695,0.82812 -0.044,0.35356 -0.017,0.70659 0.1601,0.82813 0.3536,0.2431 2.2969,-0.0667 3.004,0.1543 0.7071,0.22097 0.9735,0.53171 1.5039,0.79687 0.5303,0.26467 2.276,0.30787 3.0273,0.26367 0.3757,-0.0221 0.912,0.0282 1.3926,0.13867 0.4806,0.11049 0.9058,0.28098 1.0605,0.50196 0.3094,0.44194 0.9708,0.99548 1.3907,1.01758 0.5001,-0.005 0.8393,-0.25523 1.0937,-0.56641 0.2544,-0.31118 0.4241,-0.68312 0.5859,-0.93555 0.5,0.0732 0.8382,0.01 1.1036,-0.13086 0.2653,-0.14075 0.4585,-0.36075 0.6718,-0.59765 0.2134,-0.23691 0.447,-0.49179 0.791,-0.70703 0.3441,-0.21525 0.7977,-0.38905 1.4551,-0.46485 0.244,-0.66274 0.4428,-1.0131 0.7403,-1.23242 0.2974,-0.21932 0.6945,-0.30791 1.3379,-0.44727 0.1112,-0.23736 0.2444,-0.37502 0.5234,-0.49609 0.2787,-0.12094 0.7032,-0.22732 1.3945,-0.39844 l -0.078,-0.55859 0.1582,-0.48047 -0.08,-1.03906 -0.3984,-0.24024 -0.1602,-0.48046 -0.8808,-1.35938 -0.3203,-0.32031 -0.879,0.16015 -0.2402,-0.0801 0.2402,-1.52149 0.4805,-0.1582 -0.1601,-1.28125 0.2402,-0.32031 v -0.47832 l 0.3984,-0.24023 v -0.80079 l 0.1601,-0.95898 -0.2402,-0.48047 0.1602,-0.40039 0.2402,-1.03906 -1.0391,-1.28125 -0.2402,-0.40039 0.1602,-0.24024 0.4785,-0.1582 v -0.16016 l -0.078,-0.16015 h -0.3203 l -1.0411,-0.40039 -1.4394,0.0801 0.2402,-0.4004 h 0.8789 l -0.08,-0.40039 -0.6386,-0.32031 -0.3203,-0.47851 -0.08,-1.67969 0.1601,-0.64063 -0.5605,-0.48047 h -0.959 l -0.8809,-0.16015 -1.5195,0.24023 -1.1211,-0.16015 -0.2402,0.0801 -0.1582,0.24024 h -0.5606 l -0.1601,-0.16016 -0.08,-0.24023 -0.4004,-0.0801 0.2402,-0.32031 -0.1602,-0.16016 -0.9589,-0.0801 -0.961,0.40039 -0.2402,0.16016 -0.08,0.56055 -0.1602,0.16015 -0.1601,0.0801 -0.1602,-0.32031 0.1602,-0.64063 -0.3184,-0.8789 -1.2812,-0.32031 -0.2403,-0.24024 -0.3984,-0.80078 h -0.9609 l -0.4805,0.24023 -0.1602,0.40039 -0.3203,0.16016 -0.1582,-0.0801 0.08,-0.16015 -0.08,-0.24024 -0.3203,-0.48047 -0.3203,-0.0781 -0.4805,0.23828 -0.2402,0.0801 -0.1602,-0.0801 H 872.8 v -0.31839 l 0.08,-0.24023 -1.041,0.16015 -0.2403,-0.40039 -0.1601,-0.16015 -0.8789,-0.0801 -0.3203,-0.16016 -0.2403,-0.32031 0.08,-0.71875 -0.3203,-0.16016 -0.7187,0.16016 -0.7207,0.63867 -0.8809,-0.40039 -0.08,-0.16016 h -0.1601 v -0.15818 l 0.1601,-0.16016 0.08,-0.7207 -0.3183,-0.16016 h -0.7207 l -0.4004,-0.0801 0.1601,-0.32032 0.5606,-0.40039 -0.08,-0.23828 -0.4805,-0.40039 v -0.32031 l -0.1602,-0.32031 -0.08,-0.40039 -0.3203,-0.24024 -0.2402,-0.79883 -0.2383,-0.32031 -0.8808,-0.48047 -0.4004,-1.03906 c 0.6882,-0.20715 1.2549,-1.11811 1.2109,-1.64844 -0.044,-0.53033 -0.3974,-0.46468 -0.5742,-0.75195 -0.1767,-0.28725 -0.2199,-0.79465 -0.4629,-1.01562 -0.243,-0.22096 -0.641,-1.19383 -0.8399,-1.45899 -0.1986,-0.26518 -0.4178,-1.11521 0.027,-1.36523 0.4454,-0.25003 0.8985,-1.4375 0.7422,-1.92188 0,0 -0.1291,-1.26555 0.092,-1.97265 0.221,-0.70712 -0.5305,-0.97067 -0.8398,-1.32422 -0.3094,-0.35356 -1.3558,-0.86071 -1.3262,-1.32618 l -0.5078,0.70508 -0.1602,0.0801 H 860.96 l -1.4414,-0.48047 -0.7988,0.0801 -1.041,0.40039 -0.7989,-0.40039 -1.6797,-1.19919 -0.4804,-0.80078 -0.4004,-0.0801 -0.3203,0.7207 -0.5586,0.63868 0.078,1.04101 -0.1582,0.63867 v 1.8418 l -0.1602,0.39844 -0.2402,0.24023 -0.6407,0.0801 -0.4804,0.32032 -0.7989,0.7207 -0.5605,0.24023 h -0.7207 l -0.8789,-0.32031 h -0.9609 l -0.2403,-0.24024 -0.1601,0.16016 -0.3184,0.40039 -0.2402,0.0801 -0.4004,-0.0801 -0.4004,0.23828 -0.2402,0.64063 -0.7988,0.32031 -0.2403,1.11914 -0.3203,0.16016 v 0.32031 l 0.08,0.32031 0.4805,0.32031 0.3203,0.48047 0.078,0.47852 -0.4785,1.04101 0.2402,1.67969 -2.0801,0.0801 -1.9199,-0.0801 -1.041,-0.0801 -2.8789,-0.56054 -0.6406,-0.5586 -0.6407,-1.9199 -0.4004,-0.24023 -0.2382,-0.24024 -1.2813,-0.7207 -0.4004,-1.2793 -0.3984,-0.24023 0.3183,-0.88086 -0.1601,-0.39844 0.4004,-0.56055 0.1601,-1.5996 0.1602,-0.64063 1.2012,-1.59961 0.6386,-1.83984 1.3614,-1.28125 0.1582,-0.87891 0.2402,-0.40039 -0.3203,-0.80078 -0.4785,-0.31836 -0.3203,-0.7207 -0.4004,-1.04102 0.1601,-1.03906 0.3203,-0.96094 -0.1601,-0.47851 -0.8809,-1.1211 h -1.039 l -0.5606,-0.16015 -0.4805,-0.24024 -0.7187,-0.16016 -0.5605,-0.39843 -0.3204,-0.72071 -2,-1.35937 -0.1601,-0.96094 -0.4004,-0.48047 -1.1992,-0.71875 -0.6407,0.24024 -0.9589,-0.0801 -1.5196,-0.48047 -0.4004,0.16015 -0.8007,-0.0801 -1.6797,-0.0801 -7.51955,-1.51953 -0.24024,0.40039 -0.56054,0.39844 -1.19922,-0.39844 -0.0801,-0.7207 -0.7207,-0.96094 -0.24024,-0.47851 -0.31836,-0.16016 -0.7207,0.16016 -0.32031,-0.16016 h -0.80078 l -0.15821,-0.40039 0.39844,-0.80078 -0.16016,-0.24024 -0.31836,-0.0801 -0.80078,0.0801 -0.0801,-0.0801 0.32036,-0.23827 0.0801,-0.32031 -0.0801,-1.04102 0.0801,-0.79882 -1.20117,-1.04102 -0.47851,0.0801 -0.48047,0.40039 -0.7207,0.16016 -0.63868,0.24023 -1.84179,0.24024 -0.5586,0.16015 -1.59961,-0.16015 h -0.88086 l -1.19921,0.23828 -0.88086,-0.0781 v -1.8418 l 0.16015,-0.63867 -0.16015,-1.28125 -0.32032,-0.47852 0.0801,-0.40039 0.48047,-0.56055 -0.16016,-0.95898 0.16016,-0.56055 0.32031,-1.51953 0.32032,-0.64062 c -0.59736,-0.26263 -1.43618,-0.78009 -1.66602,-0.82422 -0.40624,-0.0781 -2.17407,0.58345 -3.23047,-0.13281 -1.05632,-0.71627 -0.97164,-1.28204 -1.14844,-1.32618 -0.17672,-0.0442 -2.75635,0.12325 -2.78515,-0.88281 l -0.45117,-1.07422 0.0801,-0.40039 -0.24031,-0.55859 -0.0801,-0.48047 -0.39844,-0.0801 -0.0801,-0.24023 -0.48047,0.0801 -0.0801,-0.32031 -0.32031,-0.40039 h -0.56055 l -0.31836,0.32031 -1.44141,-1.11914 -0.8789,-0.40039 -0.72071,0.0801 -0.56054,0.48047 -0.87891,-0.0801 -0.16016,-0.88086 -0.56054,-0.56055 v -0.55859 h -0.40039 l -0.0801,-0.48047 -0.39844,-0.32032 -0.40039,0.16016 -0.0801,0.32031 -0.48047,0.0801 -0.32031,-0.48047 h -0.79883 l -1.20117,0.24024 -0.71875,-0.48047 -0.7207,-0.56055 -0.96094,0.64063 -0.95898,-0.56055 -0.16016,-0.63867 -0.32031,-0.40039 0.56054,-0.16016 -0.16015,-0.7207 -0.56055,-0.24024 -1.43945,-0.47851 -0.80078,-0.88086 -0.16016,-1.19922 -2,-0.40039 -0.23828,0.24023 -0.40039,0.95899 -0.48047,0.0801 -0.80078,0.24023 -0.1582,0.40039 -0.40039,0.24024 -0.4004,0.0801 -0.3202,0.48046 -1.03906,-0.0801 -0.96094,-0.32031 -0.40039,0.24023 v 0.87891 l 0.24024,0.64062 -0.16016,0.64063 -0.71875,0.5586 -1.12109,-0.5586 0.0801,-0.40039 -0.40039,-0.56055 -1.27929,-0.24023 -1.2793,-0.48047 -1.28125,-0.71875 -1.83984,-1.44141 -1.59961,-0.31835 -1.2793,-0.72071 v -0.7207 l -0.64063,-0.95899 -0.96093,-0.88085 -1.75977,-0.87891 -0.63867,-0.88086 -0.32031,-1.2793 -0.96094,-0.80078 -0.95898,-0.95898 -0.16016,-1.28125 -0.96094,-0.5586 -0.63867,-0.64062 -0.96094,-2.56055 -1.03906,0.40039 -0.80078,0.40039 -0.7207,-0.24023 -2.08008,-0.40039 -1.75977,-0.64063 -0.8789,-0.0801 -0.0801,0.16016 -1.1211,-1.2793 0.72071,-0.56054 0.0801,-0.5586 -0.16015,0.39844 -0.96094,0.32031 -0.79887,-0.95898 -0.7207,0.32031 -2.79883,-1.04101 -0.96094,-0.0801 -1.27929,-0.24024 -1.28125,0.48047 0.0801,-0.48047 -3.19922,-0.79883 -1.04102,0.31836 -0.55859,-0.23828 -0.72071,-0.64062 -0.40039,-0.72071 -0.55859,-1.51953 -0.24023,-0.16015 -1.67969,-2.64063 -1.1211,-1.51953 -0.8789,-0.71875 -0.48047,-0.56055 -0.56055,-0.16015 -0.8789,-0.40039 z M 234.90111,579.10981 c -0.0144,0.01 -0.0215,0.0273 -0.0215,0.0273 0,0 0.0193,-0.0249 0.0215,-0.0273 z M 832.5945,329.30122 c -0.4257,-0.029 -1.01,0.0784 -1.1094,0.21093 -0.1326,0.17678 -0.1543,0.57422 -0.1543,0.57422 0,0 0.685,-0.15371 0.7734,0.17774 0.088,0.33146 -0.045,1.23751 0.043,1.54687 0.088,0.30936 0.5308,0.28718 0.6192,0.70703 0.088,0.41984 -0.022,0.66273 0.5078,0.64063 0.5303,-0.0221 1.5686,-0.37576 1.7012,-0.0664 0.1325,0.30936 -0.1103,0.66368 0.1328,0.81836 0.243,0.15468 0.7736,0.17575 0.9062,0.5293 0.1326,0.35356 0.1547,0.90625 0.3535,0.90625 0.1989,0 0.3321,-0.26563 0.3321,-0.26563 0.022,-0.17678 0.3307,-1.76689 -0.045,-2.49609 -0.3757,-0.72921 -0.7075,-1.06109 -0.9727,-1.74609 -0.2652,-0.68503 -0.9052,-1.48047 -1.4355,-1.48047 -0.5304,0 -0.9713,0.19826 -1.3028,0.0215 -0.083,-0.0442 -0.2077,-0.0681 -0.3496,-0.0781 z m -13.8418,5.29687 c -0.2058,0.006 -0.3809,0.0293 -0.4981,0.084 -0.46871,0.21877 -1.2656,0.75 -1.2656,0.75 0,10e-6 1.2812,0.60938 1.4687,0.78126 0.1875,0.17187 1.5469,0.40624 1.9532,0.40624 0.4062,0 1.0468,-0.1875 1.3281,-0.29687 0.2812,-0.1094 2,-0.2344 2.375,-0.1875 0.375,0.0469 1.2969,0.29687 1.6719,0.35937 0.375,0.0625 1.7812,-0.23437 1.7812,-0.23437 -0.1562,-0.0625 -2.7969,-0.35938 -3.2031,-0.46875 -0.4063,-0.10938 -2.1719,-0.70315 -2.3125,-0.78125 -0.1406,-0.0781 -0.7188,-0.25001 -1.3281,-0.26563 -0.4571,-0.0117 -1.3533,-0.16328 -1.9707,-0.14648 z m 25.7695,2.95703 c 0,0 -0.4203,0.37645 -0.6191,0.46485 -0.1989,0.0884 -0.6176,0.37533 -0.8164,0.57421 -0.1989,0.19887 -0.42,0.35352 -0.42,0.35352 0,0 1.1255,0.0879 1.3907,0.0879 0.2651,0 0.5311,0.11178 0.4648,0.37695 -0.066,0.26512 -0.1549,0.39772 0.2207,0.35352 0.3757,-0.0442 0.1992,-0.41992 0.1992,-0.41992 -0.044,-0.15468 -0.2644,-0.57419 -0.3086,-0.92774 -0.044,-0.35355 -0.1113,-0.86328 -0.1113,-0.86328 z M 635.79759,471.70551 c -0.12015,-0.004 -0.22471,10e-4 -0.29101,0.0234 -0.26516,0.0884 -0.53145,0.68508 -1.01758,0.41992 -0.48614,-0.26521 -0.48656,-0.44191 -0.61914,-0.35351 -0.13258,0.0884 -0.35286,0.53086 -0.72852,0.68554 -0.37565,0.15468 -0.92773,-0.0448 -0.92773,0.375 0,0.41984 0.0447,0.86155 0.68555,0.99414 0.64081,0.13258 1.32445,0.57614 1.45703,0.92969 0.13259,0.35356 0.37619,1.08115 0.68554,1.32422 0.30936,0.24306 0.92846,-0.0204 0.97266,0.22266 0.0442,0.24307 0.2207,0.72851 0.2207,0.72851 l 0.41993,-0.19922 c -0.1105,-0.41985 -0.39724,-1.28243 -0.0879,-1.59179 0.30939,-0.30936 0.44123,-1.08089 -0.0449,-1.54493 -0.48614,-0.46404 -0.90601,-0.53183 -0.77343,-0.86328 0.13258,-0.33146 1.06126,-0.64011 1.10546,-0.72851 0.0442,-0.0884 -0.19921,-0.3086 -0.19921,-0.3086 0,0 -0.49697,-0.10088 -0.85743,-0.11328 z m -17.00781,2.00782 c -0.0964,-0.009 -0.18753,-0.004 -0.26953,0.0156 -0.65625,0.15625 -1.43745,0.78125 -1.34375,1.375 0.0937,0.59375 0.1875,0.96875 -0.6875,0.96875 -0.875,0 -1.5625,0.21875 -1.375,0.8125 0.1875,0.59375 0.46875,0.96875 0.46875,0.96875 0,0 0.84375,-0.625 1.21875,-0.34375 0.375,0.2813 0.65625,0.59375 1.125,0.375 0.4687,-0.21875 0.0541,0.82053 0.375,0.96875 0.28837,0.13322 -0.38567,1.09542 1.57031,0.66406 0.98839,-0.21797 1.14844,0.71094 1.49219,0.89844 0.34375,0.18745 0.96758,-0.061 1.25,0.15625 0.28284,0.21756 1.01917,0.56965 1.32031,0.59375 0.37509,0.0301 0.77344,0.3125 1.11719,0.5 0.34375,0.1875 0.75,-0.125 0.75,-0.125 0,0 -0.4688,-0.65625 -0.5,-1.1875 -0.0312,-0.53125 -0.15625,-1.15625 0.125,-1.15625 0.28125,0 0.96875,0.3125 0.96875,0.3125 0,0 -0.90625,-1.09375 -0.90625,-1.375 0,-0.28125 0.2188,-1.6875 0.3125,-2.34375 0.0937,-0.65625 0.375,-1.25 -0.25,-1.1875 -0.625,0.0625 -1.03125,1.5313 -1.34375,1.5625 -0.3125,0.0312 -1.28125,-0.28125 -1.28125,-0.28125 0,0 -0.25,1.09375 -0.65625,1.375 -0.40625,0.2813 -0.6875,0.84375 -0.84375,0.375 -0.1562,-0.46875 -0.125,-1.0625 -0.125,-1.0625 -0.125,-0.21875 -0.59375,-1.71875 -0.75,-1.9375 -0.13672,-0.19141 -1.08667,-0.86209 -1.76172,-0.92187 z m 13.2461,0.68945 c -0.41985,0.0221 -0.7279,0.39732 -0.75,0.50781 -0.0222,0.11048 -0.22181,0.37719 -0.11133,0.50977 0.11049,0.13258 0.46392,0.30848 1.06054,0.24218 0.59663,-0.0663 0.90659,-0.0448 1.10547,0.0215 0.19887,0.0663 -0.39844,-0.5957 -0.39844,-0.5957 -0.30934,-0.15469 -0.48641,-0.70765 -0.90624,-0.68555 z m 6.63281,0.34961 c -0.0292,-0.0109 -0.0518,-0.006 -0.0684,0.0156 -0.0663,0.0884 -0.0112,0.36436 -0.13281,0.60742 -0.12153,0.24307 -0.54113,0.25493 -0.60743,0.46485 -0.0663,0.20993 0.0757,0.29794 0.16407,0.54101 0.0884,0.24307 0.0788,0.79493 0.12304,0.79493 0.0442,0 0.94922,-0.26563 0.94922,-0.26563 0,0 0.0766,-0.37585 0.375,-0.48633 0.29831,-0.11046 0.87351,-0.13096 1.13867,-0.16406 0.26517,-0.0331 0.75091,-0.28783 0.89453,-0.33203 0.14364,-0.0442 0.11133,-0.4082 0.11133,-0.4082 -0.12154,0 -0.99549,0.0879 -1.40429,0.0879 -0.40879,0 -1.07122,-0.25431 -1.21485,-0.48633 -0.10772,-0.17402 -0.24062,-0.33654 -0.32812,-0.36914 z m -8.9961,0.22461 c -0.17677,0.0221 -1.21653,0.42043 -1.4375,0.33203 -0.22097,-0.0884 -0.35351,-0.48624 -0.35351,-0.0664 0,0.41985 0.39826,0.97323 -0.0879,1.30469 -0.48614,0.33146 -0.79431,0.21955 -0.81641,0.68359 -0.0221,0.46404 0.0878,0.86237 0.0215,1.45899 -0.0663,0.59662 -0.46423,1.17087 -0.48633,1.34765 -0.0221,0.17678 0.10948,1.08227 0.17578,1.21485 0.0663,0.13258 0.70833,0.24499 1.08398,0.35547 0.37565,0.1105 0.88351,0.19837 1.28125,0.0879 0.39775,-0.11048 1.50181,-0.72996 1.78907,-0.81836 0.28726,-0.0884 1.15012,-0.30905 1.37109,-0.57422 0.22097,-0.26516 0.37619,-0.48644 0.68555,-0.55274 0.30936,-0.0663 0.72751,-0.64024 0.90429,-0.79492 0.17677,-0.15468 0.37696,-0.84019 0.37696,-1.03906 0,-0.19887 -0.1113,-1.52379 -0.46485,-1.72266 -0.35355,-0.1989 -0.90545,-0.3091 -1.56836,-0.2207 -0.66292,0.0884 -1.54684,-0.0239 -1.90039,-0.28906 -0.35356,-0.26516 -0.57422,-0.70703 -0.57422,-0.70703 z"
       style="fill:#a30000;fill-opacity:1;fill-rule:evenodd;stroke:none;stroke-width:0.98268002;stroke-linecap:square;stroke-linejoin:bevel;stroke-miterlimit:10;stroke-dasharray:none;stroke-opacity:1"
       id="path1170" /></g><g
     transform="translate(-139.5728,-115.13715)"
     style="display:inline"
     id="layer2"><path
       id="path2092"
       transform="translate(185.739,13.978951)"
       d="m 703.30348,831.99736 h -0.16016 v -0.0801 h -0.0801 v -0.0801 h -0.1582 v 0.0801 h -0.0801 v 0.0801 0.0801 h 0.0801 v 0.0801 h 0.0781 v 0.0801 h 0.16016 0.0801 v -0.0801 -0.0801 h 0.0801 z"
       style="fill:#c6ecff;fill-opacity:1;fill-rule:evenodd;stroke:#646464;stroke-width:0.80000001;stroke-linecap:square;stroke-linejoin:bevel;stroke-miterlimit:10;stroke-dasharray:none;stroke-opacity:1" /></g><g
     transform="translate(-139.5728,-115.13715)"
     style="display:inline"
     id="layer1" /><g
     style="display:inline"
     transform="matrix(1.3333333,0,0,-1.3333333,-139.5728,544.8629)"
     id="g823"><g
       transform="matrix(0.6,0,0,-0.6,0,495)"
       id="g825"><g
         id="g827"><g
           id="g829" /></g><g
         id="g831" /></g></g></svg>